<svg id="Logo" xmlns="http://www.w3.org/2000/svg" viewBox="0 0 3300.91 713.15"><path d="M408.31,156.76,372,227.61c-4.13,7.7-11.51,7-18.9,2.69l-26.3-14.24,19.6,108.82c4.12,19.88-9.1,19.88-15.63,11.29l-45.91-53.73-7.45,27.28a8.89,8.89,0,0,1-10.31,6.45l-58-12.76,15.24,57.95c3.27,12.9,5.81,18.24-3.29,21.64L200.3,393.17,300.22,478a14,14,0,0,1,4.55,14.21l-8.75,30,99.66-12c3.06,0,8.13,2.67,8.1,6.35l-4.55,109.94H416l-2.63-109.7c0-3.68,4.58-6.63,7.63-6.59l99.66,12-8.75-30A14,14,0,0,1,516.41,478l99.92-84.86L595.64,383c-9.1-3.4-6.56-8.74-3.29-21.64l15.25-57.95-58.05,12.76a8.89,8.89,0,0,1-10.31-6.45l-7.45-27.28-45.91,53.73c-6.53,8.59-19.75,8.59-15.63-11.29l19.61-108.82L463.55,230.3c-7.39,4.3-14.77,5-18.89-2.69" transform="translate(-47.43 -23.58)"/><polygon points="361.07 0 371.22 31.23 404.06 31.23 377.5 50.54 387.64 81.77 361.07 62.47 334.51 81.77 344.65 50.54 318.09 31.23 350.93 31.23 361.07 0"/><polygon points="210.37 37.56 220.51 68.79 253.35 68.79 226.79 88.1 236.94 119.33 210.37 100.03 183.8 119.33 193.95 88.1 167.38 68.79 200.22 68.79 210.37 37.56"/><polygon points="97.93 137.43 108.08 168.66 140.92 168.66 114.35 187.96 124.5 219.2 97.93 199.89 71.36 219.2 81.51 187.96 54.94 168.66 87.78 168.66 97.93 137.43"/><polygon points="42.99 280.37 53.14 311.6 85.98 311.6 59.41 330.91 69.56 362.14 42.99 342.84 16.42 362.14 26.57 330.91 0 311.6 32.84 311.6 42.99 280.37"/><polygon points="62.07 436.45 72.22 467.69 105.06 467.69 78.49 486.99 88.64 518.22 62.07 498.92 35.5 518.22 45.65 486.99 19.08 467.69 51.92 467.69 62.07 436.45"/><polygon points="148.16 560.26 158.31 591.49 191.15 591.49 164.58 610.8 174.73 642.03 148.16 622.73 121.59 642.03 131.74 610.8 105.17 591.49 138.01 591.49 148.16 560.26"/><polygon points="282.14 631.38 292.29 662.61 325.13 662.61 298.56 681.91 308.71 713.15 282.14 693.84 255.57 713.15 265.72 681.91 239.15 662.61 271.99 662.61 282.14 631.38"/><polygon points="440.01 631.38 450.16 662.61 483 662.61 456.43 681.91 466.58 713.15 440.01 693.84 413.44 713.15 423.59 681.91 397.02 662.61 429.86 662.61 440.01 631.38"/><polygon points="573.99 560.26 584.13 591.49 616.98 591.49 590.41 610.8 600.56 642.03 573.99 622.73 547.42 642.03 557.57 610.8 531 591.49 563.84 591.49 573.99 560.26"/><polygon points="660.08 436.45 670.23 467.69 703.07 467.69 676.5 486.99 686.65 518.22 660.08 498.92 633.51 518.22 643.66 486.99 617.09 467.69 649.93 467.69 660.08 436.45"/><polygon points="679.16 280.37 689.31 311.6 722.15 311.6 695.58 330.91 705.73 362.14 679.16 342.84 652.59 362.14 662.74 330.91 636.17 311.6 669.01 311.6 679.16 280.37"/><polygon points="624.22 137.43 634.37 168.66 667.21 168.66 640.64 187.96 650.79 219.2 624.22 199.89 597.65 219.2 607.8 187.96 581.23 168.66 614.07 168.66 624.22 137.43"/><polygon points="511.78 37.56 521.93 68.8 554.77 68.8 528.2 88.1 538.35 119.33 511.78 100.03 485.21 119.33 495.36 88.1 468.8 68.8 501.63 68.8 511.78 37.56"/><polygon points="361.07 0 371.22 31.23 404.06 31.23 377.5 50.54 387.64 81.77 361.07 62.47 334.51 81.77 344.65 50.54 318.09 31.23 350.93 31.23 361.07 0"/><path d="M945.58,415.73l38.55,5.83q-11.29,31.32-33.85,47.86T897.4,486q-34.11,0-53.32-20.54t-19.2-59.59q0-31.71,12.86-58t35.7-40.26a93.52,93.52,0,0,1,49.7-13.95q30.18,0,48.82,16.17t21.93,44.06l-36.64,3.55q-3-16.23-11.73-23.52t-23.14-7.29a50.58,50.58,0,0,0-29.61,9.64q-13.75,9.63-22,30.11a108.71,108.71,0,0,0-8.25,40.89q0,22.32,10.72,34.49a34.12,34.12,0,0,0,26.69,12.17,43.19,43.19,0,0,0,27.19-9.64Q939.51,434.62,945.58,415.73Z" transform="translate(-47.43 -23.58)"/><path d="M1120.18,441.59h-73.67l-22.31,41.08H984.89L1090,296.79h42.48l30.18,185.88h-36.27Zm-4.69-30.94-10.78-74.8-44.88,74.8Z" transform="translate(-47.43 -23.58)"/><path d="M1334.59,482.67H1299l-50.21-124.89-26.12,124.89H1187l38.8-185.88h35.76l50.33,124.39,26-124.39h35.5Z" transform="translate(-47.43 -23.58)"/><path d="M1495.24,441.59h-73.67l-22.32,41.08H1360l105.11-185.88h42.48l30.17,185.88h-36.26Zm-4.69-30.94-10.78-74.8-44.89,74.8Z" transform="translate(-47.43 -23.58)"/><path d="M1561.68,482.67l38.93-185.88h50.08q20.93,0,26.75.64a77.23,77.23,0,0,1,20.61,4.69,56.82,56.82,0,0,1,16.48,9.95,63,63,0,0,1,12.81,15.41,75.58,75.58,0,0,1,8.3,20.73,106.52,106.52,0,0,1,2.92,25.67q0,30.06-11.48,53.32t-28.84,37q-13.32,10.65-34.36,15.72-11.93,2.81-36.65,2.79Zm44.5-29.92h19.4q21,0,30.5-2.6a42.34,42.34,0,0,0,17.3-9.7q11.3-10.27,19-27.39t7.74-40.32q0-19.77-6.41-29.73T1678,329.76q-6.6-2.28-23.46-2.28H1632.3Z" transform="translate(-47.43 -23.58)"/><path d="M1746.93,482.67l38.92-185.88H1824l-38.8,185.88Z" transform="translate(-47.43 -23.58)"/><path d="M1942.44,441.59h-73.66l-22.32,41.08h-39.31l105.12-185.88h42.47l30.18,185.88h-36.26Zm-4.69-30.94L1927,335.85l-44.88,74.8Z" transform="translate(-47.43 -23.58)"/><path d="M2156.85,482.67h-35.63L2071,357.78l-26.12,124.89h-35.63l38.8-185.88h35.76l50.34,124.39,26-124.39h35.5Z" transform="translate(-47.43 -23.58)"/><path d="M2196.29,482.67l38.92-185.88h77.6q20.16,0,30.24,4.63t16.67,15.85a48.71,48.71,0,0,1,6.6,25.17,63.75,63.75,0,0,1-4.7,23.46,62,62,0,0,1-11.85,19.65,56.21,56.21,0,0,1-14.52,11.66,62.68,62.68,0,0,1-15.72,5.84,158.08,158.08,0,0,1-36.14,4.18h-46.53l-15.72,75.44Zm45-96.49h40.95q23.84,0,35-5.13a41.39,41.39,0,0,0,17.87-15.66,40.8,40.8,0,0,0,6.72-22.32q0-9.12-3.55-14.9a21,21,0,0,0-10-8.49q-6.47-2.73-24.85-2.73h-47.68Z" transform="translate(-47.43 -23.58)"/><path d="M2370.5,482.67l38.93-185.88h78q23.08,0,35,3.87a34,34,0,0,1,18.7,14.52q6.78,10.65,6.78,26.88,0,22.69-14.83,37.66t-47.93,19.4q10.14,7.47,15.34,14.7a165.56,165.56,0,0,1,18.77,33.86l14.2,35h-27.77l-13.31-34.61a161.7,161.7,0,0,0-16.48-32.46q-6.35-9.51-12.94-12.49t-21.43-3h-28.9l-17.25,82.54ZM2416.78,380h34.36q23.84,0,31.07-.63,14.07-1.39,23.07-6.34a36,36,0,0,0,13.95-13.32,34.76,34.76,0,0,0,4.95-18,26.63,26.63,0,0,0-3.68-14.14,18.68,18.68,0,0,0-9.64-8.18q-6-2.14-20.29-2.15H2430Z" transform="translate(-47.43 -23.58)"/><path d="M2569.57,404.82q0-49.69,28.72-80.45T2668,293.62q34.74,0,56.61,22.64t21.88,60.67a115.59,115.59,0,0,1-11,50.33,107,107,0,0,1-20.79,30,97,97,0,0,1-26.88,19.46,92,92,0,0,1-40.32,9.13,79.4,79.4,0,0,1-40.64-10.65A69.18,69.18,0,0,1,2579,445.46,90.35,90.35,0,0,1,2569.57,404.82Zm24.47,1.27a66.8,66.8,0,0,0,6.78,30.05,49.74,49.74,0,0,0,20.23,21.43,55.79,55.79,0,0,0,28.27,7.73,57.91,57.91,0,0,0,27.26-6.78,76.94,76.94,0,0,0,23.14-18.89q10.22-12.11,16.1-29.8a109.36,109.36,0,0,0,5.9-34.81q0-27.76-15.53-44.25t-38.36-16.48q-29.16,0-51.47,24.92T2594,406.09Z" transform="translate(-47.43 -23.58)"/><path d="M2806.8,482.67,2841.16,318h-61l4.44-21.18h146.32L2926.49,318H2866l-34.36,164.7Z" transform="translate(-47.43 -23.58)"/><path d="M2918.12,482.67l38.93-185.88H3091.2L3086.76,318h-109.3l-12.17,57.82H3071.8L3067.36,397h-106.5l-13.44,64.67h117l-4.44,21Z" transform="translate(-47.43 -23.58)"/><path d="M3094.5,482.67l38.92-185.88h24.73l-38.8,185.88Z" transform="translate(-47.43 -23.58)"/><path d="M3164.49,482.67l38.92-185.88h24.09l31.32,69.74q14.32,32,22.7,53.76,4.82,12.68,11.16,34.23,3.42-23.44,8.62-48.43l22.82-109.3h24.22l-38.8,185.88h-24.6l-46.15-107.39a532.46,532.46,0,0,1-19.15-50.09q-1.89,18.13-7.35,44.51l-23.58,113Z" transform="translate(-47.43 -23.58)"/></svg>