<?xml version="1.0" encoding="utf-8"?>
<!-- Generator: Adobe Illustrator 19.0.0, SVG Export Plug-In . SVG Version: 6.00 Build 0)  -->
<svg version="1.1" id="layer" xmlns="http://www.w3.org/2000/svg" xmlns:xlink="http://www.w3.org/1999/xlink" x="0px" y="0px"
	 viewBox="-153 -46 652 652" style="enable-background:new -153 -46 652 652;" xml:space="preserve">
<style type="text/css">
	.st0{fill:#32415A;}
	.st1{fill-rule:evenodd;clip-rule:evenodd;fill:#F78F1E;}
</style>
<path id="XMLID_1_" class="st0" d="M126.6,224.1v108H98.5l0.5-83h-0.3l-27.5,83H44.8l-26.3-83h-0.3l0.6,83H-9.3v-108H36l22.9,71.8
	h0.3l23.9-71.8H126.6z M213.5,332.1c-1.2-6.3-1.5-12.7-1.5-19v-30c0-24.6-17.8-33.4-38.3-33.4c-11.9,0-22.2,1.7-32.1,5.7l0.5,18.9
	c7.7-4.3,16.7-6,25.6-6c10,0,18.2,2.9,18.4,13.9c-3.6-0.6-8.5-1.1-13-1.1c-14.8,0-41.6,2.9-41.6,27.6c0,17.5,14.2,25.4,30.1,25.4
	c11.4,0,19.2-4.5,25.5-14.6h0.3c0,4.2,0.5,8.4,0.6,12.7H213.5z M168.8,315.4c-6.5,0-11.4-3.3-11.4-8.8c0-7.7,7.4-10.7,16.8-10.7
	c4.2,0,8.2,0.3,11.7,0.5C186,305.8,179.3,315.4,168.8,315.4 M279.3,250.6c-2.8-0.5-6.2-0.9-9.4-0.9c-12.1,0-19,6.5-23.8,16.7h-0.3
	v-14.9h-25.3v80.6h27.8v-34.1c0-15.8,7.3-25.2,20.2-25.2c3.2,0,6.3,0,9.4,0.9L279.3,250.6z M284.4,332.1h27.8v-39.9h0.3l22.2,39.9
	h33.7l-30.3-43.6l28-37h-30.4l-23.2,33.9h-0.3v-69.3h-27.8V332.1z M370.7,266h21.2l15.1-41.9h-26L370.7,266z M401.8,330.1
	c8.2,2.6,16.7,3.9,29.2,3.9c18.2,0,37.5-5.4,37.5-26.9c0-30.6-41.4-20.7-41.4-33.3c0-4.5,6.8-5.6,12.8-5.6c7,0,15.8,1.9,21.6,5.4
	l2.2-19.4c-9-3.6-18.7-4.6-28.3-4.6c-16.1,0-34.3,7.6-34.3,26.2c0,29.1,39.5,19.5,39.5,33.1c0,5.6-5.6,6.5-11.3,6.5
	c-10,0-19.6-2.8-26.1-5.6L401.8,330.1z"/>
<rect id="XMLID_9_" x="-131.5" y="224.1" class="st1" width="108.1" height="108.1"/>
</svg>
