<svg xmlns="http://www.w3.org/2000/svg" viewBox="0 0 750 500"><g id="freepik--background-simple--inject-54"><path d="M706.94,130.79s-39-90-162-109-177.89,15.06-213,61-60-10-163-14c-36.49-1.41-77.72,5.12-102.79,34.33-19.3,22.49-26.81,57.34-8.5,82.7,16.24,22.48,53.37,56.32,35.29,87-23,39-53,99-21,144s66,64,165,45,134-58,182-34,147,61,206,47,40-86,36-111,61-51,63-118S717.94,155.79,706.94,130.79Z" style="fill:#326DD9"></path><path d="M706.94,130.79s-39-90-162-109-177.89,15.06-213,61-60-10-163-14c-36.49-1.41-77.72,5.12-102.79,34.33-19.3,22.49-26.81,57.34-8.5,82.7,16.24,22.48,53.37,56.32,35.29,87-23,39-53,99-21,144s66,64,165,45,134-58,182-34,147,61,206,47,40-86,36-111,61-51,63-118S717.94,155.79,706.94,130.79Z" style="fill:#fff;opacity:0.7000000000000001"></path></g><g id="freepik--Floor--inject-54"><line x1="28.46" y1="342.18" x2="725.51" y2="342.18" style="fill:none;stroke:#263238;stroke-linecap:round;stroke-miterlimit:10"></line></g><g id="freepik--Windows--inject-54"><rect x="442.24" y="34" width="148.4" height="271.03" style="fill:none;stroke:#263238;stroke-linecap:round;stroke-miterlimit:10"></rect><rect x="449.33" y="43.3" width="134.21" height="154.7" style="fill:none;stroke:#263238;stroke-linecap:round;stroke-miterlimit:10"></rect><rect x="449.33" y="209.03" width="134.21" height="86.7" style="fill:none;stroke:#263238;stroke-linecap:round;stroke-miterlimit:10"></rect><line x1="480.55" y1="43.35" x2="480.55" y2="197.25" style="fill:none;stroke:#263238;stroke-linecap:round;stroke-miterlimit:10"></line><line x1="516.71" y1="43.35" x2="516.71" y2="197.25" style="fill:none;stroke:#263238;stroke-linecap:round;stroke-miterlimit:10"></line><line x1="552.87" y1="43.35" x2="552.87" y2="197.25" style="fill:none;stroke:#263238;stroke-linecap:round;stroke-miterlimit:10"></line><line x1="480.55" y1="208.33" x2="480.55" y2="295.92" style="fill:none;stroke:#263238;stroke-linecap:round;stroke-miterlimit:10"></line><line x1="516.71" y1="208.33" x2="516.71" y2="295.92" style="fill:none;stroke:#263238;stroke-linecap:round;stroke-miterlimit:10"></line><line x1="552.87" y1="208.33" x2="552.87" y2="295.92" style="fill:none;stroke:#263238;stroke-linecap:round;stroke-miterlimit:10"></line><line x1="449.08" y1="72.83" x2="583.44" y2="72.83" style="fill:none;stroke:#263238;stroke-linecap:round;stroke-miterlimit:10"></line><line x1="449.08" y1="105.39" x2="583.44" y2="105.39" style="fill:none;stroke:#263238;stroke-linecap:round;stroke-miterlimit:10"></line><line x1="449.08" y1="137.95" x2="583.44" y2="137.95" style="fill:none;stroke:#263238;stroke-linecap:round;stroke-miterlimit:10"></line><line x1="449.08" y1="170.51" x2="583.44" y2="170.51" style="fill:none;stroke:#263238;stroke-linecap:round;stroke-miterlimit:10"></line><line x1="449.08" y1="241.18" x2="583.44" y2="241.18" style="fill:none;stroke:#263238;stroke-linecap:round;stroke-miterlimit:10"></line><line x1="449.08" y1="269.85" x2="583.44" y2="269.85" style="fill:none;stroke:#263238;stroke-linecap:round;stroke-miterlimit:10"></line><rect x="159.22" y="34" width="148.4" height="271.03" style="fill:none;stroke:#263238;stroke-linecap:round;stroke-miterlimit:10"></rect><rect x="166.31" y="43.3" width="134.21" height="154.7" style="fill:none;stroke:#263238;stroke-linecap:round;stroke-miterlimit:10"></rect><rect x="166.31" y="209.03" width="134.21" height="86.7" style="fill:none;stroke:#263238;stroke-linecap:round;stroke-miterlimit:10"></rect><line x1="197.53" y1="43.35" x2="197.53" y2="197.25" style="fill:none;stroke:#263238;stroke-linecap:round;stroke-miterlimit:10"></line><line x1="233.69" y1="43.35" x2="233.69" y2="197.25" style="fill:none;stroke:#263238;stroke-linecap:round;stroke-miterlimit:10"></line><line x1="269.85" y1="43.35" x2="269.85" y2="197.25" style="fill:none;stroke:#263238;stroke-linecap:round;stroke-miterlimit:10"></line><line x1="197.53" y1="208.33" x2="197.53" y2="295.92" style="fill:none;stroke:#263238;stroke-linecap:round;stroke-miterlimit:10"></line><line x1="233.69" y1="208.33" x2="233.69" y2="295.92" style="fill:none;stroke:#263238;stroke-linecap:round;stroke-miterlimit:10"></line><line x1="269.85" y1="208.33" x2="269.85" y2="295.92" style="fill:none;stroke:#263238;stroke-linecap:round;stroke-miterlimit:10"></line><line x1="166.06" y1="72.83" x2="300.42" y2="72.83" style="fill:none;stroke:#263238;stroke-linecap:round;stroke-miterlimit:10"></line><line x1="166.06" y1="105.39" x2="300.42" y2="105.39" style="fill:none;stroke:#263238;stroke-linecap:round;stroke-miterlimit:10"></line><line x1="166.06" y1="137.95" x2="300.42" y2="137.95" style="fill:none;stroke:#263238;stroke-linecap:round;stroke-miterlimit:10"></line><line x1="166.06" y1="170.51" x2="300.42" y2="170.51" style="fill:none;stroke:#263238;stroke-linecap:round;stroke-miterlimit:10"></line><line x1="166.06" y1="241.18" x2="300.42" y2="241.18" style="fill:none;stroke:#263238;stroke-linecap:round;stroke-miterlimit:10"></line><line x1="166.06" y1="269.85" x2="300.42" y2="269.85" style="fill:none;stroke:#263238;stroke-linecap:round;stroke-miterlimit:10"></line></g><g id="freepik--plant-2--inject-54"><ellipse cx="681.95" cy="193.78" rx="10.15" ry="26.61" style="fill:#326DD9;stroke:#263238;stroke-miterlimit:10"></ellipse><path d="M650.43,177.37c3.17,10,9.26,17,13.61,15.58s5.29-10.59,2.12-20.58-9.27-17-13.61-15.57S647.25,167.39,650.43,177.37Z" style="fill:#326DD9;stroke:#263238;stroke-miterlimit:10"></path><path d="M724.87,237.57c10.33-1.75,18.08-6.82,17.32-11.31s-9.75-6.72-20.08-5S704,228.1,704.79,232.6,714.54,239.32,724.87,237.57Z" style="fill:#326DD9;stroke:#263238;stroke-miterlimit:10"></path><path d="M640.87,213c8.63,8.56,18.82,12.27,22.77,8.29s.15-14.14-8.48-22.69-18.81-12.27-22.76-8.29S632.25,204.41,640.87,213Z" style="fill:#326DD9;stroke:#263238;stroke-miterlimit:10"></path><path d="M700.31,189.5c-8.34,12.1-10.83,24.86-5.55,28.49s16.31-3.22,24.65-15.33,10.83-24.85,5.55-28.49S708.65,177.4,700.31,189.5Z" style="fill:#326DD9;stroke:#263238;stroke-miterlimit:10"></path><line x1="681.24" y1="219.07" x2="680.45" y2="300.02" style="fill:none;stroke:#263238;stroke-linecap:round;stroke-miterlimit:10"></line><line x1="682.18" y1="183.89" x2="681.24" y2="219.07" style="fill:none;stroke:#263238;stroke-linecap:round;stroke-miterlimit:10"></line><line x1="682.12" y1="178.15" x2="682.18" y2="180.84" style="fill:none;stroke:#263238;stroke-linecap:round;stroke-miterlimit:10"></line><path d="M694.8,216.27a102.06,102.06,0,0,0-10,38.39v50.07" style="fill:none;stroke:#263238;stroke-linecap:round;stroke-miterlimit:10"></path><path d="M712.23,189.6a120.16,120.16,0,0,0-17.43,26.67" style="fill:none;stroke:#263238;stroke-linecap:round;stroke-miterlimit:10"></path><path d="M717.71,183.8s-1.05,1-2.78,2.8" style="fill:none;stroke:#263238;stroke-linecap:round;stroke-miterlimit:10"></path><path d="M663,220a120,120,0,0,1,16.44,32.64" style="fill:none;stroke:#263238;stroke-linecap:round;stroke-miterlimit:10"></path><path d="M651.33,206.61A95.55,95.55,0,0,1,663,220" style="fill:none;stroke:#263238;stroke-linecap:round;stroke-miterlimit:10"></path><path d="M638.87,197.11a52.8,52.8,0,0,1,8.89,6.3" style="fill:none;stroke:#263238;stroke-linecap:round;stroke-miterlimit:10"></path><path d="M663.43,190.47c5.62,17.69,13.17,43.83,16.69,66.52" style="fill:none;stroke:#263238;stroke-linecap:round;stroke-miterlimit:10"></path><path d="M660,180c1,3,2.16,6.53,3.42,10.49" style="fill:none;stroke:#263238;stroke-linecap:round;stroke-miterlimit:10"></path><path d="M656.5,169.83s1,2.71,2.56,7.35" style="fill:none;stroke:#263238;stroke-linecap:round;stroke-miterlimit:10"></path><path d="M705.31,230.14c-7,2.67-16.62,10.09-19.95,19.82" style="fill:none;stroke:#263238;stroke-linecap:round;stroke-miterlimit:10"></path><path d="M718.29,227.51a44.28,44.28,0,0,0-13,2.63" style="fill:none;stroke:#263238;stroke-linecap:round;stroke-miterlimit:10"></path><path d="M726.69,227.71s-1.25-.17-3.31-.26" style="fill:none;stroke:#263238;stroke-linecap:round;stroke-miterlimit:10"></path><path d="M704.61,276.48c9.49,4.43,18.75,4.67,20.68.54s-4.2-11.07-13.69-15.5-18.75-4.67-20.68-.54S695.12,272.05,704.61,276.48Z" style="fill:#326DD9;stroke:#263238;stroke-miterlimit:10"></path><path d="M704.91,264.46a44,44,0,0,0-12.17-5.2,6.08,6.08,0,0,0-6.53.12c-1.28.85-.85,7.27-.85,7.27V300" style="fill:none;stroke:#263238;stroke-linecap:round;stroke-miterlimit:10"></path><path d="M711.71,269.41s-.93-.86-2.58-2.1" style="fill:none;stroke:#263238;stroke-linecap:round;stroke-miterlimit:10"></path><path d="M636.49,237.57c-10.32-1.75-18.08-6.82-17.32-11.31s9.75-6.72,20.08-5,18.08,6.81,17.32,11.31S646.82,239.32,636.49,237.57Z" style="fill:#326DD9;stroke:#263238;stroke-miterlimit:10"></path><path d="M655.83,230.06a34,34,0,0,1,3.68,1.62,25.74,25.74,0,0,1,13.75,22.95v44.11" style="fill:none;stroke:#263238;stroke-linecap:round;stroke-miterlimit:10"></path><path d="M642,227.45a45.39,45.39,0,0,1,13.84,2.61" style="fill:none;stroke:#263238;stroke-linecap:round;stroke-miterlimit:10"></path><path d="M634.67,227.71s.83-.11,2.24-.2" style="fill:none;stroke:#263238;stroke-linecap:round;stroke-miterlimit:10"></path><path d="M646.86,267.78c-9.07,5.24-18.28,6.27-20.55,2.32s3.23-11.39,12.31-16.62,18.28-6.27,20.55-2.32S655.94,262.55,646.86,267.78Z" style="fill:#326DD9;stroke:#263238;stroke-miterlimit:10"></path><path d="M644.66,256.49A45.15,45.15,0,0,1,657,249.68s11.26-1.85,13.83,5.42" style="fill:none;stroke:#263238;stroke-linecap:round;stroke-miterlimit:10"></path><path d="M639.18,261.35s.56-.61,1.6-1.58" style="fill:none;stroke:#263238;stroke-linecap:round;stroke-miterlimit:10"></path><path d="M669.1,255.53s13.26-2.57,13.26,6.41S673,278.2,669.1,288.47s-11.13,10.7-15,.43S655.83,259.81,669.1,255.53Z" style="fill:#326DD9;stroke:#263238;stroke-miterlimit:10"></path><path d="M678.08,256s-11.55,4.71-15,19.69" style="fill:#326DD9;stroke:#263238;stroke-miterlimit:10"></path><line x1="677.23" y1="275.64" x2="677.23" y2="300.02" style="fill:none;stroke:#263238;stroke-linecap:round;stroke-miterlimit:10"></line><path d="M656,347.52a104.19,104.19,0,0,1-4.8-31.22,93.58,93.58,0,0,1,1.92-19.09h54a93.58,93.58,0,0,1,1.92,19.09,104.19,104.19,0,0,1-4.8,31.22Z" style="fill:#263238"></path><path d="M708.53,306.14c.15,1.46.27,2.95.36,4.46H651.35c.09-1.51.21-3,.36-4.46Z" style="fill:#7a7a7a"></path><path d="M652,328.94c-.18-1.48-.33-3-.45-4.46h57.22c-.12,1.5-.27,3-.45,4.46Z" style="fill:#7a7a7a"></path><path d="M702.08,316.55a2.33,2.33,0,1,0,2.32-2.25A2.29,2.29,0,0,0,702.08,316.55Z" style="fill:#8c8c8c"></path><path d="M690.43,316.55a2.33,2.33,0,1,0,2.33-2.25A2.3,2.3,0,0,0,690.43,316.55Z" style="fill:#8c8c8c"></path><path d="M678.79,316.55a2.33,2.33,0,1,0,2.33-2.25A2.29,2.29,0,0,0,678.79,316.55Z" style="fill:#8c8c8c"></path><path d="M667.15,316.55a2.33,2.33,0,1,0,2.33-2.25A2.29,2.29,0,0,0,667.15,316.55Z" style="fill:#8c8c8c"></path><path d="M655.5,316.55a2.33,2.33,0,1,0,2.33-2.25A2.3,2.3,0,0,0,655.5,316.55Z" style="fill:#8c8c8c"></path></g><g id="freepik--plant-1--inject-54"><path d="M83,193.78c0,14.7-4.54,26.62-10.15,26.62s-10.14-11.92-10.14-26.62,4.54-26.61,10.14-26.61S83,179.09,83,193.78Z" style="fill:#326DD9;stroke:#263238;stroke-miterlimit:10"></path><path d="M104.34,177.37c-3.18,10-9.27,17-13.61,15.58s-5.3-10.59-2.13-20.58,9.27-17,13.61-15.57S107.51,167.39,104.34,177.37Z" style="fill:#326DD9;stroke:#263238;stroke-miterlimit:10"></path><path d="M29.89,237.57c-10.33-1.75-18.08-6.82-17.32-11.31s9.75-6.72,20.08-5S50.73,228.1,50,232.6,40.22,239.32,29.89,237.57Z" style="fill:#326DD9;stroke:#263238;stroke-miterlimit:10"></path><path d="M113.89,213c-8.63,8.56-18.82,12.27-22.76,8.29S91,207.11,99.6,198.56s18.82-12.27,22.76-8.29S122.51,204.41,113.89,213Z" style="fill:#326DD9;stroke:#263238;stroke-miterlimit:10"></path><path d="M54.45,189.5C62.79,201.6,65.28,214.36,60,218s-16.31-3.22-24.65-15.33-10.83-24.85-5.55-28.49S46.11,177.4,54.45,189.5Z" style="fill:#326DD9;stroke:#263238;stroke-miterlimit:10"></path><line x1="73.52" y1="219.07" x2="74.31" y2="300.02" style="fill:none;stroke:#263238;stroke-linecap:round;stroke-miterlimit:10"></line><line x1="72.58" y1="183.89" x2="73.52" y2="219.07" style="fill:none;stroke:#263238;stroke-linecap:round;stroke-miterlimit:10"></line><line x1="72.65" y1="178.15" x2="72.58" y2="180.84" style="fill:none;stroke:#263238;stroke-linecap:round;stroke-miterlimit:10"></line><path d="M60,216.27a102.06,102.06,0,0,1,10,38.39v50.07" style="fill:none;stroke:#263238;stroke-linecap:round;stroke-miterlimit:10"></path><path d="M42.54,189.6A120.18,120.18,0,0,1,60,216.27" style="fill:none;stroke:#263238;stroke-linecap:round;stroke-miterlimit:10"></path><path d="M37.05,183.8s1.05,1,2.78,2.8" style="fill:none;stroke:#263238;stroke-linecap:round;stroke-miterlimit:10"></path><path d="M91.76,220a120,120,0,0,0-16.45,32.64" style="fill:none;stroke:#263238;stroke-linecap:round;stroke-miterlimit:10"></path><path d="M103.43,206.61A96.21,96.21,0,0,0,91.76,220" style="fill:none;stroke:#263238;stroke-linecap:round;stroke-miterlimit:10"></path><path d="M115.89,197.11a52.8,52.8,0,0,0-8.89,6.3" style="fill:none;stroke:#263238;stroke-linecap:round;stroke-miterlimit:10"></path><path d="M91.33,190.47C85.71,208.16,78.16,234.3,74.64,257" style="fill:none;stroke:#263238;stroke-linecap:round;stroke-miterlimit:10"></path><path d="M94.75,180c-1,3-2.16,6.53-3.42,10.49" style="fill:none;stroke:#263238;stroke-linecap:round;stroke-miterlimit:10"></path><path d="M98.26,169.83s-1,2.71-2.56,7.35" style="fill:none;stroke:#263238;stroke-linecap:round;stroke-miterlimit:10"></path><path d="M49.45,230.14c7,2.67,16.62,10.09,20,19.82" style="fill:none;stroke:#263238;stroke-linecap:round;stroke-miterlimit:10"></path><path d="M36.48,227.51a44.15,44.15,0,0,1,13,2.63" style="fill:none;stroke:#263238;stroke-linecap:round;stroke-miterlimit:10"></path><path d="M28.07,227.71s1.25-.17,3.31-.26" style="fill:none;stroke:#263238;stroke-linecap:round;stroke-miterlimit:10"></path><path d="M50.15,276.48c-9.49,4.43-18.75,4.67-20.68.54s4.2-11.07,13.69-15.5,18.75-4.67,20.68-.54S59.64,272.05,50.15,276.48Z" style="fill:#326DD9;stroke:#263238;stroke-miterlimit:10"></path><path d="M49.85,264.46A44,44,0,0,1,62,259.26a6.08,6.08,0,0,1,6.53.12c1.28.85.86,7.27.86,7.27V300" style="fill:none;stroke:#263238;stroke-linecap:round;stroke-miterlimit:10"></path><path d="M43.05,269.41s.93-.86,2.58-2.1" style="fill:none;stroke:#263238;stroke-linecap:round;stroke-miterlimit:10"></path><path d="M118.27,237.57c10.33-1.75,18.08-6.82,17.32-11.31s-9.75-6.72-20.08-5S97.43,228.1,98.19,232.6,107.94,239.32,118.27,237.57Z" style="fill:#326DD9;stroke:#263238;stroke-miterlimit:10"></path><path d="M98.93,230.06a34.91,34.91,0,0,0-3.68,1.62A25.74,25.74,0,0,0,81.5,254.63v44.11" style="fill:none;stroke:#263238;stroke-linecap:round;stroke-miterlimit:10"></path><path d="M112.77,227.45a45.39,45.39,0,0,0-13.84,2.61" style="fill:none;stroke:#263238;stroke-linecap:round;stroke-miterlimit:10"></path><path d="M120.09,227.71s-.83-.11-2.24-.2" style="fill:none;stroke:#263238;stroke-linecap:round;stroke-miterlimit:10"></path><path d="M107.9,267.78c9.08,5.24,18.28,6.27,20.55,2.32s-3.23-11.39-12.31-16.62-18.27-6.27-20.55-2.32S98.83,262.55,107.9,267.78Z" style="fill:#326DD9;stroke:#263238;stroke-miterlimit:10"></path><path d="M110.1,256.49a45.15,45.15,0,0,0-12.32-6.81S86.52,247.83,84,255.1" style="fill:none;stroke:#263238;stroke-linecap:round;stroke-miterlimit:10"></path><path d="M115.58,261.35s-.56-.61-1.59-1.58" style="fill:none;stroke:#263238;stroke-linecap:round;stroke-miterlimit:10"></path><path d="M85.66,255.53S72.4,253,72.4,261.94s9.41,16.26,13.26,26.53,11.13,10.7,15,.43S98.93,259.81,85.66,255.53Z" style="fill:#326DD9;stroke:#263238;stroke-miterlimit:10"></path><path d="M76.68,256s11.55,4.71,15,19.69" style="fill:#326DD9;stroke:#263238;stroke-miterlimit:10"></path><line x1="77.54" y1="275.64" x2="77.54" y2="300.02" style="fill:none;stroke:#263238;stroke-linecap:round;stroke-miterlimit:10"></line><path d="M98.78,347.52a104.19,104.19,0,0,0,4.8-31.22,93.58,93.58,0,0,0-1.92-19.09h-54A94.29,94.29,0,0,0,45.7,316.3a104.19,104.19,0,0,0,4.8,31.22Z" style="fill:#263238"></path><path d="M46.23,306.14c-.15,1.46-.27,2.95-.36,4.46h57.54c-.09-1.51-.21-3-.36-4.46Z" style="fill:#7a7a7a"></path><path d="M102.8,328.94c.18-1.48.34-3,.46-4.46H46c.12,1.5.27,3,.46,4.46Z" style="fill:#7a7a7a"></path><path d="M52.69,316.55a2.33,2.33,0,1,1-2.33-2.25A2.3,2.3,0,0,1,52.69,316.55Z" style="fill:#8c8c8c"></path><path d="M64.33,316.55A2.33,2.33,0,1,1,62,314.3,2.29,2.29,0,0,1,64.33,316.55Z" style="fill:#8c8c8c"></path><path d="M76,316.55a2.33,2.33,0,1,1-2.33-2.25A2.29,2.29,0,0,1,76,316.55Z" style="fill:#8c8c8c"></path><path d="M87.62,316.55a2.33,2.33,0,1,1-2.33-2.25A2.3,2.3,0,0,1,87.62,316.55Z" style="fill:#8c8c8c"></path><path d="M99.26,316.55a2.33,2.33,0,1,1-2.33-2.25A2.29,2.29,0,0,1,99.26,316.55Z" style="fill:#8c8c8c"></path></g><g id="freepik--character-3--inject-54"><path d="M485.56,355.28q7.13,17.21,14.22,34.49l177.75.06c-13.13-11.15-24.54-23.16-36.79-34.55Z" style="fill:#326DD9;stroke:#263238;stroke-linecap:round;stroke-miterlimit:10"></path><path d="M553.41,253.27s-12.35.68-16.73,3.14-5.21,17-5.21,17l-17,33.48s-31.83,7.76-35.68,8.34-6.49-.47-9.93.48-3.61,1.48-6.18,4.33S459,325.6,460,326.13s3.41-1.62,4.14-2.43a25.22,25.22,0,0,1,2.8-2.27s-1.85,5.95-2.68,8.78c-1.71,5.93-2.92-4.69-4.42-3.53-1.95,1.5-.59,10.21,4.4,9.18s7.45-.91,9.45-3.53,6.33-9.05,6.33-9.05,17.81-1.23,28-2.33,19.21-5.82,22.6-9.09c3-2.91,13.17-24.52,13.17-24.52l9.31-24.63S555.63,257.53,553.41,253.27Z" style="fill:#fff;stroke:#263238;stroke-linecap:round;stroke-miterlimit:10"></path><path d="M464.87,333.29a16.79,16.79,0,0,1-1.73,1.3,9.24,9.24,0,0,1-2.9.8c-2.55.36-3.46,1.43-2.85,2.11s1.73.55,4.08.55a8.94,8.94,0,0,0,4.89-1.67,10.42,10.42,0,0,0,2-1.79" style="fill:#fff;stroke:#263238;stroke-linecap:round;stroke-miterlimit:10"></path><path d="M467.43,333.47a16.39,16.39,0,0,1-1.55,1.51,6.06,6.06,0,0,1-2.77,1.17c-1.29.17-3.25,1.86-2.55,2.45s1.78.33,4.11,0a8.87,8.87,0,0,0,4.63-2.29,10.22,10.22,0,0,0,1.73-2" style="fill:#fff;stroke:#263238;stroke-linecap:round;stroke-miterlimit:10"></path><path d="M475,319.14s-2.14.48-3.62,3.85-.48,9.82-1.43,10.24a4.24,4.24,0,0,1-3-.14c-1.14-.32-3-.57-2.54.79.93,3,6.07,1.83,6.07,1.83s.78-.11,2.71-2.85,6.24-9,6.24-9" style="fill:#fff"></path><path d="M475,319.14s-2.14.48-3.62,3.85-.48,9.82-1.43,10.24a4.24,4.24,0,0,1-3-.14c-1.14-.32-3-.57-2.54.79.93,3,6.07,1.83,6.07,1.83s.78-.11,2.71-2.85,6.24-9,6.24-9" style="fill:none;stroke:#263238;stroke-linecap:round;stroke-miterlimit:10"></path><line x1="542.74" y1="286.04" x2="539.14" y2="274.4" style="fill:none;stroke:#263238;stroke-linecap:round;stroke-miterlimit:10"></line><path d="M586.37,253.27s12.35.68,16.73,3.14,5.21,17,5.21,17l17,33.48s31.83,7.76,35.68,8.34,6.49-.47,9.93.48,3.61,1.48,6.18,4.33,3.72,5.59,2.72,6.12-3.41-1.62-4.14-2.43a25.22,25.22,0,0,0-2.8-2.27s1.85,5.95,2.67,8.78c1.72,5.93,2.93-4.69,4.43-3.53,1.95,1.5.58,10.21-4.4,9.18s-7.45-.91-9.45-3.53-6.33-9.05-6.33-9.05-17.81-1.23-28-2.33-19.22-5.82-22.6-9.09c-3-2.91-13.17-24.52-13.17-24.52l-9.31-24.63S584.14,257.53,586.37,253.27Z" style="fill:#fff;stroke:#263238;stroke-linecap:round;stroke-miterlimit:10"></path><path d="M674.91,333.29a16.79,16.79,0,0,0,1.73,1.3,9.24,9.24,0,0,0,2.9.8c2.55.36,3.46,1.43,2.85,2.11s-1.74.55-4.08.55a8.94,8.94,0,0,1-4.89-1.67,10.08,10.08,0,0,1-2-1.79" style="fill:#fff;stroke:#263238;stroke-linecap:round;stroke-miterlimit:10"></path><path d="M672.35,333.47A16.39,16.39,0,0,0,673.9,335a6.06,6.06,0,0,0,2.77,1.17c1.29.17,3.25,1.86,2.55,2.45s-1.78.33-4.11,0a8.87,8.87,0,0,1-4.63-2.29,10.22,10.22,0,0,1-1.73-2" style="fill:#fff;stroke:#263238;stroke-linecap:round;stroke-miterlimit:10"></path><path d="M664.79,319.14s2.14.48,3.62,3.85.47,9.82,1.43,10.24a4.24,4.24,0,0,0,3-.14c1.13-.32,3-.57,2.54.79-.93,3-6.07,1.83-6.07,1.83s-.78-.11-2.71-2.85-6.24-9-6.24-9" style="fill:#fff"></path><path d="M664.79,319.14s2.14.48,3.62,3.85.47,9.82,1.43,10.24a4.24,4.24,0,0,0,3-.14c1.13-.32,3-.57,2.54.79-.93,3-6.07,1.83-6.07,1.83s-.78-.11-2.71-2.85-6.24-9-6.24-9" style="fill:none;stroke:#263238;stroke-linecap:round;stroke-miterlimit:10"></path><line x1="597.04" y1="286.04" x2="600.63" y2="274.4" style="fill:none;stroke:#263238;stroke-linecap:round;stroke-miterlimit:10"></line><path d="M564.64,236.61s-.56,6.37-3.18,10.67-8.05,6-8.05,6L542.74,286l5.62,22.09s-9.93,15.17-13.86,24.34.79,19.56,4.91,23.86S549,366.46,563,365.92c19.43-.77,33.24,1,39.42-6.3s6.84-21.08-.55-31.48c-4.49-6.33-10.6-20-10.6-20l6.08-22.78L588,253.22s-5.59-.32-9-4.44-2.62-11.61-2.62-11.61Z" style="fill:#fff;stroke:#263238;stroke-linecap:round;stroke-miterlimit:10"></path><path d="M570.9,245.3a15.26,15.26,0,0,0,6-1.23,24,24,0,0,1-.47-6.9l-11.8-.56a34.39,34.39,0,0,1-1.39,6.64A15.24,15.24,0,0,0,570.9,245.3Z" style="fill:#263238"></path><path d="M597.31,285.35,588,253.22a15,15,0,0,1-2.76-.46c1.08,7.46-.21,11.19-.21,11.19a10.32,10.32,0,0,1-5.24,7.86c-5.06,3-14.61,3.56-20.6-1.31-4.51-3.67-3.71-13.73-3-18.45a17.38,17.38,0,0,1-2.76,1.22L542.74,286l5.62,22.09h42.87Z" style="fill:#326DD9;stroke:#263238;stroke-linecap:round;stroke-miterlimit:10"></path><path d="M556.12,218.94s-2.61-4-3.8-.47,1.19,8.07,2.85,9.26S556.12,218.94,556.12,218.94Z" style="fill:#fff;stroke:#263238;stroke-linecap:round;stroke-miterlimit:10"></path><path d="M585.08,218.94s2.62-4,3.8-.47-1.18,8.07-2.85,9.26S585.08,218.94,585.08,218.94Z" style="fill:#fff;stroke:#263238;stroke-linecap:round;stroke-miterlimit:10"></path><path d="M570.9,241.08h0A15.06,15.06,0,0,1,555.84,226V202.89a5.61,5.61,0,0,1,5.61-5.61h18.89a5.61,5.61,0,0,1,5.61,5.61V226A15.05,15.05,0,0,1,570.9,241.08Z" style="fill:#fff;stroke:#263238;stroke-linecap:round;stroke-miterlimit:10"></path><path d="M575,195.46s-11.69,13.07-19.59,17.46v4.83a25.57,25.57,0,0,1-6.31-13.51c-.88-7.91,17.12-22.39,26.34-18.88S575,195.46,575,195.46Z" style="fill:#263238"></path><path d="M572.5,195s5.94,11.87,13.06,17.81v4.51s7.36-11.16,7.6-15.43S577,190.45,572.5,189.5,572.5,195,572.5,195Z" style="fill:#263238"></path><path d="M555.17,227.73s3.56,9.73-.95,13.29-7.83,2.85-10.45,12.82,9.5,11.87,9.5,18.28-7.12,7.84-7.12,7.84,0,5.94,9.26,5.46,16.14-8.55,14.72-19-8.55-12.59-8.07-16.62a100.65,100.65,0,0,1,2.13-10.45S556.12,234.61,555.17,227.73Z" style="fill:#263238"></path><path d="M585.76,219.47s-11.3-1.81-14.25-2.13-15.4,2.45-15.4,2.45l-.27.9V226A15.06,15.06,0,1,0,586,226V219.7Z" style="fill:#326DD9;stroke:#263238;stroke-linecap:round;stroke-miterlimit:10"></path><path d="M559.72,215.77a6.29,6.29,0,0,0,7,0" style="fill:none;stroke:#263238;stroke-linecap:round;stroke-miterlimit:10"></path><path d="M575.3,215.77a6.31,6.31,0,0,0,7,0" style="fill:none;stroke:#263238;stroke-linecap:round;stroke-miterlimit:10"></path><path d="M559.05,211.3s1.83-3.15,7.46-2.66" style="fill:none;stroke:#263238;stroke-linecap:round;stroke-miterlimit:10;stroke-width:2px"></path><path d="M574.14,208.64a7,7,0,0,1,8.62,2.66" style="fill:none;stroke:#263238;stroke-linecap:round;stroke-miterlimit:10;stroke-width:2px"></path><path d="M534.5,332.47c-3.93,9.17.79,19.56,4.91,23.86S549,366.46,563,365.92c19.43-.77,33.24,1,39.42-6.3s6.84-21.08-.55-31.48a75.47,75.47,0,0,1-4.57-7.67H540.77A122.42,122.42,0,0,0,534.5,332.47Z" style="fill:#263238;stroke:#263238;stroke-linecap:round;stroke-miterlimit:10"></path><path d="M565.15,351c-9.86-10.22-27.74-15.33-36.5-16.79S503.82,324,503.82,324s-9.49-.32-8.76,11,28.11,24.46,38.7,30.3a34.19,34.19,0,0,0,31.39,1.09" style="fill:#263238;stroke:#263238;stroke-linecap:round;stroke-miterlimit:10"></path><path d="M571.31,351.41c9.86-10.22,27.74-15.33,36.51-16.79s22.39-8.93,22.39-8.93,11.92-1.66,11.19,9.66-28.11,24.45-38.7,30.29a34.19,34.19,0,0,1-31.39,1.1" style="fill:#263238;stroke:#263238;stroke-linecap:round;stroke-miterlimit:10"></path><path d="M612,360.63s1-1.28-.33-3.21-4.21.89-6.57,1.66-11.63,2.83-16.06,3.79c-3.78.82-9.65.86-11.39,1.15a14.09,14.09,0,0,1-.47,8.13c-.86.05,1.75-.07.87,0,7.7-.34,12.11-.42,14.49-.67,4.35-.47,10,1.5,14.39-.17s7.53-6,6.91-7.93A5.3,5.3,0,0,0,612,360.63Z" style="fill:#fff;stroke:#263238;stroke-linecap:round;stroke-miterlimit:10"></path><path d="M577.34,364.06l.24,0Z" style="fill:#fff;stroke:#263238;stroke-linecap:round;stroke-miterlimit:10"></path><path d="M577.13,364.1l.11,0Z" style="fill:#fff;stroke:#263238;stroke-linecap:round;stroke-miterlimit:10"></path><path d="M612,360.63a11.92,11.92,0,0,1-3.77,1.25" style="fill:none;stroke:#263238;stroke-linecap:round;stroke-miterlimit:10"></path><path d="M613.79,363.35a34,34,0,0,1-5,1.65" style="fill:none;stroke:#263238;stroke-linecap:round;stroke-miterlimit:10"></path><path d="M608.58,367.16a6.09,6.09,0,0,0,4-.62" style="fill:none;stroke:#263238;stroke-linecap:round;stroke-miterlimit:10"></path><path d="M607.36,369.1a6.54,6.54,0,0,0,3.75-.6" style="fill:none;stroke:#263238;stroke-linecap:round;stroke-miterlimit:10"></path><path d="M577.13,372.15a14.09,14.09,0,0,0,.47-8.13l-.47.08s-17-3.61-31.39-12.4S513.06,329.39,503.82,324s-18,2.71-17.12,11.27,7.89,13.07,20.5,18.25,35.61,13.3,47.77,15.77C561.25,370.55,570.11,372.5,577.13,372.15Z" style="fill:#263238;stroke:#263238;stroke-linecap:round;stroke-miterlimit:10"></path><path d="M551.88,371.66a13.7,13.7,0,0,1-.61-8.14l.49.08s17.52-3.68,32.48-12.46,38.7-22,48.29-27.43A11.72,11.72,0,0,1,650.3,335c-.94,8.57-8.19,13.07-21.28,18.25s-41.74,13-54.37,15.49C568.14,370,559.15,372,551.88,371.66Z" style="fill:#263238;stroke:#263238;stroke-linecap:round;stroke-miterlimit:10"></path><path d="M551.27,363.52s-16.81-2.1-22.11-3.57-8.87-4.82-10.61-3.88-.3,3.3-.3,3.3-1.18,2.92,0,4.84,2.89,3.76,8.83,6.86S540,373,543.69,372.82a57.6,57.6,0,0,0,8.19-1.16S550.45,368.83,551.27,363.52Z" style="fill:#fff;stroke:#263238;stroke-linecap:round;stroke-miterlimit:10"></path><path d="M518.25,359.37a2.42,2.42,0,0,1,2.6.54,7.42,7.42,0,0,0,2.74,1.68" style="fill:none;stroke:#263238;stroke-linecap:round;stroke-miterlimit:10"></path><path d="M517.75,362.88a2.53,2.53,0,0,1,2.33-.07,11,11,0,0,0,2.64.94" style="fill:none;stroke:#263238;stroke-linecap:round;stroke-miterlimit:10"></path><path d="M520,366.31s.52-.84,1.13-.72,3.1,1,3.78,1.07" style="fill:none;stroke:#263238;stroke-linecap:round;stroke-miterlimit:10"></path><path d="M523.23,368.82a2.39,2.39,0,0,1,1.4-.6,19,19,0,0,1,2.15.28" style="fill:none;stroke:#263238;stroke-linecap:round;stroke-miterlimit:10"></path></g><g id="freepik--character-1--inject-54"><path d="M108.83,355.28c-12.25,11.39-23.65,23.4-36.78,34.55l177.75-.06q7.09-17.31,14.21-34.49Z" style="fill:#326DD9;stroke:#263238;stroke-linecap:round;stroke-miterlimit:10"></path><path d="M165.28,253.27s-12.36.68-16.74,3.14-5.2,17-5.2,17l-17,33.48s-31.82,7.76-35.67,8.34-6.49-.47-9.93.48-3.61,1.48-6.18,4.33-3.72,5.59-2.72,6.12,3.41-1.62,4.14-2.43a25.4,25.4,0,0,1,2.79-2.27s-1.85,5.95-2.67,8.78c-1.72,5.93-2.92-4.69-4.42-3.53-2,1.5-.59,10.21,4.4,9.18s7.45-.91,9.45-3.53,6.32-9.05,6.32-9.05,17.82-1.23,28-2.33,19.22-5.82,22.61-9.09c3-2.91,13.17-24.52,13.17-24.52L165,262.71S167.5,257.53,165.28,253.27Z" style="fill:#fff;stroke:#263238;stroke-linecap:round;stroke-miterlimit:10"></path><path d="M76.74,333.29a16.79,16.79,0,0,1-1.73,1.3,9.33,9.33,0,0,1-2.9.8c-2.55.36-3.47,1.43-2.85,2.11s1.73.55,4.08.55a8.94,8.94,0,0,0,4.89-1.67,10.23,10.23,0,0,0,2-1.79" style="fill:#fff;stroke:#263238;stroke-linecap:round;stroke-miterlimit:10"></path><path d="M79.3,333.47A17.78,17.78,0,0,1,77.75,335,6.06,6.06,0,0,1,75,336.15c-1.28.17-3.25,1.86-2.55,2.45s1.79.33,4.12,0a8.87,8.87,0,0,0,4.63-2.29,10.22,10.22,0,0,0,1.73-2" style="fill:#fff;stroke:#263238;stroke-linecap:round;stroke-miterlimit:10"></path><path d="M86.86,319.14s-2.15.48-3.62,3.85-.48,9.82-1.43,10.24a4.24,4.24,0,0,1-3-.14c-1.14-.32-3-.57-2.54.79.93,3,6.07,1.83,6.07,1.83s.78-.11,2.71-2.85,6.24-9,6.24-9" style="fill:#fff"></path><path d="M86.86,319.14s-2.15.48-3.62,3.85-.48,9.82-1.43,10.24a4.24,4.24,0,0,1-3-.14c-1.14-.32-3-.57-2.54.79.93,3,6.07,1.83,6.07,1.83s.78-.11,2.71-2.85,6.24-9,6.24-9" style="fill:none;stroke:#263238;stroke-linecap:round;stroke-miterlimit:10"></path><line x1="154.61" y1="286.04" x2="151.01" y2="274.4" style="fill:none;stroke:#263238;stroke-linecap:round;stroke-miterlimit:10"></line><path d="M198.24,253.27s12.35.68,16.73,3.14,5.2,17,5.2,17l17,33.48s31.83,7.76,35.68,8.34,6.49-.47,9.93.48,3.61,1.48,6.18,4.33,3.71,5.59,2.72,6.12-3.41-1.62-4.15-2.43a24.47,24.47,0,0,0-2.79-2.27s1.85,5.95,2.67,8.78c1.72,5.93,2.92-4.69,4.43-3.53,2,1.5.58,10.21-4.4,9.18S280,335,278,332.33s-6.33-9.05-6.33-9.05-17.81-1.23-28-2.33-19.22-5.82-22.6-9.09c-3-2.91-13.18-24.52-13.18-24.52l-9.3-24.63S196,257.53,198.24,253.27Z" style="fill:#fff;stroke:#263238;stroke-linecap:round;stroke-miterlimit:10"></path><path d="M286.77,333.29a18,18,0,0,0,1.73,1.3,9.32,9.32,0,0,0,2.91.8c2.55.36,3.46,1.43,2.84,2.11s-1.73.55-4.08.55a8.9,8.9,0,0,1-4.88-1.67,10.08,10.08,0,0,1-2-1.79" style="fill:#fff;stroke:#263238;stroke-linecap:round;stroke-miterlimit:10"></path><path d="M284.22,333.47a17.24,17.24,0,0,0,1.54,1.51,6.16,6.16,0,0,0,2.78,1.17c1.29.17,3.25,1.86,2.55,2.45s-1.79.33-4.12,0a8.79,8.79,0,0,1-4.62-2.29,10.22,10.22,0,0,1-1.73-2" style="fill:#fff;stroke:#263238;stroke-linecap:round;stroke-miterlimit:10"></path><path d="M276.66,319.14s2.14.48,3.62,3.85.47,9.82,1.42,10.24a4.24,4.24,0,0,0,3-.14c1.14-.32,3-.57,2.55.79-.93,3-6.08,1.83-6.08,1.83s-.77-.11-2.7-2.85-6.24-9-6.24-9" style="fill:#fff"></path><path d="M276.66,319.14s2.14.48,3.62,3.85.47,9.82,1.42,10.24a4.24,4.24,0,0,0,3-.14c1.14-.32,3-.57,2.55.79-.93,3-6.08,1.83-6.08,1.83s-.77-.11-2.7-2.85-6.24-9-6.24-9" style="fill:none;stroke:#263238;stroke-linecap:round;stroke-miterlimit:10"></path><line x1="208.91" y1="286.04" x2="212.5" y2="274.4" style="fill:none;stroke:#263238;stroke-linecap:round;stroke-miterlimit:10"></line><path d="M176.51,236.61s-.56,6.37-3.18,10.67-8.05,6-8.05,6L154.61,286l5.61,22.09s-9.92,15.17-13.85,24.34.79,19.56,4.91,23.86,9.58,10.13,23.55,9.59c19.43-.77,33.24,1,39.42-6.3s6.84-21.08-.55-31.48c-4.49-6.33-10.6-20-10.6-20l6.08-22.78-9.29-32.13s-5.59-.32-9-4.44-2.62-11.61-2.62-11.61Z" style="fill:#fff;stroke:#263238;stroke-linecap:round;stroke-miterlimit:10"></path><path d="M182.77,245.3a15.26,15.26,0,0,0,6-1.23,24,24,0,0,1-.47-6.9l-11.8-.56a34,34,0,0,1-1.4,6.64A15.31,15.31,0,0,0,182.77,245.3Z" style="fill:#263238"></path><ellipse cx="185.77" cy="180.3" rx="10.05" ry="8.88" style="fill:#263238;stroke:#263238;stroke-linecap:round;stroke-miterlimit:10"></ellipse><path d="M167.37,218.14s-3.43-2.81-3.43,2.49a8.62,8.62,0,0,0,4.05,7.48Z" style="fill:#fff;stroke:#263238;stroke-linecap:round;stroke-miterlimit:10"></path><path d="M197.59,218.14s3.43-2.81,3.43,2.49a8.62,8.62,0,0,1-4.05,7.48Z" style="fill:#fff;stroke:#263238;stroke-linecap:round;stroke-miterlimit:10"></path><path d="M184.86,186.83s-14.36-1.05-19.06,4.44,1.91,29.42,1.91,29.42h30.72s3.66-15.07,3.66-22.37S199.74,187.09,184.86,186.83Z" style="fill:#263238;stroke:#263238;stroke-linecap:round;stroke-miterlimit:10"></path><path d="M182.77,241.08h0A15.06,15.06,0,0,1,167.71,226V202.89c0-3.1,3-3.79,8-6.4l3.65-2.09,12.84,2.88c3.87,1,5.61,2.51,5.61,5.61V226A15.05,15.05,0,0,1,182.77,241.08Z" style="fill:#fff;stroke:#263238;stroke-linecap:round;stroke-miterlimit:10"></path><path d="M197.63,219.47s-11.3-1.81-14.25-2.13-15.4,2.45-15.4,2.45l-.27.9V226a15.06,15.06,0,1,0,30.11,0V219.7Z" style="fill:#326DD9;stroke:#263238;stroke-linecap:round;stroke-miterlimit:10"></path><path d="M171.58,215.77a6.31,6.31,0,0,0,7,0" style="fill:none;stroke:#263238;stroke-linecap:round;stroke-miterlimit:10"></path><path d="M187.17,215.77a6.29,6.29,0,0,0,7,0" style="fill:none;stroke:#263238;stroke-linecap:round;stroke-miterlimit:10"></path><path d="M170.92,211.3s1.82-3.15,7.46-2.66" style="fill:none;stroke:#263238;stroke-linecap:round;stroke-miterlimit:10;stroke-width:2px"></path><path d="M186,208.64a7,7,0,0,1,8.62,2.66" style="fill:none;stroke:#263238;stroke-linecap:round;stroke-miterlimit:10;stroke-width:2px"></path><path d="M146.37,332.47c-3.93,9.17.79,19.56,4.91,23.86s9.58,10.13,23.55,9.59c19.43-.77,33.24,1,39.42-6.3s6.84-21.08-.55-31.48a75.47,75.47,0,0,1-4.57-7.67H152.64A120.28,120.28,0,0,0,146.37,332.47Z" style="fill:#787878;stroke:#263238;stroke-linecap:round;stroke-miterlimit:10"></path><path d="M165.28,253.27s4.7,8.59,17.21,8.59c12.88,0,15.75-8.58,15.75-8.59.4-1.21,9.29-.26,10.58-.06,3.07.47,7.75,1.13,9.63,4,1.25,1.87,6.25,12.5,6.25,12.5l-15.52,15.68s-4.18,18.72-3.87,21.53S215,329.4,215,329.4H147.47l10-22.52-1.81-19.54-16.95-14.85s3.44-13.13,6.26-15S160,251.57,165.28,253.27Z" style="fill:#326DD9;stroke:#263238;stroke-linecap:round;stroke-miterlimit:10"></path><path d="M163.6,297.41c1.25-3.08,2.74-7.15,4.39-12.38" style="fill:#326DD9;stroke:#263238;stroke-linecap:round;stroke-miterlimit:10"></path><path d="M159.65,305.66a40.51,40.51,0,0,0,2.81-5.55" style="fill:#326DD9;stroke:#263238;stroke-linecap:round;stroke-miterlimit:10"></path><path d="M193.46,286.34s4.83,13.17,8.34,18" style="fill:#326DD9;stroke:#263238;stroke-linecap:round;stroke-miterlimit:10"></path><line x1="152.39" y1="269.98" x2="151.74" y2="266.58" style="fill:#326DD9;stroke:#263238;stroke-linecap:round;stroke-miterlimit:10"></line><line x1="155.66" y1="287.34" x2="153.03" y2="273.42" style="fill:#326DD9;stroke:#263238;stroke-linecap:round;stroke-miterlimit:10"></line><line x1="209.18" y1="285.35" x2="212.34" y2="266.58" style="fill:#326DD9;stroke:#263238;stroke-linecap:round;stroke-miterlimit:10"></line><path d="M203.9,315.71c.59.93,1.21,1.83,1.85,2.68" style="fill:#326DD9;stroke:#263238;stroke-linecap:round;stroke-miterlimit:10"></path><path d="M195.21,296.44a91.72,91.72,0,0,0,7.46,17.25" style="fill:#326DD9;stroke:#263238;stroke-linecap:round;stroke-miterlimit:10"></path><path d="M170.19,284.59s-3.52,11.41-4.83,14.92" style="fill:#326DD9;stroke:#263238;stroke-linecap:round;stroke-miterlimit:10"></path><path d="M177,351c-9.86-10.22-27.75-15.33-36.51-16.79S115.69,324,115.69,324s-9.49-.32-8.76,11,28.11,24.46,38.69,30.3a34.21,34.21,0,0,0,31.4,1.09" style="fill:#787878;stroke:#263238;stroke-linecap:round;stroke-miterlimit:10"></path><path d="M183.18,351.41c9.86-10.22,27.74-15.33,36.5-16.79s22.4-8.93,22.4-8.93S254,324,253.27,335.35s-28.11,24.45-38.7,30.29a34.19,34.19,0,0,1-31.39,1.1" style="fill:#787878;stroke:#263238;stroke-linecap:round;stroke-miterlimit:10"></path><path d="M223.82,360.63s1-1.28-.33-3.21-4.21.89-6.57,1.66-11.63,2.83-16.06,3.79c-3.78.82-9.65.86-11.39,1.15a14.18,14.18,0,0,1-.48,8.13c-.85.05,1.76-.07.88,0,7.7-.34,12.11-.42,14.49-.67,4.35-.47,10,1.5,14.39-.17s7.53-6,6.9-7.93A5.26,5.26,0,0,0,223.82,360.63Z" style="fill:#fff;stroke:#263238;stroke-linecap:round;stroke-miterlimit:10"></path><path d="M189.21,364.06l.24,0Z" style="fill:#fff;stroke:#263238;stroke-linecap:round;stroke-miterlimit:10"></path><path d="M189,364.1l.11,0Z" style="fill:#fff;stroke:#263238;stroke-linecap:round;stroke-miterlimit:10"></path><path d="M223.82,360.63a11.92,11.92,0,0,1-3.77,1.25" style="fill:none;stroke:#263238;stroke-linecap:round;stroke-miterlimit:10"></path><path d="M225.65,363.35a33.67,33.67,0,0,1-5,1.65" style="fill:none;stroke:#263238;stroke-linecap:round;stroke-miterlimit:10"></path><path d="M220.45,367.16a6.09,6.09,0,0,0,4.05-.62" style="fill:none;stroke:#263238;stroke-linecap:round;stroke-miterlimit:10"></path><path d="M219.23,369.1a6.51,6.51,0,0,0,3.74-.6" style="fill:none;stroke:#263238;stroke-linecap:round;stroke-miterlimit:10"></path><path d="M189,372.15a14.18,14.18,0,0,0,.48-8.13l-.47.08s-17-3.61-31.4-12.4S124.93,329.39,115.69,324s-18,2.71-17.12,11.27,7.88,13.07,20.5,18.25,35.61,13.3,47.77,15.77C173.12,370.55,182,372.5,189,372.15Z" style="fill:#787878;stroke:#263238;stroke-linecap:round;stroke-miterlimit:10"></path><path d="M163.75,371.66a13.7,13.7,0,0,1-.61-8.14l.49.08s17.51-3.68,32.48-12.46,38.7-22,48.29-27.43A11.72,11.72,0,0,1,262.17,335c-.94,8.57-8.19,13.07-21.28,18.25s-41.74,13-54.37,15.49C180,370,171,372,163.75,371.66Z" style="fill:#787878;stroke:#263238;stroke-linecap:round;stroke-miterlimit:10"></path><path d="M163.14,363.52S146.33,361.42,141,360s-8.86-4.82-10.6-3.88-.3,3.3-.3,3.3-1.18,2.92,0,4.84,2.89,3.76,8.82,6.86,12.94,1.91,16.65,1.75a57.6,57.6,0,0,0,8.19-1.16S162.32,368.83,163.14,363.52Z" style="fill:#fff;stroke:#263238;stroke-linecap:round;stroke-miterlimit:10"></path><path d="M130.12,359.37a2.42,2.42,0,0,1,2.6.54,7.42,7.42,0,0,0,2.74,1.68" style="fill:none;stroke:#263238;stroke-linecap:round;stroke-miterlimit:10"></path><path d="M129.61,362.88a2.55,2.55,0,0,1,2.34-.07,11,11,0,0,0,2.64.94" style="fill:none;stroke:#263238;stroke-linecap:round;stroke-miterlimit:10"></path><path d="M131.86,366.31s.52-.84,1.13-.72,3.1,1,3.78,1.07" style="fill:none;stroke:#263238;stroke-linecap:round;stroke-miterlimit:10"></path><path d="M135.1,368.82a2.39,2.39,0,0,1,1.4-.6,19.24,19.24,0,0,1,2.15.28" style="fill:none;stroke:#263238;stroke-linecap:round;stroke-miterlimit:10"></path></g><g id="freepik--character-2--inject-54"><path d="M263.46,411.48c-5.61,16.15-11.38,32.36-17.8,48.69l258.21-.05q-8.73-24.36-17.5-48.64Z" style="fill:#326DD9;stroke:#263238;stroke-linecap:round;stroke-miterlimit:10"></path><path d="M356.15,296.64s-15.41.84-20.88,3.91-6.49,21.17-6.49,21.17l-21.2,41.76s-39.7,9.68-44.5,10.41-8.09-.59-12.39.59-4.5,1.85-7.71,5.4-4.63,7-3.39,7.64,4.25-2,5.17-3a30.63,30.63,0,0,1,3.48-2.84s-2.3,7.42-3.33,11c-2.14,7.4-3.64-5.84-5.52-4.4-2.44,1.88-.73,12.74,5.49,11.46s9.29-1.14,11.79-4.41S264.56,384,264.56,384s22.22-1.54,35-2.91,24-7.26,28.2-11.34c3.75-3.63,16.43-30.58,16.43-30.58l11.61-30.74S358.92,302,356.15,296.64Z" style="fill:#787878;stroke:#263238;stroke-linecap:round;stroke-miterlimit:10"></path><path d="M245.71,396.45a21.08,21.08,0,0,1-2.16,1.62,11.34,11.34,0,0,1-3.62,1c-3.18.45-4.32,1.78-3.55,2.63s2.16.69,5.09.69a11.19,11.19,0,0,0,6.09-2.08,13,13,0,0,0,2.47-2.24" style="fill:#787878;stroke:#263238;stroke-linecap:round;stroke-miterlimit:10"></path><path d="M248.9,396.67a20.71,20.71,0,0,1-1.93,1.89A7.6,7.6,0,0,1,243.5,400c-1.6.21-4.05,2.31-3.18,3.06s2.23.41,5.14,0a11.13,11.13,0,0,0,5.77-2.85,12.88,12.88,0,0,0,2.16-2.54" style="fill:#787878;stroke:#263238;stroke-linecap:round;stroke-miterlimit:10"></path><path d="M258.33,378.79s-2.68.61-4.52,4.81-.59,12.25-1.78,12.78-2.32.21-3.74-.18-3.7-.71-3.17,1c1.16,3.72,7.57,2.28,7.57,2.28s1-.14,3.38-3.54,7.78-11.24,7.78-11.24" style="fill:#787878"></path><path d="M258.33,378.79s-2.68.61-4.52,4.81-.59,12.25-1.78,12.78-2.32.21-3.74-.18-3.7-.71-3.17,1c1.16,3.72,7.57,2.28,7.57,2.28s1-.14,3.38-3.54,7.78-11.24,7.78-11.24" style="fill:none;stroke:#263238;stroke-linecap:round;stroke-miterlimit:10"></path><line x1="342.83" y1="337.51" x2="338.35" y2="322.99" style="fill:none;stroke:#263238;stroke-linecap:round;stroke-miterlimit:10"></line><path d="M397.26,296.64s15.41.84,20.87,3.91,6.49,21.17,6.49,21.17l21.2,41.76s39.7,9.68,44.5,10.41,8.1-.59,12.39.59,4.51,1.85,7.71,5.4,4.64,7,3.39,7.64-4.25-2-5.17-3a29.75,29.75,0,0,0-3.48-2.84s2.31,7.42,3.33,11c2.15,7.4,3.65-5.84,5.52-4.4,2.44,1.88.73,12.74-5.49,11.46s-9.29-1.14-11.78-4.41-7.9-11.28-7.9-11.28-22.21-1.54-35-2.91-24-7.26-28.2-11.34c-3.75-3.63-16.43-30.58-16.43-30.58L397.64,308.4S394.48,302,397.26,296.64Z" style="fill:#787878;stroke:#263238;stroke-linecap:round;stroke-miterlimit:10"></path><path d="M507.7,396.45a20.62,20.62,0,0,0,2.15,1.62,11.49,11.49,0,0,0,3.63,1c3.18.45,4.32,1.78,3.55,2.63s-2.16.69-5.09.69a11.23,11.23,0,0,1-6.1-2.08,13.16,13.16,0,0,1-2.46-2.24" style="fill:#787878;stroke:#263238;stroke-linecap:round;stroke-miterlimit:10"></path><path d="M504.5,396.67a21.21,21.21,0,0,0,1.94,1.89A7.55,7.55,0,0,0,509.9,400c1.61.21,4.06,2.31,3.18,3.06s-2.23.41-5.14,0a11.17,11.17,0,0,1-5.77-2.85,12.88,12.88,0,0,1-2.16-2.54" style="fill:#787878;stroke:#263238;stroke-linecap:round;stroke-miterlimit:10"></path><path d="M495.07,378.79s2.68.61,4.52,4.81.59,12.25,1.78,12.78,2.32.21,3.74-.18,3.7-.71,3.18,1c-1.16,3.72-7.58,2.28-7.58,2.28s-1-.14-3.37-3.54-7.79-11.24-7.79-11.24" style="fill:#787878"></path><path d="M495.07,378.79s2.68.61,4.52,4.81.59,12.25,1.78,12.78,2.32.21,3.74-.18,3.7-.71,3.18,1c-1.16,3.72-7.58,2.28-7.58,2.28s-1-.14-3.37-3.54-7.79-11.24-7.79-11.24" style="fill:none;stroke:#263238;stroke-linecap:round;stroke-miterlimit:10"></path><line x1="410.57" y1="337.51" x2="415.05" y2="322.99" style="fill:none;stroke:#263238;stroke-linecap:round;stroke-miterlimit:10"></line><path d="M429.1,247.26c.35,1-1.59,2.72-1.39,3.76s2.66,1.6,2.77,2.66-2.21,2.57-2.26,3.66,2.23,2,2.06,3.08-2.82,2.33-3.15,3.43,1.67,2.33,1.21,3.44-3.36,2-4,3.06,1,2.6.24,3.67-3.82,1.54-4.73,2.55.22,2.77-.82,3.75-4.14,1-5.32,1.89-.6,2.84-1.91,3.67-4.29.39-5.7,1.11-1.46,2.76-3,3.4-4.27-.26-5.86.24-2.27,2.53-4,2.93-4-.91-5.75-.65-3,2.15-4.78,2.28-3.63-1.51-5.38-1.51-3.64,1.65-5.38,1.51-3.1-2-4.78-2.28-4.09,1-5.76.65-2.37-2.42-4-2.93-4.34.39-5.86-.24-1.57-2.68-3-3.4-4.4-.27-5.7-1.11-.74-2.78-1.92-3.67-4.26-.91-5.31-1.89.09-2.74-.82-3.76-4-1.46-4.73-2.54.86-2.58.23-3.67-3.52-1.94-4-3.06,1.54-2.31,1.21-3.44-3-2.3-3.15-3.43,2.12-2,2.06-3.08-2.37-2.57-2.26-3.66,2.56-1.6,2.77-2.66-1.74-2.73-1.39-3.76,2.88-1.23,3.31-2.21-1.12-2.83-.57-3.75,3.07-.85,3.69-1.75-.52-2.84.2-3.67,3.14-.47,3.91-1.27,0-2.8.88-3.53,3.13-.12,4-.82.5-2.72,1.44-3.34,3,.2,4-.39.91-2.61,1.91-3.13,2.91.52,3.93,0,1.26-2.48,2.29-2.89,2.74.81,3.8.45,1.54-2.32,2.6-2.61,2.55,1.1,3.63.85,1.79-2.13,2.85-2.31,2.37,1.38,3.46,1.26,2-1.92,3.07-2,2.17,1.63,3.27,1.63,2.22-1.69,3.27-1.63,2,1.86,3.07,2,2.41-1.43,3.46-1.26,1.78,2.07,2.85,2.31,2.59-1.15,3.63-.85,1.55,2.25,2.6,2.61,2.78-.86,3.8-.45,1.27,2.42,2.29,2.89,2.94-.55,3.93,0,.95,2.55,1.91,3.14,3.08-.24,4,.38.56,2.65,1.45,3.34,3.17.1,4,.82.11,2.74.88,3.53,3.2.45,3.91,1.27-.41,2.78.2,3.68,3.13.81,3.69,1.74-1,2.76-.57,3.75S428.75,246.25,429.1,247.26Z" style="fill:#263238"></path><path d="M370.16,275.86s-.7,7.94-4,13.31-10,7.47-10,7.47l-13.32,40.87,7,27.56S337.46,384,332.56,395.42s1,24.4,6.13,29.77,11.95,12.64,29.37,12c24.23-1,41.46,1.25,49.17-7.86s8.54-26.29-.68-39.27c-5.61-7.89-13.23-24.95-13.23-24.95l7.59-28.41-11.59-40.09s-7-.4-11.18-5.53-3.27-14.48-3.27-14.48Z" style="fill:#787878;stroke:#263238;stroke-linecap:round;stroke-miterlimit:10"></path><path d="M378,286.7a19.12,19.12,0,0,0,7.5-1.54,29.94,29.94,0,0,1-.59-8.6l-14.71-.7a42,42,0,0,1-1.75,8.27A19.1,19.1,0,0,0,378,286.7Z" style="fill:#263238"></path><path d="M410.91,336.66l-11.59-40.09a18.06,18.06,0,0,1-3.44-.57c1.34,9.3-.27,13.95-.27,13.95a12.85,12.85,0,0,1-6.54,9.81c-6.3,3.74-18.21,4.44-25.68-1.63-5.64-4.58-4.64-17.13-3.8-23a20.8,20.8,0,0,1-3.44,1.53l-13.32,40.87,7,27.56h53.48Z" style="fill:#326DD9;stroke:#263238;stroke-linecap:round;stroke-miterlimit:10"></path><path d="M396.26,255h5.53s-.92,6.45-3,9-2.76,2.54-2.76,2.54Z" style="fill:#787878;stroke:#263238;stroke-linecap:round;stroke-miterlimit:10"></path><path d="M359.65,255h-5.52s.92,6.45,3,9,2.76,2.54,2.76,2.54Z" style="fill:#787878;stroke:#263238;stroke-linecap:round;stroke-miterlimit:10"></path><path d="M378,281.43h0a18.78,18.78,0,0,1-18.78-18.78V233.79a7,7,0,0,1,7-7h23.56a7,7,0,0,1,7,7v28.86A18.78,18.78,0,0,1,378,281.43Z" style="fill:#787878;stroke:#263238;stroke-linecap:round;stroke-miterlimit:10"></path><path d="M396.5,254.47s-14.1-2.25-17.78-2.66-19.21,3.07-19.21,3.07l-.33,1.12v6.65a18.78,18.78,0,0,0,37.56,0v-7.89Z" style="fill:#326DD9;stroke:#263238;stroke-linecap:round;stroke-miterlimit:10"></path><path d="M364,249.86s3.72,2.9,8.69,0" style="fill:none;stroke:#263238;stroke-linecap:round;stroke-miterlimit:10"></path><path d="M383.45,249.86a7.86,7.86,0,0,0,8.69,0" style="fill:none;stroke:#263238;stroke-linecap:round;stroke-miterlimit:10"></path><path d="M363.18,244.28s2.28-3.93,9.31-3.31" style="fill:none;stroke:#263238;stroke-linecap:round;stroke-miterlimit:10;stroke-width:2px"></path><path d="M382,241a8.79,8.79,0,0,1,10.76,3.31" style="fill:none;stroke:#263238;stroke-linecap:round;stroke-miterlimit:10;stroke-width:2px"></path><path d="M332.56,395.42c-4.9,11.45,1,24.4,6.13,29.77s11.95,12.64,29.37,12c24.23-1,41.46,1.25,49.17-7.86s8.54-26.29-.68-39.27a92.51,92.51,0,0,1-5.7-9.56H340.38A150.94,150.94,0,0,0,332.56,395.42Z" style="fill:#fff;stroke:#263238;stroke-linecap:round;stroke-miterlimit:10"></path><path d="M370.79,418.59c-12.3-12.75-34.61-19.12-45.53-20.94s-31-12.81-31-12.81-11.83-.4-10.92,13.72,35.06,30.5,48.26,37.79a42.65,42.65,0,0,0,39.16,1.36" style="fill:#fff;stroke:#263238;stroke-linecap:round;stroke-miterlimit:10"></path><path d="M378.48,419.05c12.29-12.75,34.6-19.13,45.53-20.95S451.94,387,451.94,387s14.87-2.06,14,12.05-35.06,30.51-48.27,37.79a42.63,42.63,0,0,1-39.15,1.37" style="fill:#fff;stroke:#263238;stroke-linecap:round;stroke-miterlimit:10"></path><path d="M429.17,430.55s1.26-1.59-.41-4-5.25,1.12-8.2,2.07-14.51,3.53-20,4.74c-4.72,1-12,1.07-14.21,1.43a17.68,17.68,0,0,1-.59,10.15l1.09-.05c9.6-.43,15.1-.52,18.07-.83,5.43-.58,12.43,1.87,18-.22s9.39-7.48,8.61-9.89A6.68,6.68,0,0,0,429.17,430.55Z" style="fill:#787878;stroke:#263238;stroke-linecap:round;stroke-miterlimit:10"></path><path d="M386,434.83l.3-.05Z" style="fill:#fff;stroke:#263238;stroke-linecap:round;stroke-miterlimit:10"></path><path d="M385.73,434.88l.14,0Z" style="fill:#fff;stroke:#263238;stroke-linecap:round;stroke-miterlimit:10"></path><path d="M429.17,430.55a15,15,0,0,1-4.7,1.56" style="fill:none;stroke:#263238;stroke-linecap:round;stroke-miterlimit:10"></path><path d="M431.46,433.94a42.15,42.15,0,0,1-6.21,2.06" style="fill:none;stroke:#263238;stroke-linecap:round;stroke-miterlimit:10"></path><path d="M425,438.7a7.6,7.6,0,0,0,5-.78" style="fill:none;stroke:#263238;stroke-linecap:round;stroke-miterlimit:10"></path><path d="M423.44,441.12c.26-.09,1.33.53,4.67-.75" style="fill:none;stroke:#263238;stroke-linecap:round;stroke-miterlimit:10"></path><path d="M385.73,444.93a17.68,17.68,0,0,0,.59-10.15l-.59.1s-21.17-4.51-39.16-15.47-40.75-27.83-52.28-34.57-22.48,3.37-21.36,14.05,9.84,16.3,25.58,22.77,44.41,16.58,59.59,19.67C365.92,442.93,377,445.35,385.73,444.93Z" style="fill:#fff;stroke:#263238;stroke-linecap:round;stroke-miterlimit:10"></path><path d="M354.24,444.31a17.18,17.18,0,0,1-.77-10.15l.62.09s21.85-4.58,40.51-15.54,48.28-27.47,60.23-34.22,23.34,3.38,22.17,14.06-10.21,16.3-26.54,22.76-52.07,16.23-67.82,19.32C374.53,442.23,363.31,444.7,354.24,444.31Z" style="fill:#fff;stroke:#263238;stroke-linecap:round;stroke-miterlimit:10"></path><path d="M353.47,434.16s-21-2.62-27.58-4.46-11.06-6-13.23-4.83-.37,4.11-.37,4.11-1.48,3.64,0,6,3.61,4.7,11,8.56S339.4,446,344,445.75a70.47,70.47,0,0,0,10.21-1.44S352.46,440.78,353.47,434.16Z" style="fill:#787878;stroke:#263238;stroke-linecap:round;stroke-miterlimit:10"></path><path d="M312.29,429a3,3,0,0,1,3.24.67,9.29,9.29,0,0,0,3.42,2.1" style="fill:none;stroke:#263238;stroke-linecap:round;stroke-miterlimit:10"></path><path d="M311.66,433.36a3.18,3.18,0,0,1,2.91-.09,14.06,14.06,0,0,0,3.3,1.17" style="fill:none;stroke:#263238;stroke-linecap:round;stroke-miterlimit:10"></path><path d="M314.46,437.63s.65-1,1.41-.89,3.87,1.22,4.71,1.33" style="fill:none;stroke:#263238;stroke-linecap:round;stroke-miterlimit:10"></path><path d="M318.51,440.77a3,3,0,0,1,1.74-.75,24.81,24.81,0,0,1,2.68.34" style="fill:none;stroke:#263238;stroke-linecap:round;stroke-miterlimit:10"></path><path d="M356.87,238.82c1.15.25.81,1.58,2.28,1.32.66-.11,1.13-1.94,2-2.11.7-.13,1.81,1.4,2.64,1.22s1.12-2,1.92-2.19,1.9,1.32,2.69,1.12,1.07-2,1.84-2.25,2,1.24,2.73,1,1-2.09,1.75-2.32,2,1.16,2.77.9.91-2.12,1.66-2.39,2.07,1.06,2.8.78.82-2.17,1.54-2.48,2.13,1,2.85.63.69-2.21,1.39-2.56,2.19.82,2.89.45.54-2.25,1.21-2.65,2.25.66,2.91.23.35-2.28,1-2.74,2.45.29,3.06-.2c.25-.33-1.56-.73-1.61-1.26,0-.23,1.65-.7,1.61-1s-1.77-.3-1.81-.6,1.62-.8,1.57-1.08-1.78-.25-1.83-.53,1.58-.87,1.52-1.15-1.79-.17-1.86-.45,1.54-.95,1.47-1.22-1.8-.08-1.88-.36,1.48-1,1.4-1.3-1.8,0-1.9-.24,1.41-1.13,1.31-1.39-1.79.15-1.91-.1,1.31-1.25,1.19-1.5-1.77.32-1.91.08,1.17-1.39,1-1.62-1.71.55-1.88.33.95-1.55.76-1.75-1.58.83-1.79.65c-.46-.4-.27-2.21-1.12-2.53-.64-.24-1.87,1.18-2.68,1s-1.12-2-1.91-2.1-1.68,1.51-2.46,1.43-1.37-1.83-2.16-1.86-1.54,1.66-2.31,1.66-1.53-1.71-2.3-1.69-1.42,1.78-2.19,1.84-1.66-1.59-2.42-1.51-1.29,1.88-2,2-1.78-1.46-2.53-1.32-1.14,2-1.87,2.15-1.92-1.29-2.64-1.08-.94,2.07-1.65,2.32-2.06-1.07-2.75-.78-.67,2.17-1.33,2.52-2.2-.75-2.83-.35-.27,2.25-.85,2.72-2.32-.26-2.83.29c-.34.36.65,1.83.37,2.21s-2-.17-2.23.24,1.05,1.63.87,2.07-2,.32-2.11.77,1.44,1.31,1.37,1.78-1.83.81-1.84,1.28,1.71.93,1.75,1.41-1.6,1.18-1.52,1.65,1.87.57,2,1-1.36,1.43-1.2,1.89,1.94.28,2.13.72-1.16,1.61-1,2,2,.06,2.2.47-1,1.73-.73,2.12,2-.13,2.23.26-.81,1.81-.53,2.18,2-.27,2.24.07-.64,1.9-.37,2.21C355.66,239.86,356.16,238.67,356.87,238.82Z" style="fill:#263238"></path></g></svg>