<svg xmlns="http://www.w3.org/2000/svg" viewBox="0 0 500 500"><g id="freepik--background-complete--inject-72"><rect y="382.4" width="500" height="0.25" style="fill:#ebebeb"></rect><path d="M237,337.8H43.91a5.71,5.71,0,0,1-5.7-5.71V60.66A5.71,5.71,0,0,1,43.91,55H237a5.71,5.71,0,0,1,5.71,5.71V332.09A5.71,5.71,0,0,1,237,337.8ZM43.91,55.2a5.46,5.46,0,0,0-5.45,5.46V332.09a5.46,5.46,0,0,0,5.45,5.46H237a5.47,5.47,0,0,0,5.46-5.46V60.66A5.47,5.47,0,0,0,237,55.2Z" style="fill:#ebebeb"></path><path d="M453.31,337.8H260.21a5.72,5.72,0,0,1-5.71-5.71V60.66A5.72,5.72,0,0,1,260.21,55h193.1A5.71,5.71,0,0,1,459,60.66V332.09A5.71,5.71,0,0,1,453.31,337.8ZM260.21,55.2a5.47,5.47,0,0,0-5.46,5.46V332.09a5.47,5.47,0,0,0,5.46,5.46h193.1a5.47,5.47,0,0,0,5.46-5.46V60.66a5.47,5.47,0,0,0-5.46-5.46Z" style="fill:#ebebeb"></path><rect x="423.9" y="398.49" width="26" height="0.25" style="fill:#ebebeb"></rect><rect x="311" y="401.21" width="45.03" height="0.25" style="fill:#ebebeb"></rect><rect x="362.11" y="389.21" width="60.79" height="0.25" style="fill:#ebebeb"></rect><rect x="52.46" y="390.89" width="19.23" height="0.25" style="fill:#ebebeb"></rect><rect x="80.6" y="390.89" width="55.29" height="0.25" style="fill:#ebebeb"></rect><rect x="169.67" y="395.11" width="74.47" height="0.25" style="fill:#ebebeb"></rect><rect x="94.55" y="29.31" width="30.15" height="8.52" style="fill:#f0f0f0"></rect><rect x="109.63" y="37.83" width="30.15" height="8.52" style="fill:#e6e6e6"></rect><rect x="146.77" y="95.37" width="30.15" height="8.52" style="fill:#f0f0f0"></rect><rect x="161.84" y="103.9" width="30.15" height="8.52" style="fill:#e6e6e6"></rect><rect x="51.02" y="308.35" width="30.15" height="8.52" style="fill:#f5f5f5"></rect><rect x="62.74" y="162.18" width="30.15" height="8.52" style="fill:#f5f5f5"></rect><rect x="314.56" y="247.18" width="30.15" height="8.52" style="fill:#f5f5f5"></rect><rect x="35.94" y="316.87" width="30.15" height="8.52" transform="translate(102.04 642.26) rotate(180)" style="fill:#e6e6e6"></rect><rect x="217.3" y="33.57" width="30.15" height="8.52" style="fill:#f0f0f0"></rect><rect x="409.9" y="350.42" width="30.15" height="8.52" transform="translate(849.96 709.36) rotate(180)" style="fill:#f5f5f5"></rect><rect x="441.71" y="225.29" width="30.15" height="8.52" style="fill:#f5f5f5"></rect><rect x="160.81" y="208.07" width="30.15" height="8.52" style="fill:#f5f5f5"></rect><rect x="424.98" y="358.94" width="30.15" height="8.52" transform="translate(880.11 726.4) rotate(180)" style="fill:#f0f0f0"></rect><rect x="357.84" y="29.31" width="30.15" height="8.52" transform="translate(745.82 67.13) rotate(180)" style="fill:#f0f0f0"></rect><rect x="401.06" y="95.37" width="30.15" height="8.52" transform="translate(832.26 199.27) rotate(180)" style="fill:#f0f0f0"></rect><rect x="287.74" y="191.41" width="30.15" height="8.52" transform="translate(605.63 391.35) rotate(180)" style="fill:#f0f0f0"></rect><rect x="167.51" y="350.42" width="30.15" height="8.52" transform="translate(365.18 709.36) rotate(180)" style="fill:#f0f0f0"></rect></g><g id="freepik--Shadow--inject-72"><ellipse id="freepik--path--inject-72" cx="250" cy="416.24" rx="193.89" ry="11.32" style="fill:#f5f5f5"></ellipse></g><g id="freepik--window-shopping--inject-72"><rect x="191.24" y="215.45" width="4.14" height="194.67" style="fill:#263238"></rect><polygon points="218.04 410.12 168.57 410.12 169.99 406.45 193.31 404.32 216.63 406.45 218.04 410.12" style="fill:#263238"></polygon><path d="M209.57,158a9.78,9.78,0,0,0-2,.21,10.69,10.69,0,0,1-7.66-1.5,12.77,12.77,0,0,0-13.14,0,10.73,10.73,0,0,1-7.67,1.5,9.71,9.71,0,0,0-2-.21,9.82,9.82,0,0,0-9.67,9.45A9.71,9.71,0,0,0,183,175.38a12.79,12.79,0,0,0,20.53,0,9.71,9.71,0,0,0,15.67-7.94A9.82,9.82,0,0,0,209.57,158Z" style="fill:#263238"></path><path d="M214.37,225.47H172.24a277.33,277.33,0,0,1-7.09-56.31,122.57,122.57,0,0,1,56.31,0A338,338,0,0,1,214.37,225.47Z" style="fill:#326DD9"></path><path d="M214.37,225.47H172.24c-1.14,7.35-27.51,35.44-28.34,85.11,18.76,6.62,80,6.62,98.82,0C241.55,261.45,215.45,233.33,214.37,225.47Z" style="fill:#326DD9"></path><rect x="318.79" y="215.45" width="4.14" height="194.67" style="fill:#263238"></rect><polygon points="345.6 410.12 296.12 410.12 297.54 406.45 320.86 404.32 344.18 406.45 345.6 410.12" style="fill:#263238"></polygon><path d="M337.13,162.82a9.64,9.64,0,0,0-2,.21,10.73,10.73,0,0,1-7.67-1.5,12.77,12.77,0,0,0-13.14,0,10.71,10.71,0,0,1-7.67,1.5,9.61,9.61,0,0,0-2-.21,9.84,9.84,0,0,0-9.68,9.45,9.71,9.71,0,0,0,15.67,7.94,12.8,12.8,0,0,0,20.54,0,9.71,9.71,0,0,0,15.67-7.94A9.84,9.84,0,0,0,337.13,162.82Z" style="fill:#263238"></path><path d="M356.1,367.78c-18.77,9.14-51.71,9.14-70.48,0,.85-68.6,13-143.47,14.18-153.63-3-12.85-5.06-33.06-6.18-46.44l.29,0a13.05,13.05,0,0,1,9.46,5.46c3.4,4.69,10,7.86,17.49,7.86s14.1-3.18,17.5-7.86a13,13,0,0,1,9.47-5.46h.07c-1.21,13.19-3.28,33.38-6,46.43C343,225,354.93,299.92,356.1,367.78Z" style="fill:#326DD9"></path><path d="M356.1,367.78c-18.77,9.14-51.71,9.14-70.48,0,.85-68.6,13-143.47,14.18-153.63-3-12.85-5.06-33.06-6.18-46.44l.29,0a13.05,13.05,0,0,1,9.46,5.46c3.4,4.69,10,7.86,17.49,7.86s14.1-3.18,17.5-7.86a13,13,0,0,1,9.47-5.46h.07c-1.21,13.19-3.28,33.38-6,46.43C343,225,354.93,299.92,356.1,367.78Z" style="fill:#fff;opacity:0.6000000000000001"></path><path d="M343.1,223.89a109.21,109.21,0,0,1-44.47,0,2.12,2.12,0,0,1-1.62-2V209a1.27,1.27,0,0,1,1.62-1.28,109.56,109.56,0,0,0,44.47,0,1.27,1.27,0,0,1,1.61,1.28v12.92A2.11,2.11,0,0,1,343.1,223.89Z" style="fill:#263238"></path><g style="opacity:0.6000000000000001"><rect x="82.86" y="76.51" width="334.8" height="336.79" style="fill:#326DD9;opacity:0.2"></rect><polygon points="238.63 76.51 186.82 76.51 100.13 413.08 151.94 413.08 238.63 76.51" style="fill:#fff;opacity:0.30000000000000004"></polygon><polygon points="278.04 76.51 252.13 76.51 165.45 413.08 191.35 413.08 278.04 76.51" style="fill:#fff;opacity:0.30000000000000004"></polygon><polygon points="371.76 76.51 345.86 76.51 259.17 413.08 285.07 413.08 371.76 76.51" style="fill:#fff;opacity:0.30000000000000004"></polygon></g><path d="M302.35,218.76l-6.62,2.65L292,227.84a10,10,0,0,1-4,1.51,2.2,2.2,0,0,1-1.38-.31,3.77,3.77,0,0,1-1-1,10.59,10.59,0,0,1-1-1.94c-.25-.61-.53-1.63-.79-2.52-.52-1.84-1-3.82-1.37-5.75a98.7,98.7,0,0,1-1.57-11.94c-.08-1-.13-1.91-.18-2.87,0-.4.07-.79.1-1.17,1.09-.62,2.07-1.2,2.82-1.7-.26-8.29,0-13-7.52-14.44l-.16,0c-.13,0-.24-.07-.37-.09-2.12-.34-4.74-.73-7.37-1A2.23,2.23,0,0,0,266,183a2.33,2.33,0,0,0-1.31.4,2.26,2.26,0,0,0-2-1.12,2.55,2.55,0,0,0-.74.13c-1.69-1.83-1.43-4.48-.77-7,5.29-.14,9.94-3.81,10.29-9.46a24.38,24.38,0,0,0,0-2.57,2.55,2.55,0,0,0,1.63-.8,11.62,11.62,0,0,1-1.89-1.94c-.12-.77-.27-1.55-.45-2.33a1.23,1.23,0,0,0,.32-1.17,1.42,1.42,0,0,0-.48-.85,1.79,1.79,0,0,0,.82-.84l-1.29.6a24.05,24.05,0,0,0-1.4-3.4,2.83,2.83,0,0,1,.81-.23.39.39,0,1,0-.07-.77,3.62,3.62,0,0,0-1.11.32c-.16-.29-.33-.58-.51-.86,4-1.5,7.59-4.15,7.72-6.73-1.1,1.78-5.37,2.56-11.23-1.48-4-2.75-9.46-1.17-12.89.86-.39,0-.77.05-1.15.1a7.21,7.21,0,0,0-2-2.59c-.44-3.67-3.51-6.17-7.41-7.15-6.51-1.62-10.59,2.72-12.62,6.6s1.88,9.76,8.35,11.05a14.2,14.2,0,0,0,3.24.29l.46.14a19.06,19.06,0,0,0,5.08,15.77c2.22,2.26,4.28,3.27,6.12,3.44.21.2.43.4.66.59.4,3.76.37,8-1.07,10.76a2.27,2.27,0,0,0-.75-.13,2.22,2.22,0,0,0-2.22,1.84c-3.58.24-6.83.68-9.09,1h0c-7.65.6-7.25,5.81-8.73,14,.44.4,1,.84,1.58,1.32q-1,2.12-1.94,4.28a89.43,89.43,0,0,0-4.61,13.65,48.84,48.84,0,0,0-1.26,7.44,26.76,26.76,0,0,0,.87,7.74,27.3,27.3,0,0,0,3,7.09,23.69,23.69,0,0,0,2.2,3.15c.18.23.37.44.55.66a11.83,11.83,0,0,0,1.51,4.54l1.82,6.42.68,0c-1.46,18.05,3.25,41.91-4,76.33l2.64.38c-5.6,20.62-9.44,49.3-10.66,59.19l-.21-.14a.66.66,0,0,0-.82,0l-5.24,4.3a1,1,0,0,0,.07,1.65c2.43,1.66,6,4,9,6.13,3.53,2.5,1.43,1.3,5.56,4.23,2.5,1.77,5.15-.2,4.2-1.1a17.49,17.49,0,0,1-5.57-8.86c-.19-.6,0-1.29-.56-1.66l-1.27-.91c3.18-8.61,14.29-38.21,21.36-60.57l7.48,1.09c.32,28.35,7.41,59.91,9.63,69.14h-.92a.64.64,0,0,0-.64.49l-.06,6.43a1.06,1.06,0,0,0,1.09,1.29c3-.05,5.87-.22,9.63-.22,4.4,0,2,.23,7.11.23,3.12,0,4-3.09,2.68-3.28a18.92,18.92,0,0,1-10-3.93c-.53-.37-.84-1-1.5-1h-2c.05-9.51.23-42.47.55-66.89l2.68.39c2.4-39.76,2.59-69.9,1.09-103q.63-3.6,1.15-6.87c.09.2.18.38.29.59a16.2,16.2,0,0,0,2.5,3.35,9.6,9.6,0,0,0,4.29,2.57,9,9,0,0,0,5.11-.14,11.58,11.58,0,0,0,3.68-2c.26-.21.5-.42.74-.63a11.63,11.63,0,0,0,5-3.19l5.75-3.77Zm-70.44,7.91a54.18,54.18,0,0,1,1.45-6.06c.63-2.09,1.32-4.17,2.13-6.24s1.63-4.12,2.54-6.15c.35-.75.7-1.5,1.06-2.25l1.15.79c2,12.52,1.55,19.43,1.15,28.73a32.47,32.47,0,0,0-4.57,9.16l-1.22-1.32c-.1-.15-.19-.31-.28-.45-.26-.46-.51-.93-.75-1.4-.46-.95-.89-1.92-1.26-2.89a26.47,26.47,0,0,1-1.43-6A23.68,23.68,0,0,1,231.91,226.67Z" style="fill:#326DD9;opacity:0.1"></path><rect x="246.06" y="-32.77" width="7.88" height="277.78" transform="translate(143.89 356.11) rotate(-90)" style="fill:#326DD9"></rect><rect x="109.04" y="76.51" width="5.29" height="336.57" style="fill:#326DD9"></rect><rect x="385.67" y="76.51" width="5.29" height="336.57" style="fill:#326DD9"></rect><rect x="248.03" y="-92.52" width="3.94" height="335.33" transform="translate(174.85 325.15) rotate(-90)" style="fill:#326DD9"></rect></g><g id="freepik--Character--inject-72"><polygon points="240.18 270.85 207.23 260.07 197.16 304.91 230.11 315.68 240.18 270.85" style="fill:#fff"></polygon><polygon points="205.34 259.46 207.23 260.07 197.16 304.91 186.22 301.33 205.34 259.46" style="fill:#263238"></polygon><path d="M229.75,267.44l-.52-.17a8.58,8.58,0,0,0-.06-5.73,5.42,5.42,0,0,0-8.31-2.72,8.58,8.58,0,0,0-3.44,4.59l-.52-.17a9.14,9.14,0,0,1,3.66-4.89,6,6,0,0,1,9.12,3A9.1,9.1,0,0,1,229.75,267.44Z" style="fill:#263238"></path><path d="M231.69,200.52c-1,1.84-2.08,3.91-3.05,5.91s-1.92,4.07-2.82,6.13-1.73,4.15-2.46,6.25-1.45,4.21-2.07,6.34a59.46,59.46,0,0,0-1.4,6.15,26,26,0,0,0,0,6,28.26,28.26,0,0,0,1.39,6.06c.36,1,.77,2,1.22,2.94.23.48.47,1,.73,1.42s.54.95.75,1.29l-3.06,2.86a22.16,22.16,0,0,1-2.65-2.91,22.74,22.74,0,0,1-2.12-3.2,28.31,28.31,0,0,1-3.75-15.06,51.54,51.54,0,0,1,1.21-7.56,93.49,93.49,0,0,1,4.47-13.87c.91-2.23,1.85-4.45,2.92-6.61s2.13-4.26,3.44-6.47Z" style="fill:#ff8b7b"></path><path d="M223.12,247.84l5.52,6.27-8.41.18s-2.65-4.6-.85-7.52Z" style="fill:#ff8b7b"></path><polygon points="229.04 261.04 221.99 260.81 220.23 254.29 228.64 254.11 229.04 261.04" style="fill:#ff8b7b"></polygon><path d="M226.84,189.43c-7.4.61-7,5.9-8.45,14.2,3.55,3.32,13.07,9.94,13.07,9.94S241.4,189,226.84,189.43Z" style="fill:#263238"></path><path d="M238.88,171.1c1,4.91,1.92,13.89-1.51,17.17a25,25,0,0,0,11.81,10c6.56-4.11,3.43-10,3.43-10-5.47-1.31-5.33-5.37-4.38-9.18Z" style="fill:#ff8b7b"></path><path d="M256.25,160.88c.12.66.56,1.13,1,1.05s.68-.67.56-1.32-.55-1.13-1-1.05S256.13,160.23,256.25,160.88Z" style="fill:#263238"></path><path d="M256.63,159.63l1.5-.74S257.54,160.27,256.63,159.63Z" style="fill:#263238"></path><path d="M256.67,162.36a17.72,17.72,0,0,0,3.09,3.77,2.91,2.91,0,0,1-2.27.86Z" style="fill:#ff5652"></path><path d="M253.8,157.68a.37.37,0,0,1-.29,0,.39.39,0,0,1-.16-.53,3.88,3.88,0,0,1,2.9-2.09.39.39,0,0,1,.42.36.38.38,0,0,1-.35.42,3.13,3.13,0,0,0-2.28,1.68A.35.35,0,0,1,253.8,157.68Z" style="fill:#263238"></path><path d="M233.7,162.11c1.93,8,2.57,11.39,7.38,14.8,7.22,5.14,16.6,1,17.09-7.35.45-7.55-2.77-19.32-11.23-21.13A11.19,11.19,0,0,0,233.7,162.11Z" style="fill:#ff8b7b"></path><path d="M262.63,240.26s-2.84,62.24-3.38,87.44c-.56,26.21-.81,87.43-.81,87.43h-4.58s-12.59-50.88-9.47-87.43c-4.73-28.07-7.92-87.44-7.92-87.44Z" style="fill:#ff8b7b"></path><path d="M253.86,240.26s-7.54,65.17-14,89.54c-6.77,25.6-24.2,73.43-24.72,75.26l-4.58-2.6s5.81-54.14,14.87-76.87c0-28.46,5-85.33,5-85.33Z" style="fill:#ff8b7b"></path><path d="M248.23,166.21c-1.83,5.36-7.42,13.73-15.24,5.4-5.94-6.34-6.66-17.35-2.39-21.41s13.82-4.76,17.45.69S250.35,160,248.23,166.21Z" style="fill:#263238"></path><path d="M235.81,149.81c1-2.36,9.8-7.77,15.47-3.67s9.8,3.32,10.87,1.51c-.21,4.59-10.84,9.41-15.36,7.78S233.19,156.07,235.81,149.81Z" style="fill:#263238"></path><path d="M237.49,151.9c-1.48,3.13-4.61,5.38-10.05,3.49-4.54-1.57-5.49-7.53-3.18-9.89s6.16-4.61,10.29-2C237.46,145.39,239.09,148.54,237.49,151.9Z" style="fill:#326DD9"></path><path d="M235.79,146.62c-.6,4.57-4.52,11.47-12.74,9.75-6.26-1.32-8.13-7.34-7.63-11.72.57-5.1,6.91-9.07,13.21-7.42C233.09,138.4,236.43,141.72,235.79,146.62Z" style="fill:#263238"></path><path d="M245.87,164.65a6,6,0,0,0,2.29,4c1.67,1.27,3.28,0,3.46-2,.16-1.79-.52-4.6-2.51-5.09A2.69,2.69,0,0,0,245.87,164.65Z" style="fill:#ff8b7b"></path><path d="M249.85,169.85a1.43,1.43,0,1,1,1-1.55A1.34,1.34,0,0,1,249.85,169.85Z" style="fill:#fff"></path><path d="M240,188.68a2.18,2.18,0,1,1-2.18-2.18A2.17,2.17,0,0,1,240,188.68Z" style="fill:#fff"></path><path d="M242.47,188a2.18,2.18,0,1,1-2.18-2.18A2.18,2.18,0,0,1,242.47,188Z" style="fill:#fff"></path><circle cx="243.16" cy="187.8" r="2.18" style="fill:#fff"></circle><circle cx="246.59" cy="187.99" r="2.18" style="fill:#fff"></circle><path d="M251.85,188.35a2.18,2.18,0,1,1-2.18-2.18A2.18,2.18,0,0,1,251.85,188.35Z" style="fill:#fff"></path><circle cx="252.84" cy="189.07" r="2.18" style="fill:#fff"></circle><path d="M267.55,195.91a6.59,6.59,0,0,0-5.48-6.36c-2.68-.45-6.18-1-9.46-1.28a104.65,104.65,0,0,0-15.24,0,94.67,94.67,0,0,0-12,1.41,1.62,1.62,0,0,0-1.27,2c6.13,26.74,5.48,35.23,4.92,48.62-13.83,20.22-.26,48.28-10.3,98.11l42.81,6.5c2.32-40.39,2.5-71,1.06-104.61C266.84,214.37,267.68,201.91,267.55,195.91Z" style="fill:#263238"></path><path d="M266.85,198c0,1.91,0,4,0,6.06s.17,4.09.32,6.14a105.88,105.88,0,0,0,1.52,12.12c.38,2,.82,4,1.32,5.84.26.91.52,1.94.77,2.56a10.64,10.64,0,0,0,1,2,3.72,3.72,0,0,0,.95,1.05,2,2,0,0,0,1.34.31,10.14,10.14,0,0,0,4.49-1.9l3.1,2.82a15.49,15.49,0,0,1-2.58,2.77,11.4,11.4,0,0,1-3.56,2,8.33,8.33,0,0,1-4.94.14,9.44,9.44,0,0,1-4.16-2.62,15.73,15.73,0,0,1-2.41-3.4,21.4,21.4,0,0,1-1.36-3.44c-.74-2.19-1.31-4.31-1.82-6.49a94.93,94.93,0,0,1-2-13.09c-.22-2.19-.34-4.38-.41-6.58s-.09-4.34,0-6.68Z" style="fill:#ff8b7b"></path><path d="M277.58,233.25l4.07-7.29,3,7.86s-3.45,4-6.8,3.31Z" style="fill:#ff8b7b"></path><polygon points="288.05 223.27 290.18 229.99 284.62 233.82 281.65 225.96 288.05 223.27" style="fill:#ff8b7b"></polygon><path d="M260.35,412.42h-8a.63.63,0,0,0-.62.5l-.06,6.53a1.07,1.07,0,0,0,1.06,1.31c2.89-.05,5.68-.22,9.32-.22,4.25,0,1.89.23,6.88.23,3,0,3.87-3.13,2.59-3.32a17.83,17.83,0,0,1-9.7-4C261.29,413.08,261,412.42,260.35,412.42Z" style="fill:#263238"></path><path d="M217.23,403.53l-6.44-4.79a.63.63,0,0,0-.8,0l-5.06,4.37a1.07,1.07,0,0,0,.06,1.68c2.35,1.69,5.81,4.05,8.73,6.22,3.41,2.54,1.38,1.32,5.38,4.3,2.41,1.8,5-.2,4.06-1.12a17.86,17.86,0,0,1-5.39-9C217.58,404.61,217.74,403.91,217.23,403.53Z" style="fill:#263238"></path><path d="M262.58,189.66c7.28,1.5,7,6.25,7.28,14.67-4,2.79-14.33,8-14.33,8S248.18,187.5,262.58,189.66Z" style="fill:#263238"></path></g></svg>