<?xml version="1.0" encoding="UTF-8" standalone="no"?>
<svg
   xmlns:dc="http://purl.org/dc/elements/1.1/"
   xmlns:cc="http://creativecommons.org/ns#"
   xmlns:rdf="http://www.w3.org/1999/02/22-rdf-syntax-ns#"
   xmlns:svg="http://www.w3.org/2000/svg"
   xmlns="http://www.w3.org/2000/svg"
   xmlns:sodipodi="http://sodipodi.sourceforge.net/DTD/sodipodi-0.dtd"
   xmlns:inkscape="http://www.inkscape.org/namespaces/inkscape"
   version="1.1"
   id="svg2"
   xml:space="preserve"
   width="1011.68"
   height="94.386665"
   viewBox="0 0 1011.68 94.386665"
   sodipodi:docname="myprotein-logo.eps"><metadata
     id="metadata8"><rdf:RDF><cc:Work
         rdf:about=""><dc:format>image/svg+xml</dc:format><dc:type
           rdf:resource="http://purl.org/dc/dcmitype/StillImage" /></cc:Work></rdf:RDF></metadata><defs
     id="defs6" /><sodipodi:namedview
     pagecolor="#ffffff"
     bordercolor="#666666"
     borderopacity="1"
     objecttolerance="10"
     gridtolerance="10"
     guidetolerance="10"
     inkscape:pageopacity="0"
     inkscape:pageshadow="2"
     inkscape:window-width="640"
     inkscape:window-height="480"
     id="namedview4" /><g
     id="g10"
     inkscape:groupmode="layer"
     inkscape:label="ink_ext_XXXXXX"
     transform="matrix(1.3333333,0,0,-1.3333333,0,94.386667)"><g
       id="g12"
       transform="scale(0.1)"><path
         d="m 2628.02,467.402 c 0,-33.808 -5.23,-64.859 -15.67,-93.129 -10.47,-28.277 -25.69,-52.418 -45.65,-72.371 -19.98,-19.988 -44.41,-35.515 -73.3,-46.558 -28.9,-11.067 -61.77,-16.614 -98.65,-16.614 h -118.36 c -4.39,0 -7.96,-3.554 -7.96,-7.937 v -210 c 0,-4.3867 -3.56,-7.9492 -7.95,-7.9492 h -133.46 c -4.4,0 -7.96,3.5625 -7.96,7.9492 v 666.398 c 0,4.391 3.56,7.961 7.96,7.961 h 141.41 128.16 c 36.26,0 68.7,-5.242 97.28,-15.691 28.57,-10.449 52.7,-25.668 72.37,-45.637 19.67,-19.98 34.88,-43.949 45.64,-71.91 10.76,-27.992 16.14,-59.484 16.14,-94.512 m -157.67,2.77 c 0,24.57 -8.29,46.238 -24.9,64.988 -16.59,18.75 -42.73,28.133 -78.37,28.133 h -90.69 c -4.39,0 -7.96,-3.563 -7.96,-7.961 V 375.77 c 0,-4.387 3.57,-7.957 7.96,-7.957 h 90.69 c 35.64,0 61.78,9.675 78.37,29.046 16.61,19.364 24.9,43.793 24.9,73.313"
         style="fill:#576168;fill-opacity:1;fill-rule:nonzero;stroke:none"
         id="path14" /><path
         d="m 3476.94,12.832 h -150.25 c -3.22,0 -6.11,1.9414 -7.35,4.9024 l -96.41,230.8676 c -1.23,2.961 -4.13,4.875 -7.34,4.875 h -99.24 c -4.4,0 -7.95,-3.555 -7.95,-7.95 V 20.793 c 0,-4.3867 -3.58,-7.961 -7.96,-7.961 h -133.46 c -4.4,0 -7.96,3.5743 -7.96,7.961 v 666.391 c 0,4.398 3.56,7.957 7.96,7.957 h 255.74 c 87.28,-0.621 152.44,-19.528 195.47,-56.707 43.02,-37.204 64.54,-92.063 64.54,-164.582 0,-46.707 -9.37,-86.668 -28.12,-119.86 -17.58,-31.101 -43.08,-55.183 -76.54,-72.254 -3.81,-1.933 -5.52,-6.445 -3.78,-10.351 L 3484.22,24.0313 c 2.32,-5.2618 -1.52,-11.1993 -7.28,-11.1993 m -151.87,461.02 c 0,26.421 -8.16,47.941 -24.44,64.543 -16.29,16.601 -42.26,24.886 -77.91,24.886 h -106.37 c -4.4,0 -7.95,-3.558 -7.95,-7.961 V 390.531 c 0,-4.398 3.55,-7.957 7.95,-7.957 h 105.45 c 35.63,0 61.77,8.301 78.37,24.887 16.61,16.602 24.9,38.73 24.9,66.391"
         style="fill:#576168;fill-opacity:1;fill-rule:nonzero;stroke:none"
         id="path16" /><path
         d="m 5206.32,553.148 h -169.4 c -4.4,0 -7.96,-3.558 -7.96,-7.957 V 20.8008 c 0,-4.3945 -3.57,-7.957 -7.96,-7.957 h -133.46 c -4.39,0 -7.96,3.5625 -7.96,7.957 V 545.191 c 0,4.399 -3.56,7.957 -7.96,7.957 h -170.33 c -4.39,0 -7.96,3.563 -7.96,7.961 v 126.079 c 0,4.394 3.57,7.964 7.96,7.964 h 505.03 c 4.39,0 7.96,-3.57 7.96,-7.964 V 561.109 c 0,-4.398 -3.57,-7.961 -7.96,-7.961"
         style="fill:#576168;fill-opacity:1;fill-rule:nonzero;stroke:none"
         id="path18" /><path
         d="M 5706.64,546.113 V 432.02 c 0,-4.399 3.57,-7.957 7.96,-7.957 h 235.8 c 4.39,0 7.96,-3.571 7.96,-7.961 V 300.176 c 0,-4.395 -3.57,-7.969 -7.96,-7.969 h -235.8 c -4.39,0 -7.96,-3.566 -7.96,-7.949 v -123.32 c 0,-4.395 3.57,-7.95 7.96,-7.95 h 268.08 c 4.38,0 7.95,-3.554 7.95,-7.949 V 20.8008 c 0,-4.3945 -3.57,-7.9688 -7.95,-7.9688 h -417.45 c -4.39,0 -7.95,3.5743 -7.95,7.9688 V 687.184 c 0,4.398 3.56,7.961 7.95,7.961 h 417.45 c 4.38,0 7.95,-3.563 7.95,-7.961 V 562.035 c 0,-4.398 -3.57,-7.965 -7.95,-7.965 H 5714.6 c -4.39,0 -7.96,-3.566 -7.96,-7.957"
         style="fill:#576168;fill-opacity:1;fill-rule:nonzero;stroke:none"
         id="path20" /><path
         d="M 6410.23,20.8008 V 687.188 c 0,4.398 3.56,7.957 7.95,7.957 h 133.47 c 4.39,0 7.95,-3.559 7.95,-7.957 V 20.8008 c 0,-4.3945 -3.56,-7.9688 -7.95,-7.9688 h -133.47 c -4.39,0 -7.95,3.5743 -7.95,7.9688"
         style="fill:#576168;fill-opacity:1;fill-rule:nonzero;stroke:none"
         id="path22" /><path
         d="M 7587.57,687.188 V 20.8008 c 0,-4.4063 -3.56,-7.9688 -7.96,-7.9688 h -149.4 c -4.37,0 -8.43,2.2578 -10.76,5.9453 L 7158.23,432.051 c -1.7,2.683 -5.87,1.488 -5.87,-1.703 V 20.8008 c 0,-4.4063 -3.56,-7.9688 -7.95,-7.9688 H 7012.8 c -4.39,0 -7.95,3.5625 -7.95,7.9688 V 687.188 c 0,4.39 3.56,7.957 7.95,7.957 h 149.38 c 4.37,0 8.45,-2.247 10.77,-5.938 l 261.21,-414.168 c 1.7,-2.695 5.88,-1.504 5.88,1.699 v 410.45 c 0,4.39 3.56,7.957 7.96,7.957 h 131.61 c 4.4,0 7.96,-3.567 7.96,-7.957"
         style="fill:#576168;fill-opacity:1;fill-rule:nonzero;stroke:none"
         id="path24" /><path
         d="m 4104.19,707.91 c 190.62,0 352.51,-138.902 352.51,-354.433 C 4456.7,138.906 4294.81,0 4104.19,0 3912.6,0 3750.71,138.906 3750.71,353.477 c 0,215.531 161.89,354.433 353.48,354.433 m 0,-558.476 c 93.87,0 195.41,63.222 195.41,204.996 0,141.781 -101.54,205.968 -195.41,205.968 -94.83,0 -196.39,-64.187 -196.39,-205.968 0,-141.774 101.56,-204.996 196.39,-204.996"
         style="fill:#576168;fill-opacity:1;fill-rule:nonzero;stroke:none"
         id="path26" /><path
         d="m 1363.92,695.59 c 4.68,0 10.29,-3.379 12.47,-7.52 l 135.06,-256.16 c 2.19,-4.137 5.76,-4.137 7.93,0 l 135.05,256.16 c 2.19,4.141 7.8,7.52 12.46,7.52 h 145.36 c 4.68,0 6.65,-3.34 4.38,-7.43 l -224.2,-403.023 c -2.27,-4.082 -4.14,-11.25 -4.14,-15.938 V 21.4648 c 0,-4.6679 -3.82,-8.5039 -8.5,-8.5039 h -133.36 c -4.67,0 -8.51,3.836 -8.51,8.5039 V 269.199 c 0,4.688 -1.85,11.856 -4.14,15.938 L 1208.69,688.16 c -2.28,4.09 -0.32,7.43 4.36,7.43 h 150.87"
         style="fill:#576168;fill-opacity:1;fill-rule:nonzero;stroke:none"
         id="path28" /><path
         d="M 531.273,12.8516 H 371.121 c -3.656,0 -5.984,3.9257 -4.234,7.1484 l 365.894,670.105 c 1.707,3.102 4.953,5.032 8.485,5.032 h 160.152 c 3.656,0 5.988,-3.93 4.234,-7.141 L 539.758,17.8711 c -1.699,-3.1055 -4.953,-5.0195 -8.485,-5.0195"
         style="fill:#576168;fill-opacity:1;fill-rule:nonzero;stroke:none"
         id="path30" /><path
         d="M 5.66797,695.156 H 168.082 c 2.586,0 4.981,-1.422 6.219,-3.691 l 231.836,-424.59 c 1.39,-2.539 1.39,-5.605 0,-8.145 L 326.43,112.754 c -2.149,-3.938 -7.813,-3.938 -9.95,0 L 148.438,420.488 c -1.399,2.578 -5.317,1.567 -5.317,-1.363 V 18.5156 c 0,-3.125 -2.539,-5.664 -5.672,-5.664 H 5.66797 C 2.53906,12.8516 0,15.3906 0,18.5156 V 689.488 c 0,3.129 2.53906,5.668 5.66797,5.668"
         style="fill:#576168;fill-opacity:1;fill-rule:nonzero;stroke:none"
         id="path32" /><path
         d="M 766.379,260.059 900.93,506.473 c 1.41,2.582 5.32,1.582 5.32,-1.36 V 18.5234 c 0,-3.1328 -2.543,-5.6796 -5.676,-5.6796 H 768.578 c -3.129,0 -5.668,2.5468 -5.668,5.6796 V 246.473 c 0,4.738 1.188,9.406 3.469,13.586"
         style="fill:#576168;fill-opacity:1;fill-rule:nonzero;stroke:none"
         id="path34" /></g></g></svg>
