<svg xmlns="http://www.w3.org/2000/svg" viewBox="0 0 750 500"><g id="freepik--background-simple--inject-71"><path d="M646.56,145c-19.45-16.15-42.77-28.18-68.67-37.32-6.68-2.36-13.42-4.54-20.18-6.61C522.18,90.19,485.4,83.63,448.48,79.82,304.4,65,270,131,234.68,160.69s-65.07,34.4-131.07,50.2S13.45,309.42,48.77,375.42s86.45,81.8,156.17,79c53.8-2.15,101.22-33.69,154.59-35.44,99.66-3.28,259.69,101.29,328.79-20.41,24.4-43,23.8-97.73,16.09-145.12C697.78,212.68,678.84,171.77,646.56,145Z" style="fill:#326DD9"></path><path d="M646.56,145c-19.45-16.15-42.77-28.18-68.67-37.32-6.68-2.36-13.42-4.54-20.18-6.61C522.18,90.19,485.4,83.63,448.48,79.82,304.4,65,270,131,234.68,160.69s-65.07,34.4-131.07,50.2S13.45,309.42,48.77,375.42s86.45,81.8,156.17,79c53.8-2.15,101.22-33.69,154.59-35.44,99.66-3.28,259.69,101.29,328.79-20.41,24.4-43,23.8-97.73,16.09-145.12C697.78,212.68,678.84,171.77,646.56,145Z" style="fill:#fff;opacity:0.7000000000000001"></path></g><g id="freepik--Plants--inject-71"><path d="M62.77,340.2c2.59,1.13,8.91,1,8.91,1s-1.35-4.14-1.47-4.39c-1.39-2.9-5.78-7.69-9.35-7.21a4.26,4.26,0,0,0-3.42,5.34C58,337.4,60.57,339.24,62.77,340.2Z" style="fill:#326DD9"></path><path d="M65,358.51c2.68.39,8.32-1.24,8.77-1.38a75.36,75.36,0,0,0,3.42,9.47c.77,1.8,1.61,3.58,2.47,5.36-.51-.75-1-1.42-1.05-1.51C76.46,368,71,364.56,67.65,366A4.27,4.27,0,0,0,65.77,372c1.22,2.23,4.15,3.33,6.53,3.67s7.25-.94,8.52-1.3c.34.68.67,1.36,1,2,1.63,3.26,3.28,6.5,4.79,9.72.54,1.14,1,2.28,1.51,3.42-.46-.67-.85-1.23-.92-1.31-2.1-2.43-7.59-5.9-10.91-4.49a4.27,4.27,0,0,0-1.89,6.06c1.23,2.22,4.16,3.32,6.54,3.67s6.77-.82,8.29-1.24c.47,1.18.93,2.36,1.33,3.52.26.8.56,1.56.77,2.38l.66,2.39c.37,1.54.76,3.13,1.09,4.64.23,1.05.43,2.05.64,3.06-.52-1.14-1.58-3.34-1.7-3.52-1.71-2.72-6.61-7-10.1-6.09a4.27,4.27,0,0,0-2.79,5.7c.88,2.39,3.61,3.92,5.9,4.63,2.53.77,8.13.06,8.83,0,.34,1.67.65,3.3.91,4.85.56,3.13,1,6,1.32,8.4h2.35c-.4-2.53-.91-5.5-1.57-8.8-.33-1.7-.72-3.51-1.14-5.36a45.34,45.34,0,0,0,4.92-2.32c1.85,2,6.57,4.34,7.18,4.63-.64,1.58-1.28,3.11-1.91,4.55-1.19,2.73-2.32,5.18-3.34,7.3h2.53c.87-1.93,1.8-4.09,2.77-6.47.66-1.6,1.34-3.33,2-5.11.68.15,6.22,1.27,8.8.69,2.35-.53,5.18-1.86,6.23-4.17a4.26,4.26,0,0,0-2.35-5.89c-3.41-1.15-8.62,2.73-10.53,5.32-.11.15-1.15,1.94-1.79,3.08.27-.73.55-1.43.82-2.18.54-1.49,1-3,1.58-4.6.24-.78.48-1.58.72-2.38s.42-1.66.64-2.49c.46-2,.84-4,1.17-6,1.3.47,6,2.09,8.36,1.92s5.4-1.05,6.78-3.18a4.26,4.26,0,0,0-1.43-6.18c-3.2-1.65-8.94,1.4-11.21,3.66-.15.15-1.6,2-2.38,3,.19-1.22.39-2.43.54-3.67.45-3.57.78-7.2,1.14-10.81.1-1.11.22-2.22.34-3.32.46.17,5.94,2.21,8.64,2,2.39-.16,5.4-1,6.79-3.17a4.27,4.27,0,0,0-1.44-6.18c-3.2-1.65-8.93,1.39-11.21,3.66-.17.17-2.26,2.78-2.76,3.47.26-2.43.54-4.86.91-7.23a76.6,76.6,0,0,1,2.07-9.51c.22.08,5.93,2.24,8.69,2,2.4-.17,5.4-1.05,6.79-3.18a4.27,4.27,0,0,0-1.43-6.18c-3.2-1.65-8.94,1.4-11.22,3.67-.18.17-2.42,3-2.79,3.52,0-.18.09-.37.14-.55a54.25,54.25,0,0,1,3.77-9c.82-1.6,1.69-3.09,2.57-4.52,1,.51,5.72,2.79,8.23,2.9s5.48-.45,7.09-2.42a4.26,4.26,0,0,0-.74-6.3c-3-2-9,.41-11.55,2.41-.14.11-1.41,1.37-2.32,2.3.41-.64.82-1.3,1.22-1.9,1.51-2.27,3-4.26,4.39-6,.78-1,1.5-1.87,2.19-2.68,1.27,0,6.36-.18,8.59-1.22s4.66-2.93,5.18-5.42a4.25,4.25,0,0,0-3.56-5.24c-3.58-.39-7.83,4.52-9.14,7.46-.11.25-1.43,4.42-1.36,4.42h.08c-.68.77-1.4,1.6-2.16,2.53-1.41,1.72-3,3.68-4.53,5.92a75.51,75.51,0,0,0-4.7,7.48,55.54,55.54,0,0,0-4,9l0,.11c0-1.05,0-4-.06-4.23-.41-3.19-3.09-9.1-6.63-9.76a4.26,4.26,0,0,0-4.91,4c-.21,2.53,1.63,5.07,3.42,6.67,2,1.8,7.63,3.55,8.07,3.69a75.48,75.48,0,0,0-2.37,9.78c-.34,1.93-.63,3.88-.89,5.84,0-.91,0-1.73,0-1.84-.41-3.19-3.08-9.11-6.62-9.77a4.27,4.27,0,0,0-4.92,4c-.21,2.53,1.63,5.07,3.42,6.67s6.57,3.21,7.83,3.61c-.09.76-.19,1.51-.28,2.26-.43,3.61-.85,7.22-1.36,10.75-.18,1.24-.41,2.46-.63,3.68,0-.81,0-1.5,0-1.6-.41-3.19-3.09-9.11-6.63-9.76a4.25,4.25,0,0,0-4.91,4c-.21,2.53,1.63,5.07,3.42,6.67s6.1,3.05,7.6,3.53c-.26,1.24-.52,2.49-.83,3.68-.23.81-.4,1.6-.68,2.4s-.51,1.59-.76,2.37c-.54,1.49-1.09,3-1.65,4.46-.39,1-.77,2-1.16,2.91.2-1.24.53-3.66.53-3.87a16.53,16.53,0,0,0-2.22-8.05,5,5,0,0,0-.06-.94,4.26,4.26,0,0,0-5.21-3.62c-3.48.93-5.68,7-5.85,10.25,0,.19.11,2.26.21,3.56-.17-.76-.33-1.49-.52-2.27-.37-1.54-.78-3.07-1.21-4.71-.24-.78-.48-1.58-.72-2.38s-.56-1.62-.84-2.43c-.69-1.88-1.48-3.76-2.32-5.63,1.35-.32,6.12-1.54,8-3s3.93-3.86,3.91-6.4a4.26,4.26,0,0,0-4.6-4.36c-3.58.39-6.69,6.09-7.34,9.24,0,.19-.25,2.51-.34,3.78-.52-1.12-1-2.24-1.57-3.36-1.6-3.22-3.32-6.43-5-9.64l-1.54-3c.48-.11,6.18-1.43,8.32-3.08,1.91-1.46,3.93-3.85,3.91-6.39a4.27,4.27,0,0,0-4.6-4.37c-3.58.39-6.69,6.1-7.34,9.25,0,.23-.35,3.56-.38,4.41-1.13-2.17-2.23-4.34-3.23-6.53a74.77,74.77,0,0,1-3.52-9.08c.23-.05,6.18-1.4,8.37-3.09,1.91-1.46,3.93-3.85,3.91-6.39a4.26,4.26,0,0,0-4.6-4.36c-3.58.38-6.69,6.09-7.34,9.24,0,.24-.37,3.82-.38,4.48l-.19-.54a55.09,55.09,0,0,1-1.82-9.59c-.2-1.79-.29-3.51-.34-5.18,1.13-.14,6.31-.83,8.45-2.13s4.33-3.4,4.59-5.93a4.27,4.27,0,0,0-4.1-4.84c-3.6,0-7.31,5.32-8.3,8.38-.06.17-.42,1.92-.66,3.2,0-.76,0-1.54,0-2.26,0-2.73.18-5.22.35-7.43.11-1.25.23-2.38.35-3.44,1-.72,5.21-3.66,6.49-5.76s2.27-5,1.34-7.37a4.26,4.26,0,0,0-5.87-2.41c-3.2,1.65-4,8.09-3.51,11.26,0,.28,1.26,4.48,1.31,4.44l.06,0c-.14,1-.28,2.11-.4,3.3-.22,2.21-.45,4.7-.51,7.44a72.14,72.14,0,0,0,.21,8.83,56.12,56.12,0,0,0,1.63,9.74s0,.08,0,.11c-.57-.89-2.24-3.32-2.38-3.49-2.11-2.44-7.6-5.9-10.92-4.49a4.25,4.25,0,0,0-1.89,6.05C59.65,357.06,62.58,358.16,65,358.51Z" style="fill:#326DD9"></path><path d="M126.71,341.59c.05,0,1.15-4.2,1.18-4.47.45-3.19-.57-9.6-3.81-11.17a4.26,4.26,0,0,0-5.8,2.57c-.87,2.39.23,5.32,1.54,7.33C121.35,338.22,126.7,341.59,126.71,341.59Z" style="fill:#326DD9"></path><path d="M166.38,368.28c1.7.74,5.85.65,5.86.65s-.9-2.72-1-2.89c-.91-1.91-3.79-5.06-6.14-4.74a2.8,2.8,0,0,0-2.25,3.51C163.26,366.44,164.93,367.65,166.38,368.28Z" style="fill:#326DD9"></path><path d="M167.81,380.32c1.76.25,5.47-.82,5.77-.91a48.1,48.1,0,0,0,2.25,6.23c.51,1.18,1.06,2.35,1.63,3.52-.34-.5-.65-.94-.7-1-1.38-1.6-5-3.88-7.17-2.95a2.81,2.81,0,0,0-1.25,4c.81,1.46,2.74,2.19,4.3,2.41s4.77-.62,5.6-.85c.23.44.44.89.67,1.34,1.07,2.13,2.15,4.26,3.15,6.38.35.75.67,1.5,1,2.25l-.6-.86c-1.39-1.6-5-3.88-7.18-2.95a2.8,2.8,0,0,0-1.24,4c.81,1.47,2.73,2.19,4.3,2.42s4.45-.54,5.45-.82c.31.78.61,1.55.88,2.32.16.53.36,1,.5,1.56s.29,1.05.44,1.57c.24,1,.5,2.06.71,3.05.15.69.28,1.35.42,2-.34-.75-1-2.2-1.11-2.32-1.13-1.79-4.35-4.58-6.65-4a2.81,2.81,0,0,0-1.83,3.75c.58,1.57,2.37,2.57,3.88,3s5.34,0,5.8,0c.22,1.1.43,2.17.6,3.19.37,2.06.65,3.92.87,5.52h1.54c-.26-1.66-.6-3.62-1-5.78-.22-1.12-.47-2.31-.75-3.53a31.43,31.43,0,0,0,3.24-1.52,20.37,20.37,0,0,0,4.72,3c-.42,1-.84,2.05-1.26,3-.78,1.8-1.52,3.41-2.19,4.8h1.66c.57-1.27,1.19-2.69,1.83-4.25.43-1.06.87-2.19,1.31-3.36.45.09,4.09.83,5.79.45,1.54-.35,3.41-1.22,4.1-2.74a2.81,2.81,0,0,0-1.55-3.88c-2.24-.75-5.67,1.8-6.92,3.5-.08.1-.76,1.28-1.18,2,.18-.48.36-.94.54-1.44.36-1,.68-2,1-3,.16-.51.31-1,.47-1.56s.28-1.09.42-1.64c.31-1.28.55-2.6.77-3.93.86.32,3.91,1.38,5.5,1.27s3.55-.69,4.46-2.09a2.82,2.82,0,0,0-.94-4.07c-2.11-1.08-5.88.92-7.38,2.41-.09.09-1,1.29-1.56,1.95.13-.8.26-1.6.36-2.41.29-2.35.51-4.73.74-7.11.07-.73.15-1.46.23-2.18.3.11,3.91,1.45,5.68,1.33,1.57-.11,3.55-.69,4.46-2.09a2.79,2.79,0,0,0-.94-4.06c-2.1-1.09-5.88.91-7.37,2.4-.12.12-1.49,1.83-1.82,2.28.17-1.59.36-3.19.6-4.75a49,49,0,0,1,1.36-6.25c.15,0,3.9,1.47,5.72,1.34,1.57-.11,3.55-.69,4.46-2.09a2.81,2.81,0,0,0-.94-4.06c-2.11-1.09-5.88.91-7.38,2.41-.12.11-1.59,2-1.83,2.31l.09-.36a36,36,0,0,1,2.48-5.92c.54-1.05,1.11-2,1.69-3,.67.34,3.76,1.84,5.41,1.91s3.6-.3,4.66-1.59a2.79,2.79,0,0,0-.49-4.14c-2-1.31-5.94.26-7.59,1.58-.09.07-.92.9-1.52,1.51.27-.42.53-.85.8-1.25,1-1.49,2-2.8,2.88-3.95.52-.64,1-1.22,1.45-1.76.83,0,4.18-.11,5.64-.8s3.07-1.92,3.41-3.56a2.8,2.8,0,0,0-2.34-3.45c-2.36-.25-5.15,3-6,4.91-.08.16-.94,2.91-.9,2.91H214c-.44.5-.91,1.05-1.42,1.66-.92,1.13-1.95,2.42-3,3.89a49.23,49.23,0,0,0-3.09,4.92,36.18,36.18,0,0,0-2.64,5.94s0,.05,0,.07c0-.69,0-2.63,0-2.78-.27-2.1-2-6-4.36-6.42a2.81,2.81,0,0,0-3.23,2.64c-.13,1.66,1.07,3.33,2.25,4.38,1.33,1.19,5,2.34,5.31,2.43a49.9,49.9,0,0,0-1.56,6.43c-.22,1.27-.41,2.55-.58,3.84,0-.6,0-1.14,0-1.21-.27-2.1-2-6-4.35-6.42A2.79,2.79,0,0,0,194,384c-.14,1.67,1.07,3.34,2.24,4.39s4.32,2.11,5.15,2.37l-.18,1.49c-.29,2.37-.56,4.75-.9,7.06-.12.82-.27,1.62-.41,2.42,0-.53,0-1,0-1.05-.27-2.09-2-6-4.36-6.41a2.8,2.8,0,0,0-3.23,2.63c-.13,1.67,1.07,3.33,2.25,4.39s4,2,5,2.32c-.17.82-.34,1.64-.55,2.42-.15.53-.26,1-.44,1.58s-.34,1-.5,1.56c-.36,1-.72,2-1.09,2.93-.25.66-.51,1.28-.76,1.91.13-.81.35-2.41.35-2.54a10.9,10.9,0,0,0-1.46-5.29,3.18,3.18,0,0,0,0-.62,2.8,2.8,0,0,0-3.42-2.38c-2.29.61-3.74,4.62-3.85,6.74,0,.12.07,1.48.14,2.34-.12-.5-.22-1-.35-1.5-.24-1-.51-2-.79-3.09l-.48-1.57c-.14-.52-.37-1.06-.55-1.6-.45-1.24-1-2.47-1.52-3.7.89-.21,4-1,5.28-2s2.58-2.54,2.57-4.21a2.8,2.8,0,0,0-3-2.87c-2.35.26-4.4,4-4.82,6.08,0,.13-.17,1.65-.23,2.48-.34-.73-.67-1.47-1-2.2-1-2.12-2.19-4.23-3.3-6.35-.35-.64-.68-1.29-1-1.94.32-.07,4.06-.94,5.47-2s2.59-2.54,2.57-4.21a2.81,2.81,0,0,0-3-2.87c-2.36.26-4.4,4-4.83,6.08,0,.16-.23,2.34-.25,2.9-.74-1.42-1.47-2.85-2.12-4.29a48.32,48.32,0,0,1-2.32-6c.15,0,4.07-.92,5.51-2,1.25-1,2.58-2.53,2.57-4.21a2.8,2.8,0,0,0-3-2.86c-2.35.25-4.39,4-4.82,6.07,0,.16-.25,2.52-.25,2.95L174,379a35.71,35.71,0,0,1-1.19-6.3c-.14-1.17-.2-2.31-.23-3.41.74-.09,4.15-.54,5.56-1.4s2.84-2.23,3-3.89a2.8,2.8,0,0,0-2.69-3.19c-2.37,0-4.81,3.5-5.46,5.51,0,.11-.27,1.26-.43,2.1,0-.49,0-1,0-1.48,0-1.79.12-3.43.23-4.88.07-.83.15-1.57.23-2.27.69-.47,3.43-2.4,4.27-3.78s1.49-3.3.88-4.85a2.8,2.8,0,0,0-3.86-1.59c-2.1,1.09-2.65,5.32-2.31,7.41,0,.18.83,2.94.87,2.92l0,0c-.1.67-.19,1.39-.27,2.17-.15,1.45-.29,3.09-.34,4.89a52.67,52.67,0,0,0,.14,5.81,35.68,35.68,0,0,0,1.08,6.4.24.24,0,0,0,0,.08c-.37-.59-1.47-2.19-1.57-2.3-1.38-1.6-5-3.88-7.17-2.95a2.8,2.8,0,0,0-1.24,4C164.32,379.36,166.25,380.09,167.81,380.32Z" style="fill:#326DD9"></path><path d="M208.41,369.19s.76-2.76.79-2.94c.29-2.09-.38-6.31-2.51-7.34a2.81,2.81,0,0,0-3.82,1.69c-.57,1.57.16,3.49,1,4.82C204.89,367,208.41,369.19,208.41,369.19Z" style="fill:#326DD9"></path><path d="M323.44,372c1.59.69,5.46.61,5.46.61s-.83-2.54-.9-2.69c-.85-1.78-3.54-4.71-5.73-4.42a2.61,2.61,0,0,0-2.09,3.27C320.54,370.26,322.1,371.38,323.44,372Z" style="fill:#326DD9"></path><path d="M324.78,383.19c1.64.23,5.1-.77,5.37-.85a45.43,45.43,0,0,0,2.1,5.8c.47,1.1,1,2.19,1.51,3.28-.31-.46-.6-.87-.64-.92-1.29-1.49-4.66-3.61-6.69-2.75a2.61,2.61,0,0,0-1.15,3.71c.75,1.36,2.54,2,4,2.25a17.52,17.52,0,0,0,5.22-.8l.62,1.25c1,2,2,4,2.93,5.95.33.7.63,1.39.93,2.09-.29-.41-.52-.75-.57-.8-1.29-1.49-4.65-3.61-6.68-2.75a2.62,2.62,0,0,0-1.16,3.71c.75,1.36,2.55,2,4,2.25a16.46,16.46,0,0,0,5.08-.76c.29.72.58,1.44.82,2.16.16.49.34.95.47,1.45s.27,1,.41,1.47c.22.94.46,1.91.66,2.84.14.64.27,1.25.39,1.87-.32-.69-1-2-1-2.15-1.05-1.67-4.06-4.27-6.19-3.73a2.61,2.61,0,0,0-1.71,3.49c.54,1.46,2.21,2.4,3.61,2.83,1.55.48,5,0,5.41,0,.21,1,.4,2,.56,3,.34,1.92.6,3.66.8,5.15h1.44c-.24-1.55-.55-3.37-1-5.39-.2-1-.44-2.15-.7-3.28a29,29,0,0,0,3-1.42,19.44,19.44,0,0,0,4.4,2.84c-.4,1-.79,1.9-1.17,2.78-.73,1.67-1.42,3.17-2.05,4.47h1.55c.53-1.18,1.1-2.51,1.7-4,.4-1,.82-2,1.23-3.13.41.09,3.81.78,5.39.42s3.17-1.14,3.81-2.55a2.61,2.61,0,0,0-1.44-3.61c-2.09-.7-5.28,1.67-6.45,3.26-.07.09-.7,1.19-1.09,1.89l.5-1.34c.33-.91.64-1.83,1-2.81l.44-1.46c.15-.49.26-1,.39-1.53q.42-1.8.72-3.66a17.26,17.26,0,0,0,5.12,1.18c1.46-.1,3.3-.64,4.15-1.95a2.6,2.6,0,0,0-.87-3.78c-2-1-5.48.85-6.87,2.24-.09.09-1,1.2-1.46,1.82.12-.75.24-1.49.33-2.25.28-2.19.48-4.41.7-6.62.06-.68.14-1.36.21-2,.28.1,3.64,1.35,5.29,1.24,1.47-.11,3.31-.65,4.16-1.95a2.62,2.62,0,0,0-.88-3.79c-2-1-5.47.86-6.87,2.25-.11.1-1.38,1.7-1.69,2.12.16-1.49.33-3,.56-4.43a46.51,46.51,0,0,1,1.27-5.82c.13.05,3.63,1.37,5.32,1.25,1.47-.1,3.31-.64,4.16-1.95a2.61,2.61,0,0,0-.88-3.78c-2-1-5.47.85-6.87,2.24-.11.11-1.48,1.83-1.71,2.16,0-.11,0-.23.09-.34a33.84,33.84,0,0,1,2.3-5.51c.51-1,1-1.89,1.58-2.77.63.32,3.5,1.71,5,1.78s3.36-.28,4.34-1.48a2.61,2.61,0,0,0-.45-3.86c-1.84-1.22-5.54.25-7.08,1.47-.08.07-.86.84-1.41,1.41l.74-1.16c.92-1.39,1.86-2.61,2.69-3.68.48-.6.92-1.14,1.34-1.64.78,0,3.9-.11,5.26-.75s2.86-1.79,3.18-3.31a2.61,2.61,0,0,0-2.18-3.21c-2.2-.24-4.8,2.76-5.6,4.56-.07.16-.88,2.72-.84,2.71h0l-1.32,1.55c-.86,1.06-1.82,2.25-2.78,3.63a45.86,45.86,0,0,0-2.87,4.58,34,34,0,0,0-2.46,5.53s0,.05,0,.07c0-.65,0-2.45,0-2.59-.26-1.95-1.89-5.58-4.06-6a2.61,2.61,0,0,0-3,2.45c-.13,1.56,1,3.11,2.09,4.09s4.67,2.17,4.95,2.26a44,44,0,0,0-1.45,6c-.21,1.18-.39,2.38-.55,3.58,0-.56,0-1.06,0-1.13-.25-2-1.89-5.58-4.06-6a2.61,2.61,0,0,0-3,2.45c-.13,1.55,1,3.11,2.1,4.09s4,2,4.79,2.21c-.05.46-.12.92-.17,1.38-.27,2.22-.52,4.43-.84,6.59-.11.76-.24,1.5-.38,2.25,0-.5,0-.92,0-1-.25-1.95-1.89-5.58-4.05-6a2.62,2.62,0,0,0-3,2.46c-.12,1.55,1,3.1,2.1,4.08a16.66,16.66,0,0,0,4.66,2.17c-.16.76-.32,1.52-.51,2.25-.14.5-.25,1-.42,1.47s-.31,1-.46,1.45c-.33.91-.67,1.85-1,2.73-.23.62-.47,1.2-.7,1.78.12-.75.32-2.24.32-2.36a10.06,10.06,0,0,0-1.36-4.93,2.79,2.79,0,0,0,0-.58,2.63,2.63,0,0,0-3.2-2.22c-2.13.57-3.48,4.31-3.58,6.28,0,.12.07,1.38.13,2.18-.11-.46-.21-.91-.32-1.39-.22-.94-.48-1.88-.74-2.88-.15-.48-.29-1-.44-1.46s-.35-1-.52-1.49c-.42-1.16-.9-2.3-1.41-3.45.82-.2,3.74-.94,4.91-1.84s2.41-2.36,2.4-3.92a2.62,2.62,0,0,0-2.82-2.67c-2.2.24-4.1,3.73-4.5,5.66,0,.12-.15,1.54-.21,2.32-.31-.69-.62-1.38-1-2.06-1-2-2-3.94-3.08-5.91-.32-.6-.63-1.2-.94-1.81.29-.06,3.78-.87,5.1-1.88,1.16-.9,2.4-2.36,2.39-3.92a2.61,2.61,0,0,0-2.82-2.67c-2.19.24-4.09,3.73-4.49,5.66,0,.14-.22,2.18-.24,2.7-.69-1.33-1.36-2.66-2-4a44.18,44.18,0,0,1-2.15-5.56c.14,0,3.78-.86,5.13-1.89,1.16-.89,2.4-2.36,2.39-3.92a2.61,2.61,0,0,0-2.82-2.67c-2.19.24-4.09,3.73-4.49,5.66,0,.15-.23,2.35-.24,2.75,0-.11-.08-.22-.11-.33a33.8,33.8,0,0,1-1.12-5.87c-.12-1.1-.18-2.15-.21-3.18.7-.08,3.87-.51,5.18-1.3s2.65-2.08,2.81-3.63a2.61,2.61,0,0,0-2.51-3c-2.2,0-4.48,3.26-5.09,5.13,0,.11-.25,1.18-.4,2,0-.46,0-.94,0-1.38,0-1.67.11-3.2.21-4.55.07-.77.14-1.46.22-2.11.64-.44,3.19-2.24,4-3.53s1.39-3.06.82-4.51a2.61,2.61,0,0,0-3.59-1.48c-2,1-2.47,5-2.15,6.9,0,.17.77,2.74.8,2.72l0,0c-.09.63-.17,1.29-.25,2-.13,1.35-.27,2.88-.31,4.55a43.58,43.58,0,0,0,.13,5.41,33.53,33.53,0,0,0,1,6,.25.25,0,0,0,0,.07c-.35-.55-1.37-2-1.46-2.15-1.29-1.49-4.65-3.61-6.68-2.74a2.6,2.6,0,0,0-1.16,3.7C321.53,382.3,323.33,383,324.78,383.19Z" style="fill:#326DD9"></path><path d="M362.6,372.82s.7-2.57.73-2.74c.27-1.95-.35-5.88-2.34-6.84a2.61,2.61,0,0,0-3.55,1.58c-.53,1.46.14,3.25.94,4.49C359.32,370.76,362.6,372.82,362.6,372.82Z" style="fill:#326DD9"></path><path d="M403.33,340.2c2.59,1.13,8.91,1,8.91,1s-1.35-4.14-1.47-4.39c-1.39-2.9-5.78-7.69-9.35-7.21a4.25,4.25,0,0,0-3.41,5.34C398.6,337.4,401.13,339.24,403.33,340.2Z" style="fill:#326DD9"></path><path d="M405.52,358.51c2.68.39,8.32-1.24,8.77-1.38a75.36,75.36,0,0,0,3.42,9.47c.77,1.8,1.61,3.58,2.47,5.36-.51-.75-1-1.42-1.05-1.51-2.11-2.43-7.6-5.89-10.92-4.49a4.27,4.27,0,0,0-1.88,6.06c1.22,2.23,4.15,3.33,6.53,3.67s7.25-.94,8.52-1.3c.34.68.67,1.36,1,2,1.63,3.26,3.28,6.5,4.79,9.72.54,1.14,1,2.28,1.51,3.42-.46-.67-.85-1.23-.92-1.31-2.1-2.43-7.59-5.9-10.91-4.49a4.27,4.27,0,0,0-1.89,6.06c1.23,2.22,4.16,3.32,6.54,3.67s6.77-.82,8.29-1.24c.47,1.18.93,2.36,1.33,3.52.26.8.56,1.56.77,2.38s.44,1.6.67,2.39c.36,1.54.75,3.13,1.08,4.64.23,1.05.43,2.05.64,3.06-.52-1.14-1.58-3.34-1.69-3.52-1.72-2.72-6.62-7-10.11-6.09a4.27,4.27,0,0,0-2.79,5.7c.88,2.39,3.61,3.92,5.9,4.63,2.53.77,8.13.06,8.83,0,.34,1.67.65,3.3.91,4.85.56,3.13,1,6,1.32,8.4H439c-.4-2.53-.91-5.5-1.57-8.8-.33-1.7-.72-3.51-1.14-5.36a45.34,45.34,0,0,0,4.92-2.32c1.85,2,6.57,4.34,7.18,4.63-.64,1.58-1.28,3.11-1.91,4.55-1.19,2.73-2.32,5.18-3.34,7.3h2.53q1.31-2.9,2.78-6.47c.65-1.6,1.33-3.33,2-5.11.68.15,6.22,1.27,8.8.69,2.35-.53,5.18-1.86,6.23-4.17a4.26,4.26,0,0,0-2.35-5.89c-3.41-1.15-8.62,2.73-10.53,5.32-.11.15-1.15,1.94-1.79,3.08.27-.73.55-1.43.82-2.18.54-1.49,1-3,1.58-4.6.24-.78.48-1.58.72-2.38s.42-1.66.64-2.49c.46-2,.84-4,1.17-6,1.3.47,5.95,2.09,8.36,1.92s5.4-1.05,6.78-3.18a4.26,4.26,0,0,0-1.43-6.18c-3.2-1.65-8.94,1.4-11.21,3.66-.15.15-1.6,2-2.38,3,.19-1.22.39-2.43.54-3.67.45-3.57.78-7.2,1.14-10.81.1-1.11.23-2.22.34-3.32.46.17,5.94,2.21,8.64,2,2.39-.16,5.4-1,6.79-3.17a4.27,4.27,0,0,0-1.44-6.18c-3.2-1.65-8.93,1.39-11.21,3.66-.17.17-2.26,2.78-2.76,3.47.26-2.43.54-4.86.91-7.23a76.6,76.6,0,0,1,2.07-9.51c.22.08,5.93,2.24,8.69,2,2.4-.17,5.4-1.05,6.79-3.18a4.27,4.27,0,0,0-1.43-6.18c-3.2-1.65-8.94,1.4-11.22,3.67-.18.17-2.42,3-2.79,3.52.05-.18.09-.37.14-.55a54.25,54.25,0,0,1,3.77-9c.82-1.6,1.69-3.09,2.57-4.52,1,.51,5.72,2.79,8.23,2.9s5.48-.45,7.09-2.42a4.26,4.26,0,0,0-.74-6.3c-3-2-9,.41-11.55,2.41-.14.11-1.41,1.37-2.32,2.3.41-.64.82-1.3,1.22-1.9,1.51-2.27,3-4.26,4.39-6,.78-1,1.5-1.87,2.19-2.68,1.27,0,6.36-.18,8.59-1.22s4.66-2.93,5.18-5.42a4.25,4.25,0,0,0-3.56-5.24c-3.58-.39-7.83,4.52-9.14,7.46-.11.25-1.43,4.42-1.36,4.42h.08c-.68.77-1.4,1.6-2.16,2.53-1.41,1.72-3,3.68-4.53,5.92a75.51,75.51,0,0,0-4.7,7.48,55.54,55.54,0,0,0-4,9l0,.11c0-1.05,0-4-.06-4.23-.41-3.19-3.09-9.1-6.63-9.76a4.26,4.26,0,0,0-4.91,4c-.21,2.53,1.63,5.07,3.42,6.67,2,1.8,7.63,3.55,8.07,3.69a75.48,75.48,0,0,0-2.37,9.78c-.34,1.93-.63,3.88-.89,5.84,0-.91,0-1.73-.05-1.84-.41-3.19-3.08-9.11-6.62-9.77a4.27,4.27,0,0,0-4.92,4c-.21,2.53,1.63,5.07,3.42,6.67s6.57,3.21,7.83,3.61c-.09.76-.19,1.51-.28,2.26-.43,3.61-.85,7.22-1.36,10.75-.18,1.24-.41,2.46-.63,3.68,0-.81,0-1.5,0-1.6-.41-3.19-3.09-9.11-6.63-9.76a4.25,4.25,0,0,0-4.91,4c-.21,2.53,1.63,5.07,3.42,6.67s6.1,3.05,7.6,3.53c-.26,1.24-.52,2.49-.83,3.68-.23.81-.4,1.6-.68,2.4s-.51,1.59-.76,2.37c-.54,1.49-1.09,3-1.65,4.46-.39,1-.77,2-1.16,2.91.2-1.24.53-3.66.53-3.87a16.53,16.53,0,0,0-2.22-8.05,5,5,0,0,0-.06-.94,4.26,4.26,0,0,0-5.21-3.62c-3.48.93-5.68,7-5.85,10.25,0,.19.12,2.26.22,3.56-.18-.76-.34-1.49-.53-2.27-.37-1.54-.78-3.07-1.21-4.71-.24-.78-.48-1.58-.72-2.38s-.56-1.62-.84-2.43c-.69-1.88-1.48-3.76-2.31-5.63,1.34-.32,6.11-1.54,8-3s3.93-3.86,3.91-6.4a4.26,4.26,0,0,0-4.6-4.36c-3.58.39-6.69,6.09-7.34,9.24,0,.19-.25,2.51-.34,3.78-.51-1.12-1-2.24-1.57-3.36-1.6-3.22-3.32-6.43-5-9.64l-1.54-3c.48-.11,6.18-1.43,8.32-3.08,1.91-1.46,3.93-3.85,3.91-6.39a4.27,4.27,0,0,0-4.6-4.37c-3.58.39-6.69,6.1-7.34,9.25-.05.23-.35,3.56-.38,4.41-1.13-2.17-2.23-4.34-3.23-6.53a74.77,74.77,0,0,1-3.52-9.08c.23-.05,6.18-1.4,8.37-3.09,1.91-1.46,3.93-3.85,3.91-6.39a4.26,4.26,0,0,0-4.6-4.36c-3.58.38-6.69,6.09-7.34,9.24-.05.24-.37,3.82-.38,4.48l-.19-.54a55.09,55.09,0,0,1-1.82-9.59c-.2-1.79-.29-3.51-.34-5.18,1.13-.14,6.31-.83,8.45-2.13s4.33-3.4,4.59-5.93a4.27,4.27,0,0,0-4.1-4.84c-3.6,0-7.31,5.32-8.3,8.38-.06.17-.42,1.92-.66,3.2,0-.76,0-1.54,0-2.26,0-2.73.18-5.22.35-7.43.11-1.25.23-2.38.35-3.44,1-.72,5.21-3.66,6.49-5.76s2.27-5,1.34-7.37a4.26,4.26,0,0,0-5.87-2.41c-3.2,1.65-4,8.09-3.51,11.26.05.28,1.26,4.48,1.31,4.44l.06,0c-.14,1-.28,2.11-.4,3.3-.22,2.21-.45,4.7-.51,7.44a74.19,74.19,0,0,0,.21,8.83,56.12,56.12,0,0,0,1.63,9.74s0,.08,0,.11c-.57-.89-2.24-3.32-2.38-3.49-2.11-2.44-7.6-5.9-10.92-4.49a4.25,4.25,0,0,0-1.89,6.05C400.21,357.06,403.14,358.16,405.52,358.51Z" style="fill:#326DD9"></path><path d="M467.27,341.59c.05,0,1.15-4.2,1.18-4.47.45-3.19-.57-9.6-3.81-11.17a4.26,4.26,0,0,0-5.8,2.57c-.87,2.39.23,5.32,1.54,7.33C461.91,338.22,467.26,341.59,467.27,341.59Z" style="fill:#326DD9"></path><path d="M631.86,340.2c2.58,1.13,8.9,1,8.91,1s-1.36-4.14-1.48-4.39c-1.39-2.9-5.77-7.69-9.34-7.21a4.26,4.26,0,0,0-3.42,5.34C627.12,337.4,629.66,339.24,631.86,340.2Z" style="fill:#326DD9"></path><path d="M634,358.51c2.68.39,8.32-1.24,8.77-1.38a75.36,75.36,0,0,0,3.42,9.47c.78,1.8,1.62,3.58,2.48,5.36-.52-.75-1-1.42-1.06-1.51-2.1-2.43-7.6-5.89-10.91-4.49a4.27,4.27,0,0,0-1.89,6.06c1.22,2.23,4.16,3.33,6.53,3.67s7.25-.94,8.53-1.3c.34.68.66,1.36,1,2,1.63,3.26,3.27,6.5,4.79,9.72.53,1.14,1,2.28,1.51,3.42-.46-.67-.85-1.23-.92-1.31-2.1-2.43-7.6-5.9-10.91-4.49a4.27,4.27,0,0,0-1.89,6.06c1.22,2.22,4.15,3.32,6.53,3.67s6.78-.82,8.29-1.24c.47,1.18.94,2.36,1.34,3.52.25.8.55,1.56.76,2.38s.45,1.6.67,2.39c.37,1.54.76,3.13,1.08,4.64.23,1.05.44,2.05.64,3.06-.52-1.14-1.58-3.34-1.69-3.52-1.71-2.72-6.62-7-10.11-6.09a4.27,4.27,0,0,0-2.78,5.7c.87,2.39,3.6,3.92,5.9,4.63,2.53.77,8.13.06,8.83,0,.33,1.67.64,3.3.91,4.85.55,3.13,1,6,1.31,8.4h2.35c-.4-2.53-.91-5.5-1.56-8.8-.34-1.7-.73-3.51-1.15-5.36a46.09,46.09,0,0,0,4.93-2.32c1.84,2,6.56,4.34,7.18,4.63-.65,1.58-1.29,3.11-1.92,4.55-1.18,2.73-2.31,5.18-3.33,7.3h2.53c.86-1.93,1.8-4.09,2.77-6.47.66-1.6,1.33-3.33,2-5.11.67.15,6.22,1.27,8.8.69,2.34-.53,5.18-1.86,6.23-4.17a4.26,4.26,0,0,0-2.35-5.89c-3.42-1.15-8.63,2.73-10.54,5.32-.11.15-1.15,1.94-1.78,3.08.27-.73.54-1.43.81-2.18.55-1.49,1.05-3,1.59-4.6.24-.78.47-1.58.71-2.38s.43-1.66.64-2.49c.47-2,.84-4,1.18-6,1.3.47,5.94,2.09,8.35,1.92s5.4-1.05,6.79-3.18a4.27,4.27,0,0,0-1.43-6.18c-3.2-1.65-8.94,1.4-11.22,3.66-.14.15-1.59,2-2.37,3,.19-1.22.38-2.43.54-3.67.44-3.57.78-7.2,1.13-10.81.11-1.11.23-2.22.35-3.32.46.17,5.94,2.21,8.63,2,2.4-.16,5.4-1,6.79-3.17a4.26,4.26,0,0,0-1.43-6.18c-3.2-1.65-8.94,1.39-11.22,3.66-.17.17-2.26,2.78-2.75,3.47.25-2.43.53-4.86.9-7.23a74.83,74.83,0,0,1,2.08-9.51c.21.08,5.92,2.24,8.69,2,2.39-.17,5.4-1.05,6.78-3.18a4.26,4.26,0,0,0-1.43-6.18c-3.2-1.65-8.94,1.4-11.21,3.67-.18.17-2.43,3-2.8,3.52.06-.18.09-.37.15-.55a55.1,55.1,0,0,1,3.76-9c.82-1.6,1.7-3.09,2.58-4.52,1,.51,5.72,2.79,8.22,2.9s5.48-.45,7.1-2.42a4.27,4.27,0,0,0-.75-6.3c-3-2-9,.41-11.55,2.41-.13.11-1.4,1.37-2.31,2.3.4-.64.81-1.3,1.22-1.9,1.5-2.27,3-4.26,4.38-6,.78-1,1.51-1.87,2.2-2.68,1.26,0,6.36-.18,8.58-1.22s4.66-2.93,5.19-5.42a4.26,4.26,0,0,0-3.56-5.24c-3.58-.39-7.84,4.52-9.15,7.46-.11.25-1.42,4.42-1.36,4.42h.08c-.68.77-1.39,1.6-2.16,2.53-1.4,1.72-3,3.68-4.53,5.92a75.5,75.5,0,0,0-4.69,7.48,55.56,55.56,0,0,0-4,9l0,.11c0-1.05,0-4-.06-4.23-.41-3.19-3.08-9.1-6.62-9.76a4.27,4.27,0,0,0-4.92,4c-.2,2.53,1.63,5.07,3.42,6.67,2,1.8,7.63,3.55,8.08,3.69a75.48,75.48,0,0,0-2.37,9.78c-.35,1.93-.63,3.88-.89,5.84,0-.91,0-1.73-.05-1.84-.41-3.19-3.09-9.11-6.63-9.77a4.26,4.26,0,0,0-4.91,4c-.21,2.53,1.63,5.07,3.42,6.67s6.57,3.21,7.83,3.61c-.09.76-.2,1.51-.29,2.26-.43,3.61-.84,7.22-1.36,10.75-.18,1.24-.4,2.46-.62,3.68,0-.81,0-1.5-.05-1.6-.41-3.19-3.08-9.11-6.62-9.76a4.26,4.26,0,0,0-4.92,4c-.21,2.53,1.63,5.07,3.42,6.67s6.11,3.05,7.61,3.53c-.27,1.24-.53,2.49-.84,3.68-.23.81-.39,1.6-.67,2.4s-.51,1.59-.76,2.37c-.55,1.49-1.09,3-1.66,4.46-.38,1-.77,2-1.15,2.91.19-1.24.52-3.66.53-3.87a16.53,16.53,0,0,0-2.22-8.05,5,5,0,0,0-.06-.94,4.27,4.27,0,0,0-5.21-3.62c-3.48.93-5.69,7-5.85,10.25,0,.19.11,2.26.21,3.56-.18-.76-.34-1.49-.53-2.27-.36-1.54-.77-3.07-1.21-4.71-.23-.78-.47-1.58-.72-2.38s-.56-1.62-.84-2.43c-.68-1.88-1.47-3.76-2.31-5.63,1.35-.32,6.11-1.54,8-3s3.92-3.86,3.91-6.4a4.27,4.27,0,0,0-4.61-4.36c-3.58.39-6.68,6.09-7.33,9.24,0,.19-.26,2.51-.35,3.78-.51-1.12-1-2.24-1.57-3.36-1.6-3.22-3.32-6.43-5-9.64l-1.54-3c.48-.11,6.17-1.43,8.32-3.08,1.9-1.46,3.92-3.85,3.91-6.39a4.27,4.27,0,0,0-4.61-4.37c-3.58.39-6.68,6.1-7.33,9.25,0,.23-.35,3.56-.39,4.41-1.12-2.17-2.23-4.34-3.23-6.53a74.69,74.69,0,0,1-3.51-9.08c.22-.05,6.17-1.4,8.37-3.09,1.9-1.46,3.92-3.85,3.91-6.39a4.27,4.27,0,0,0-4.61-4.36c-3.58.38-6.68,6.09-7.33,9.24,0,.24-.38,3.82-.39,4.48-.05-.18-.13-.36-.18-.54a54.17,54.17,0,0,1-1.82-9.59c-.21-1.79-.3-3.51-.35-5.18,1.14-.14,6.31-.83,8.46-2.13s4.32-3.4,4.58-5.93a4.26,4.26,0,0,0-4.09-4.84c-3.6,0-7.32,5.32-8.31,8.38,0,.17-.41,1.92-.66,3.2,0-.76,0-1.54,0-2.26,0-2.73.17-5.22.34-7.43.11-1.25.23-2.38.36-3.44,1-.72,5.2-3.66,6.49-5.76s2.27-5,1.33-7.37a4.25,4.25,0,0,0-5.86-2.41c-3.2,1.65-4,8.09-3.51,11.26,0,.28,1.25,4.48,1.31,4.44l.06,0c-.14,1-.28,2.11-.41,3.3-.22,2.21-.44,4.7-.51,7.44a76.37,76.37,0,0,0,.21,8.83,55.23,55.23,0,0,0,1.64,9.74l0,.11c-.56-.89-2.23-3.32-2.38-3.49-2.1-2.44-7.6-5.9-10.91-4.49a4.25,4.25,0,0,0-1.89,6.05C628.73,357.06,631.66,358.16,634,358.51Z" style="fill:#326DD9"></path><path d="M695.79,341.59c.06,0,1.15-4.2,1.19-4.47.44-3.19-.57-9.6-3.82-11.17a4.25,4.25,0,0,0-5.79,2.57c-.87,2.39.23,5.32,1.53,7.33C690.44,338.22,695.79,341.59,695.79,341.59Z" style="fill:#326DD9"></path><path d="M508.09,340.2c2.58,1.13,8.9,1,8.91,1s-1.36-4.14-1.48-4.39c-1.39-2.9-5.77-7.69-9.34-7.21a4.26,4.26,0,0,0-3.42,5.34C503.35,337.4,505.89,339.24,508.09,340.2Z" style="fill:#326DD9"></path><path d="M510.27,358.51c2.68.39,8.32-1.24,8.77-1.38a75.36,75.36,0,0,0,3.42,9.47c.78,1.8,1.62,3.58,2.48,5.36-.52-.75-1-1.42-1.06-1.51-2.1-2.43-7.6-5.89-10.91-4.49a4.27,4.27,0,0,0-1.89,6.06c1.22,2.23,4.16,3.33,6.53,3.67s7.25-.94,8.53-1.3c.34.68.66,1.36,1,2,1.63,3.26,3.27,6.5,4.79,9.72.53,1.14,1,2.28,1.51,3.42-.46-.67-.85-1.23-.92-1.31-2.1-2.43-7.6-5.9-10.91-4.49a4.27,4.27,0,0,0-1.89,6.06c1.22,2.22,4.15,3.32,6.53,3.67s6.78-.82,8.29-1.24c.47,1.18.94,2.36,1.34,3.52.25.8.55,1.56.76,2.38s.45,1.6.67,2.39c.37,1.54.76,3.13,1.08,4.64.23,1.05.43,2.05.64,3.06-.52-1.14-1.58-3.34-1.69-3.52-1.71-2.72-6.62-7-10.11-6.09a4.27,4.27,0,0,0-2.78,5.7c.87,2.39,3.6,3.92,5.9,4.63,2.53.77,8.13.06,8.83,0,.33,1.67.64,3.3.91,4.85.55,3.13,1,6,1.31,8.4h2.35c-.4-2.53-.91-5.5-1.56-8.8-.34-1.7-.73-3.51-1.15-5.36A46.09,46.09,0,0,0,546,405.7c1.84,2,6.56,4.34,7.18,4.63-.65,1.58-1.29,3.11-1.92,4.55-1.18,2.73-2.31,5.18-3.33,7.3h2.53c.86-1.93,1.8-4.09,2.77-6.47.66-1.6,1.33-3.33,2-5.11.67.15,6.22,1.27,8.8.69,2.34-.53,5.18-1.86,6.23-4.17a4.27,4.27,0,0,0-2.35-5.89c-3.42-1.15-8.63,2.73-10.54,5.32-.11.15-1.15,1.94-1.78,3.08.27-.73.54-1.43.81-2.18.55-1.49,1.05-3,1.59-4.6l.71-2.38c.26-.79.43-1.66.64-2.49.47-2,.84-4,1.18-6,1.3.47,5.94,2.09,8.35,1.92s5.4-1.05,6.79-3.18a4.27,4.27,0,0,0-1.43-6.18c-3.2-1.65-8.94,1.4-11.22,3.66-.14.15-1.59,2-2.37,3,.19-1.22.38-2.43.54-3.67.44-3.57.78-7.2,1.13-10.81.11-1.11.23-2.22.35-3.32.46.17,5.94,2.21,8.63,2,2.4-.16,5.4-1,6.79-3.17a4.27,4.27,0,0,0-1.43-6.18c-3.2-1.65-8.94,1.39-11.22,3.66-.17.17-2.26,2.78-2.75,3.47.25-2.43.53-4.86.9-7.23a74.83,74.83,0,0,1,2.08-9.51c.21.08,5.92,2.24,8.69,2,2.39-.17,5.4-1.05,6.78-3.18a4.26,4.26,0,0,0-1.43-6.18c-3.2-1.65-8.94,1.4-11.22,3.67-.17.17-2.42,3-2.79,3.52.06-.18.09-.37.15-.55a54.23,54.23,0,0,1,3.76-9c.82-1.6,1.69-3.09,2.58-4.52,1,.51,5.72,2.79,8.22,2.9s5.48-.45,7.1-2.42a4.27,4.27,0,0,0-.75-6.3c-3-2-9,.41-11.55,2.41-.14.11-1.4,1.37-2.31,2.3.4-.64.81-1.3,1.22-1.9,1.5-2.27,3-4.26,4.38-6,.78-1,1.51-1.87,2.2-2.68,1.26,0,6.36-.18,8.58-1.22s4.66-2.93,5.19-5.42a4.26,4.26,0,0,0-3.56-5.24c-3.58-.39-7.84,4.52-9.15,7.46-.11.25-1.42,4.42-1.36,4.42h.08c-.68.77-1.39,1.6-2.16,2.53-1.4,1.72-3,3.68-4.53,5.92a75.5,75.5,0,0,0-4.69,7.48,55.56,55.56,0,0,0-4,9l0,.11c0-1.05,0-4-.06-4.23-.41-3.19-3.08-9.1-6.62-9.76a4.27,4.27,0,0,0-4.92,4c-.2,2.53,1.63,5.07,3.42,6.67,2,1.8,7.63,3.55,8.08,3.69a75.48,75.48,0,0,0-2.37,9.78c-.35,1.93-.63,3.88-.89,5.84,0-.91,0-1.73,0-1.84-.41-3.19-3.09-9.11-6.63-9.77a4.26,4.26,0,0,0-4.91,4c-.21,2.53,1.63,5.07,3.42,6.67s6.57,3.21,7.83,3.61c-.09.76-.2,1.51-.29,2.26-.43,3.61-.84,7.22-1.36,10.75-.18,1.24-.4,2.46-.62,3.68,0-.81,0-1.5,0-1.6-.41-3.19-3.08-9.11-6.62-9.76a4.26,4.26,0,0,0-4.92,4c-.21,2.53,1.63,5.07,3.42,6.67s6.11,3.05,7.61,3.53c-.27,1.24-.53,2.49-.84,3.68-.23.81-.39,1.6-.67,2.4s-.51,1.59-.76,2.37c-.55,1.49-1.09,3-1.66,4.46-.38,1-.77,2-1.15,2.91.19-1.24.52-3.66.53-3.87a16.53,16.53,0,0,0-2.22-8.05,5,5,0,0,0-.06-.94,4.27,4.27,0,0,0-5.21-3.62c-3.48.93-5.69,7-5.85,10.25,0,.19.11,2.26.21,3.56-.18-.76-.34-1.49-.53-2.27-.36-1.54-.77-3.07-1.21-4.71-.23-.78-.47-1.58-.72-2.38s-.56-1.62-.84-2.43c-.69-1.88-1.47-3.76-2.31-5.63,1.35-.32,6.11-1.54,8-3s3.92-3.86,3.9-6.4a4.25,4.25,0,0,0-4.6-4.36c-3.58.39-6.68,6.09-7.33,9.24,0,.19-.26,2.51-.35,3.78-.51-1.12-1-2.24-1.57-3.36-1.6-3.22-3.32-6.43-5-9.64l-1.54-3c.48-.11,6.17-1.43,8.32-3.08,1.9-1.46,3.92-3.85,3.91-6.39a4.27,4.27,0,0,0-4.61-4.37c-3.58.39-6.68,6.1-7.33,9.25,0,.23-.35,3.56-.39,4.41-1.12-2.17-2.23-4.34-3.23-6.53a74.69,74.69,0,0,1-3.51-9.08c.22-.05,6.17-1.4,8.37-3.09,1.9-1.46,3.92-3.85,3.91-6.39a4.27,4.27,0,0,0-4.61-4.36c-3.58.38-6.68,6.09-7.33,9.24-.05.24-.38,3.82-.39,4.48-.05-.18-.13-.36-.18-.54a55.13,55.13,0,0,1-1.83-9.59c-.2-1.79-.29-3.51-.34-5.18,1.13-.14,6.31-.83,8.46-2.13s4.32-3.4,4.58-5.93a4.26,4.26,0,0,0-4.09-4.84c-3.6,0-7.32,5.32-8.31,8.38,0,.17-.41,1.92-.66,3.2,0-.76,0-1.54,0-2.26,0-2.73.17-5.22.34-7.43.11-1.25.23-2.38.36-3.44,1-.72,5.2-3.66,6.48-5.76s2.28-5,1.34-7.37a4.25,4.25,0,0,0-5.86-2.41c-3.2,1.65-4,8.09-3.51,11.26,0,.28,1.25,4.48,1.31,4.44l.06,0c-.14,1-.28,2.11-.41,3.3-.22,2.21-.45,4.7-.51,7.44a76.37,76.37,0,0,0,.21,8.83,55.23,55.23,0,0,0,1.64,9.74l0,.11c-.56-.89-2.23-3.32-2.38-3.49-2.1-2.44-7.6-5.9-10.91-4.49a4.25,4.25,0,0,0-1.89,6.05C505,357.06,507.89,358.16,510.27,358.51Z" style="fill:#326DD9"></path><path d="M572,341.59c.06,0,1.15-4.2,1.19-4.47.44-3.19-.57-9.6-3.82-11.17a4.25,4.25,0,0,0-5.79,2.57c-.87,2.39.23,5.32,1.53,7.33C566.67,338.22,572,341.59,572,341.59Z" style="fill:#326DD9"></path><path d="M574.38,371.26c1.61.71,5.53.62,5.53.62s-.84-2.57-.91-2.73c-.86-1.8-3.59-4.78-5.81-4.48a2.65,2.65,0,0,0-2.12,3.32C571.44,369.53,573,370.67,574.38,371.26Z" style="fill:#326DD9"></path><path d="M575.74,382.64c1.66.24,5.16-.78,5.44-.86a47.27,47.27,0,0,0,2.13,5.88c.48,1.12,1,2.22,1.54,3.33-.32-.47-.61-.88-.66-.94-1.31-1.51-4.72-3.66-6.78-2.78a2.64,2.64,0,0,0-1.17,3.76c.76,1.38,2.58,2.06,4.06,2.28s4.5-.59,5.29-.81l.63,1.26c1,2,2,4,3,6,.34.7.64,1.41.94,2.12-.28-.42-.53-.77-.57-.81-1.31-1.51-4.72-3.67-6.78-2.79a2.65,2.65,0,0,0-1.17,3.76c.76,1.38,2.58,2.07,4.06,2.28a16.86,16.86,0,0,0,5.15-.77c.29.73.58,1.47.83,2.19.15.5.34,1,.47,1.47s.28,1,.42,1.49c.23,1,.47,1.94.67,2.88.14.65.27,1.28.4,1.9-.33-.7-1-2.07-1.05-2.18-1.07-1.69-4.12-4.33-6.28-3.78a2.65,2.65,0,0,0-1.73,3.54c.54,1.48,2.24,2.43,3.66,2.87s5,0,5.48,0c.21,1,.41,2.05.57,3,.35,2,.61,3.7.82,5.22h1.46c-.25-1.57-.57-3.42-1-5.46-.21-1.06-.45-2.18-.71-3.33a31.31,31.31,0,0,0,3-1.44,19.26,19.26,0,0,0,4.46,2.87c-.4,1-.8,1.94-1.19,2.83-.73,1.69-1.43,3.21-2.07,4.53h1.57c.54-1.2,1.12-2.54,1.73-4,.41-1,.82-2.06,1.24-3.17.42.09,3.86.79,5.47.43,1.45-.33,3.22-1.16,3.87-2.59a2.65,2.65,0,0,0-1.46-3.66c-2.12-.71-5.36,1.69-6.54,3.3-.07.1-.72,1.21-1.11,1.92.17-.45.33-.89.5-1.36.34-.92.65-1.85,1-2.85.14-.49.29-1,.44-1.48s.26-1,.4-1.55c.29-1.21.52-2.45.73-3.71a17.34,17.34,0,0,0,5.19,1.2c1.48-.11,3.35-.66,4.21-2a2.64,2.64,0,0,0-.89-3.84c-2-1-5.55.87-7,2.28-.09.09-1,1.21-1.48,1.84.12-.76.24-1.51.34-2.28.27-2.22.48-4.47.7-6.72.07-.68.14-1.37.22-2.06.28.11,3.69,1.38,5.36,1.26,1.49-.1,3.36-.65,4.22-2a2.65,2.65,0,0,0-.89-3.84c-2-1-5.55.86-7,2.27-.11.11-1.4,1.73-1.71,2.16.16-1.51.33-3,.56-4.49a47.56,47.56,0,0,1,1.29-5.91c.14.05,3.68,1.39,5.4,1.27,1.48-.1,3.35-.65,4.21-2a2.64,2.64,0,0,0-.89-3.84c-2-1-5.55.86-7,2.27-.11.11-1.51,1.86-1.74,2.19,0-.11.06-.23.09-.34a34.47,34.47,0,0,1,2.34-5.59c.51-1,1-1.92,1.6-2.81.63.32,3.55,1.74,5.11,1.8s3.4-.28,4.41-1.5a2.64,2.64,0,0,0-.47-3.91c-1.86-1.24-5.61.25-7.17,1.49-.09.07-.87.86-1.44,1.43l.76-1.18c.93-1.41,1.88-2.64,2.72-3.73.49-.61.94-1.15,1.37-1.66.78,0,3.95-.11,5.33-.76s2.89-1.82,3.22-3.36a2.65,2.65,0,0,0-2.21-3.26c-2.23-.24-4.87,2.81-5.68,4.63-.07.16-.89,2.75-.85,2.75h.05c-.42.48-.86,1-1.34,1.57-.87,1.07-1.84,2.29-2.81,3.68a46.12,46.12,0,0,0-2.92,4.65,34.22,34.22,0,0,0-2.49,5.61.64.64,0,0,0,0,.07c0-.66,0-2.49,0-2.63-.25-2-1.91-5.66-4.11-6.07a2.66,2.66,0,0,0-3.06,2.49c-.12,1.58,1,3.15,2.13,4.15s4.74,2.2,5,2.29a46.77,46.77,0,0,0-1.47,6.07c-.21,1.2-.39,2.41-.55,3.63,0-.57,0-1.07,0-1.15-.26-2-1.92-5.65-4.12-6.06a2.65,2.65,0,0,0-3,2.49c-.13,1.57,1,3.15,2.12,4.14s4.08,2,4.87,2.25l-.18,1.4c-.27,2.24-.52,4.48-.84,6.67-.12.78-.26,1.53-.39,2.29,0-.5,0-.93,0-1-.26-2-1.92-5.66-4.12-6.07a2.65,2.65,0,0,0-3,2.49c-.13,1.58,1,3.15,2.13,4.15a16.76,16.76,0,0,0,4.72,2.19c-.16.77-.33,1.55-.52,2.29-.14.5-.25,1-.42,1.49s-.31,1-.47,1.47c-.34.92-.68,1.88-1,2.77-.24.62-.48,1.21-.72,1.81.12-.77.33-2.28.33-2.41a10.23,10.23,0,0,0-1.38-5,2.88,2.88,0,0,0,0-.59,2.65,2.65,0,0,0-3.24-2.25c-2.16.58-3.53,4.37-3.63,6.37,0,.12.07,1.4.13,2.21-.11-.47-.21-.93-.33-1.41-.22-1-.48-1.9-.75-2.93-.15-.48-.29-1-.45-1.47s-.34-1-.52-1.52c-.42-1.16-.91-2.33-1.43-3.49.83-.2,3.79-.95,5-1.87s2.44-2.39,2.43-4a2.65,2.65,0,0,0-2.86-2.71c-2.22.24-4.15,3.78-4.56,5.74,0,.12-.15,1.56-.21,2.35-.32-.7-.63-1.39-1-2.09-1-2-2.06-4-3.12-6l-.95-1.83c.3-.07,3.83-.89,5.17-1.91,1.18-.91,2.43-2.4,2.42-4a2.65,2.65,0,0,0-2.86-2.71c-2.22.25-4.15,3.79-4.55,5.74,0,.15-.22,2.22-.24,2.75-.7-1.35-1.39-2.7-2-4.06a46.07,46.07,0,0,1-2.18-5.64c.14,0,3.83-.87,5.2-1.92,1.18-.9,2.44-2.39,2.43-4a2.66,2.66,0,0,0-2.86-2.71c-2.23.24-4.16,3.78-4.56,5.74,0,.15-.23,2.38-.24,2.78,0-.11-.08-.22-.11-.33a34.75,34.75,0,0,1-1.14-6c-.12-1.12-.18-2.18-.21-3.23.7-.08,3.92-.51,5.25-1.32s2.69-2.11,2.85-3.68a2.64,2.64,0,0,0-2.54-3c-2.24,0-4.55,3.3-5.16,5.2,0,.1-.26,1.19-.41,2,0-.47,0-1,0-1.41,0-1.69.11-3.24.21-4.61.07-.78.14-1.48.22-2.14.65-.44,3.24-2.27,4-3.58s1.41-3.11.83-4.58a2.64,2.64,0,0,0-3.64-1.49c-2,1-2.51,5-2.18,7,0,.17.78,2.79.81,2.76l0,0c-.09.63-.17,1.3-.25,2.05-.14,1.37-.28,2.92-.32,4.62a49.07,49.07,0,0,0,.13,5.48,34.31,34.31,0,0,0,1,6.05.19.19,0,0,0,0,.07c-.35-.55-1.39-2.06-1.48-2.17-1.31-1.51-4.72-3.66-6.78-2.79a2.65,2.65,0,0,0-1.17,3.76C572.44,381.74,574.26,382.42,575.74,382.64Z" style="fill:#326DD9"></path><path d="M614.09,372.13s.71-2.61.74-2.78c.27-2-.36-6-2.37-6.94a2.65,2.65,0,0,0-3.6,1.6c-.54,1.48.14,3.3.95,4.55C610.76,370,614.09,372.13,614.09,372.13Z" style="fill:#326DD9"></path><path d="M254.55,340.2c2.58,1.13,8.91,1,8.91,1s-1.36-4.14-1.48-4.39c-1.39-2.9-5.77-7.69-9.34-7.21a4.26,4.26,0,0,0-3.42,5.34C249.81,337.4,252.35,339.24,254.55,340.2Z" style="fill:#326DD9"></path><path d="M256.73,358.51c2.68.39,8.32-1.24,8.77-1.38a75.36,75.36,0,0,0,3.42,9.47c.78,1.8,1.62,3.58,2.48,5.36-.52-.75-1-1.42-1.06-1.51-2.1-2.43-7.6-5.89-10.91-4.49a4.27,4.27,0,0,0-1.89,6.06c1.23,2.23,4.16,3.33,6.53,3.67s7.25-.94,8.53-1.3c.34.68.67,1.36,1,2,1.63,3.26,3.27,6.5,4.79,9.72.53,1.14,1,2.28,1.51,3.42-.46-.67-.85-1.23-.92-1.31-2.1-2.43-7.6-5.9-10.91-4.49a4.27,4.27,0,0,0-1.89,6.06c1.22,2.22,4.16,3.32,6.53,3.67s6.78-.82,8.3-1.24c.46,1.18.93,2.36,1.33,3.52.25.8.55,1.56.76,2.38s.45,1.6.67,2.39c.37,1.54.76,3.13,1.08,4.64.24,1.05.44,2.05.64,3.06-.52-1.14-1.58-3.34-1.69-3.52-1.71-2.72-6.62-7-10.11-6.09a4.27,4.27,0,0,0-2.78,5.7c.87,2.39,3.6,3.92,5.9,4.63,2.53.77,8.13.06,8.83,0,.33,1.67.64,3.3.91,4.85.55,3.13,1,6,1.31,8.4h2.35c-.4-2.53-.91-5.5-1.56-8.8-.34-1.7-.73-3.51-1.14-5.36a46.28,46.28,0,0,0,4.92-2.32c1.84,2,6.57,4.34,7.18,4.63-.65,1.58-1.29,3.11-1.91,4.55-1.19,2.73-2.32,5.18-3.34,7.3h2.53c.86-1.93,1.8-4.09,2.77-6.47.66-1.6,1.33-3.33,2-5.11.68.15,6.22,1.27,8.8.69,2.34-.53,5.18-1.86,6.23-4.17a4.26,4.26,0,0,0-2.35-5.89c-3.42-1.15-8.63,2.73-10.54,5.32-.11.15-1.15,1.94-1.78,3.08.27-.73.54-1.43.81-2.18.55-1.49,1-3,1.59-4.6.24-.78.47-1.58.71-2.38s.43-1.66.65-2.49c.46-2,.84-4,1.17-6,1.3.47,5.95,2.09,8.35,1.92s5.4-1.05,6.79-3.18a4.27,4.27,0,0,0-1.43-6.18c-3.2-1.65-8.94,1.4-11.22,3.66-.14.15-1.59,2-2.37,3,.19-1.22.39-2.43.54-3.67.44-3.57.78-7.2,1.13-10.81.11-1.11.23-2.22.35-3.32.46.17,5.94,2.21,8.63,2,2.4-.16,5.41-1,6.79-3.17a4.26,4.26,0,0,0-1.43-6.18c-3.2-1.65-8.94,1.39-11.22,3.66-.17.17-2.25,2.78-2.75,3.47.26-2.43.53-4.86.91-7.23a73.14,73.14,0,0,1,2.07-9.51c.22.08,5.93,2.24,8.69,2,2.39-.17,5.4-1.05,6.79-3.18a4.27,4.27,0,0,0-1.44-6.18c-3.2-1.65-8.93,1.4-11.21,3.67-.18.17-2.43,3-2.8,3.52.06-.18.09-.37.15-.55a54.25,54.25,0,0,1,3.77-9c.81-1.6,1.69-3.09,2.57-4.52,1,.51,5.72,2.79,8.22,2.9s5.49-.45,7.1-2.42a4.26,4.26,0,0,0-.75-6.3c-3-2-9,.41-11.55,2.41-.13.11-1.4,1.37-2.31,2.3.41-.64.82-1.3,1.22-1.9,1.5-2.27,3-4.26,4.38-6,.78-1,1.51-1.87,2.2-2.68,1.26,0,6.36-.18,8.59-1.22s4.66-2.93,5.18-5.42a4.25,4.25,0,0,0-3.56-5.24c-3.58-.39-7.84,4.52-9.15,7.46-.11.25-1.42,4.42-1.35,4.42h.07c-.68.77-1.39,1.6-2.16,2.53-1.4,1.72-3,3.68-4.53,5.92a77.41,77.41,0,0,0-4.69,7.48,55.54,55.54,0,0,0-4,9s0,.08,0,.11c0-1.05,0-4-.05-4.23-.42-3.19-3.09-9.1-6.63-9.76a4.27,4.27,0,0,0-4.92,4c-.2,2.53,1.63,5.07,3.42,6.67,2,1.8,7.63,3.55,8.08,3.69A75.48,75.48,0,0,0,309,365.8c-.34,1.93-.63,3.88-.89,5.84,0-.91,0-1.73-.05-1.84-.41-3.19-3.09-9.11-6.63-9.77a4.26,4.26,0,0,0-4.91,4c-.21,2.53,1.63,5.07,3.42,6.67s6.57,3.21,7.83,3.61c-.09.76-.19,1.51-.28,2.26-.44,3.61-.85,7.22-1.37,10.75-.18,1.24-.4,2.46-.62,3.68,0-.81,0-1.5,0-1.6-.41-3.19-3.08-9.11-6.62-9.76a4.27,4.27,0,0,0-4.92,4c-.2,2.53,1.63,5.07,3.42,6.67s6.11,3.05,7.61,3.53c-.27,1.24-.53,2.49-.84,3.68-.23.81-.39,1.6-.67,2.4s-.51,1.59-.76,2.37c-.54,1.49-1.09,3-1.66,4.46-.38,1-.77,2-1.15,2.91.19-1.24.52-3.66.53-3.87a16.53,16.53,0,0,0-2.22-8.05,5,5,0,0,0-.06-.94,4.27,4.27,0,0,0-5.21-3.62c-3.48.93-5.69,7-5.85,10.25,0,.19.11,2.26.21,3.56-.17-.76-.34-1.49-.53-2.27-.36-1.54-.77-3.07-1.2-4.71-.24-.78-.48-1.58-.72-2.38s-.57-1.62-.85-2.43c-.68-1.88-1.47-3.76-2.31-5.63,1.35-.32,6.11-1.54,8-3s3.92-3.86,3.91-6.4a4.27,4.27,0,0,0-4.61-4.36c-3.58.39-6.68,6.09-7.33,9.24,0,.19-.26,2.51-.35,3.78-.51-1.12-1-2.24-1.57-3.36-1.6-3.22-3.32-6.43-5-9.64l-1.54-3c.48-.11,6.18-1.43,8.32-3.08,1.9-1.46,3.93-3.85,3.91-6.39a4.27,4.27,0,0,0-4.6-4.37c-3.58.39-6.69,6.1-7.34,9.25-.05.23-.35,3.56-.39,4.41-1.12-2.17-2.23-4.34-3.23-6.53a76.37,76.37,0,0,1-3.51-9.08c.22-.05,6.17-1.4,8.37-3.09,1.9-1.46,3.93-3.85,3.91-6.39a4.26,4.26,0,0,0-4.6-4.36c-3.59.38-6.69,6.09-7.34,9.24-.05.24-.37,3.82-.39,4.48-.05-.18-.13-.36-.18-.54a55.09,55.09,0,0,1-1.82-9.59c-.2-1.79-.3-3.51-.35-5.18,1.14-.14,6.31-.83,8.46-2.13s4.32-3.4,4.58-5.93a4.26,4.26,0,0,0-4.09-4.84c-3.6,0-7.32,5.32-8.31,8.38,0,.17-.41,1.92-.66,3.2,0-.76,0-1.54,0-2.26,0-2.73.17-5.22.34-7.43.11-1.25.23-2.38.36-3.44,1-.72,5.21-3.66,6.49-5.76s2.27-5,1.34-7.37a4.27,4.27,0,0,0-5.87-2.41c-3.2,1.65-4,8.09-3.51,11.26,0,.28,1.25,4.48,1.31,4.44l.06,0c-.14,1-.28,2.11-.41,3.3-.22,2.21-.44,4.7-.51,7.44a76.37,76.37,0,0,0,.21,8.83,55.23,55.23,0,0,0,1.64,9.74l0,.11c-.56-.89-2.23-3.32-2.38-3.49-2.1-2.44-7.6-5.9-10.91-4.49a4.25,4.25,0,0,0-1.89,6.05C251.42,357.06,254.36,358.16,256.73,358.51Z" style="fill:#326DD9"></path><path d="M318.48,341.59c.06,0,1.15-4.2,1.19-4.47.44-3.19-.57-9.6-3.81-11.17a4.26,4.26,0,0,0-5.8,2.57c-.87,2.39.23,5.32,1.54,7.33C313.13,338.22,318.48,341.59,318.48,341.59Z" style="fill:#326DD9"></path></g><g id="freepik--Floor--inject-71"><line x1="55.57" y1="422.18" x2="704.2" y2="422.18" style="fill:none;stroke:#263238;stroke-linecap:round;stroke-linejoin:round"></line></g><g id="freepik--Lines--inject-71"><line x1="492" y1="121.22" x2="706" y2="121.22" style="fill:none;stroke:#263238;stroke-linecap:round;stroke-linejoin:round"></line><line x1="50" y1="121.22" x2="264" y2="121.22" style="fill:none;stroke:#263238;stroke-linecap:round;stroke-linejoin:round"></line></g><g id="freepik--text-2--inject-71"><path d="M116.62,341.63l-55-185.32h45.54l33.26,126.32,33.26-126.32h41.58l-55,185.32v91.86H116.62Z" style="fill:#263238;stroke:#263238;stroke-linecap:round;stroke-linejoin:round;stroke-width:0.9135669999999999px"></path><path d="M223.14,222.83c0-44.35,23.36-69.69,66.12-69.69s66.13,25.34,66.13,69.69V367c0,44.35-23.36,69.69-66.13,69.69S223.14,411.32,223.14,367Zm43.55,146.91c0,19.8,8.72,27.32,22.57,27.32s22.58-7.52,22.58-27.32V220.06c0-19.8-8.72-27.32-22.58-27.32s-22.57,7.52-22.57,27.32Z" style="fill:#263238;stroke:#263238;stroke-linecap:round;stroke-linejoin:round;stroke-width:0.9135669999999999px"></path><path d="M448.84,279.06h61V367c0,44.35-22.17,69.69-64.94,69.69S379.94,411.32,379.94,367V222.83c0-44.35,22.17-69.69,64.94-69.69s64.94,25.34,64.94,69.69v26.93H468.64v-29.7c0-19.8-8.71-27.32-22.57-27.32s-22.57,7.52-22.57,27.32V369.74c0,19.8,8.71,26.93,22.57,26.93s22.57-7.13,22.57-26.93V318.66h-19.8Z" style="fill:#263238;stroke:#263238;stroke-linecap:round;stroke-linejoin:round;stroke-width:0.9135669999999999px"></path><path d="M678.51,433.49h-44L627,383.21H573.57l-7.52,50.28h-40l44.35-277.18h63.75Zm-99.39-87.9h42l-21-140.18Z" style="fill:#263238;stroke:#263238;stroke-linecap:round;stroke-linejoin:round;stroke-width:0.9135669999999999px"></path></g><g id="freepik--text-1--inject-71"><path d="M279.9,110.75v22h-1.45v-22Z" style="fill:#263238"></path><path d="M283.74,132.77h-1.33v-22h1.89l6.61,18.59V110.75h1.32v22h-1.6l-6.89-19.63Z" style="fill:#263238"></path><path d="M298.43,132.77v-20.7H294v-1.32h10.42v1.32h-4.5v20.7Z" style="fill:#263238"></path><path d="M313.62,120.94v1.32h-6v9.19h7.24v1.32h-8.68v-22h8.68v1.32h-7.24v8.87Z" style="fill:#263238"></path><path d="M321.8,110.75c3.37,0,4.72,1.85,4.72,5v1.92c0,2.58-1,4.06-3.18,4.56,2.27.5,3.18,2.11,3.18,4.5v3.43a5,5,0,0,0,.54,2.64h-1.51a5.14,5.14,0,0,1-.47-2.64v-3.46c0-2.93-1.61-3.75-4.13-3.75h-2.29v9.85h-1.45v-22ZM321,121.6c2.58,0,4.1-.72,4.1-3.68v-2.08c0-2.36-.92-3.77-3.31-3.77h-3.11v9.53Z" style="fill:#263238"></path><path d="M330.67,132.77h-1.32v-22h1.89l6.61,18.59V110.75h1.32v22h-1.61l-6.89-19.63Z" style="fill:#263238"></path><path d="M343.76,127.89l-1.1,4.88h-1.32l4.81-22.06h2.11l4.91,22.06h-1.45l-1.1-4.88Zm.22-1.25h6.42l-3.24-14.26Z" style="fill:#263238"></path><path d="M357.89,132.77v-20.7h-4.47v-1.32h10.41v1.32h-4.5v20.7Z" style="fill:#263238"></path><path d="M367.07,110.75v22h-1.45v-22Z" style="fill:#263238"></path><path d="M369.49,116.13c0-3.21,1.48-5.57,4.82-5.57s4.87,2.36,4.87,5.57v11.26c0,3.21-1.47,5.57-4.87,5.57s-4.82-2.36-4.82-5.57Zm1.45,11.35c0,2.4.95,4.16,3.37,4.16s3.43-1.76,3.43-4.16V116c0-2.39-1-4.15-3.43-4.15s-3.37,1.76-3.37,4.15Z" style="fill:#263238"></path><path d="M382.9,132.77h-1.33v-22h1.89l6.61,18.59V110.75h1.32v22h-1.6l-6.89-19.63Z" style="fill:#263238"></path><path d="M396,127.89l-1.1,4.88h-1.32l4.81-22.06h2.11l4.91,22.06h-1.45l-1.1-4.88Zm.22-1.25h6.42l-3.24-14.26Z" style="fill:#263238"></path><path d="M407.59,132.77v-22H409v20.7H416v1.32Z" style="fill:#263238"></path><path d="M427.85,110.75c3.4,0,4.88,2.23,4.88,5.47V127.3c0,3.24-1.48,5.47-4.88,5.47H423v-22Zm0,20.7c2.45,0,3.46-1.67,3.46-4.09v-11.2c0-2.43-1-4.09-3.46-4.09h-3.37v19.38Z" style="fill:#263238"></path><path d="M437.19,127.89l-1.1,4.88h-1.32l4.82-22.06h2.1l4.91,22.06h-1.44l-1.11-4.88Zm.23-1.25h6.41l-3.24-14.26Z" style="fill:#263238"></path><path d="M451.79,124.31l-4.94-13.56h1.51l4.22,11.57,4.21-11.57h1.42l-5,13.56v8.46h-1.45Z" style="fill:#263238"></path><path d="M465.1,116.13c0-3.21,1.48-5.57,4.81-5.57s4.88,2.36,4.88,5.57v11.26c0,3.21-1.48,5.57-4.88,5.57s-4.81-2.36-4.81-5.57Zm1.45,11.35c0,2.4.94,4.16,3.36,4.16s3.43-1.76,3.43-4.16V116c0-2.39-1-4.15-3.43-4.15s-3.36,1.76-3.36,4.15Z" style="fill:#263238"></path><path d="M484.32,121.48v1.32h-5.69v10h-1.45v-22h8.37v1.32h-6.92v9.41Z" style="fill:#263238"></path></g><g id="freepik--Mandala--inject-71"><path d="M385.53,63.51h-7.39a2.18,2.18,0,0,1-1.86-1c-1.62-2.55-5.59-9.16-5-11.93.75-3.72,11.06-10.43,11.06-10.43s9.43,6.6,10.11,10.11c.54,2.84-3.42,9.63-5,12.23A2.19,2.19,0,0,1,385.53,63.51Z" style="fill:none;stroke:#263238;stroke-linecap:round;stroke-linejoin:round"></path><path d="M383,62.3,376.6,66a2.22,2.22,0,0,1-2.12,0c-2.67-1.4-9.42-5.14-10.31-7.82-1.21-3.61,4.36-14.56,4.36-14.56s11.47,1,13.81,3.7c1.89,2.18,1.85,10,1.76,13.11A2.18,2.18,0,0,1,383,62.3Z" style="fill:none;stroke:#263238;stroke-linecap:round;stroke-linejoin:round"></path><path d="M380.21,62.51l-3.7,6.4A2.17,2.17,0,0,1,374.7,70c-3,.13-10.73.26-12.85-1.62-2.84-2.51-3.5-14.79-3.5-14.79s10.44-4.87,13.81-3.7c2.73,1,6.63,7.78,8.08,10.48A2.18,2.18,0,0,1,380.21,62.51Z" style="fill:none;stroke:#263238;stroke-linecap:round;stroke-linejoin:round"></path><path d="M377.89,64.1v7.38a2.18,2.18,0,0,1-1,1.86c-2.55,1.62-9.16,5.59-11.93,5-3.72-.75-10.43-11-10.43-11s6.6-9.44,10.11-10.11c2.84-.55,9.63,3.42,12.23,5A2.18,2.18,0,0,1,377.89,64.1Z" style="fill:none;stroke:#263238;stroke-linecap:round;stroke-linejoin:round"></path><path d="M376.68,66.62l3.69,6.4a2.19,2.19,0,0,1,.05,2.12c-1.4,2.68-5.14,9.42-7.82,10.32C369,86.66,358,81.09,358,81.09s1-11.47,3.7-13.81c2.18-1.89,10.05-1.85,13.1-1.76A2.22,2.22,0,0,1,376.68,66.62Z" style="fill:none;stroke:#263238;stroke-linecap:round;stroke-linejoin:round"></path><path d="M376.89,69.42l6.4,3.69a2.21,2.21,0,0,1,1.1,1.82c.13,3,.25,10.72-1.62,12.84-2.51,2.85-14.79,3.5-14.79,3.5s-4.87-10.43-3.7-13.81c1-2.73,7.78-6.63,10.47-8.08A2.2,2.2,0,0,1,376.89,69.42Z" style="fill:none;stroke:#263238;stroke-linecap:round;stroke-linejoin:round"></path><path d="M378.47,71.73h7.39a2.2,2.2,0,0,1,1.86,1c1.62,2.55,5.59,9.16,5,11.93-.75,3.73-11.06,10.43-11.06,10.43s-9.43-6.6-10.11-10.11c-.54-2.84,3.42-9.63,5-12.23A2.19,2.19,0,0,1,378.47,71.73Z" style="fill:none;stroke:#263238;stroke-linecap:round;stroke-linejoin:round"></path><path d="M381,72.94l6.4-3.69a2.19,2.19,0,0,1,2.12,0c2.67,1.39,9.42,5.14,10.31,7.82,1.21,3.6-4.36,14.56-4.36,14.56s-11.47-1-13.81-3.71c-1.89-2.18-1.85-10-1.76-13.1A2.2,2.2,0,0,1,381,72.94Z" style="fill:none;stroke:#263238;stroke-linecap:round;stroke-linejoin:round"></path><path d="M383.79,72.73l3.7-6.4a2.22,2.22,0,0,1,1.81-1.1c3-.12,10.73-.25,12.85,1.62,2.84,2.52,3.5,14.79,3.5,14.79s-10.44,4.87-13.81,3.7c-2.73-.94-6.63-7.78-8.08-10.47A2.2,2.2,0,0,1,383.79,72.73Z" style="fill:none;stroke:#263238;stroke-linecap:round;stroke-linejoin:round"></path><path d="M386.11,71.15V63.76a2.21,2.21,0,0,1,1-1.86c2.55-1.62,9.16-5.58,11.93-5,3.72.76,10.43,11.06,10.43,11.06s-6.6,9.43-10.11,10.11c-2.84.54-9.63-3.42-12.23-5A2.19,2.19,0,0,1,386.11,71.15Z" style="fill:none;stroke:#263238;stroke-linecap:round;stroke-linejoin:round"></path><path d="M387.32,68.62l-3.69-6.4a2.19,2.19,0,0,1-.05-2.12c1.4-2.67,5.14-9.41,7.82-10.31C395,48.58,406,54.15,406,54.15s-1,11.47-3.7,13.81c-2.18,1.89-10.05,1.85-13.1,1.76A2.2,2.2,0,0,1,387.32,68.62Z" style="fill:none;stroke:#263238;stroke-linecap:round;stroke-linejoin:round"></path><path d="M387.11,65.83l-6.4-3.7a2.19,2.19,0,0,1-1.1-1.81c-.13-3-.25-10.73,1.62-12.84C383.74,44.63,396,44,396,44s4.87,10.44,3.7,13.82c-1,2.72-7.78,6.62-10.47,8.07A2.2,2.2,0,0,1,387.11,65.83Z" style="fill:none;stroke:#263238;stroke-linecap:round;stroke-linejoin:round"></path><circle cx="382" cy="67.62" r="34.38" style="fill:none;stroke:#263238;stroke-linecap:round;stroke-linejoin:round"></circle><line x1="382.32" y1="40.13" x2="382.32" y2="33.24" style="fill:none;stroke:#263238;stroke-linecap:round;stroke-linejoin:round"></line><line x1="381.68" y1="95.11" x2="381.68" y2="102.01" style="fill:none;stroke:#263238;stroke-linecap:round;stroke-linejoin:round"></line><line x1="409.49" y1="67.94" x2="416.38" y2="67.94" style="fill:none;stroke:#263238;stroke-linecap:round;stroke-linejoin:round"></line><line x1="354.51" y1="67.31" x2="347.62" y2="67.31" style="fill:none;stroke:#263238;stroke-linecap:round;stroke-linejoin:round"></line><line x1="364.95" y1="50.64" x2="357.96" y2="43.64" style="fill:none;stroke:#263238;stroke-linecap:round;stroke-linejoin:round"></line><line x1="398.65" y1="84.76" x2="406.28" y2="92.39" style="fill:none;stroke:#263238;stroke-linecap:round;stroke-linejoin:round"></line><line x1="398.86" y1="51.49" x2="406.49" y2="43.85" style="fill:none;stroke:#263238;stroke-linecap:round;stroke-linejoin:round"></line><line x1="364.95" y1="84.34" x2="357.53" y2="91.76" style="fill:none;stroke:#263238;stroke-linecap:round;stroke-linejoin:round"></line></g><g id="freepik--character-4--inject-71"><path d="M621.08,349.92c7.17,16.3,12.74,33.41,21.89,48.68,10.77,18,26.16,32.77,42.82,45.46l-22.21-3.72a3.39,3.39,0,0,1-2.31-1c-.7-1-.21-2.29-.13-3.48.28-4-4-6.52-7.58-8.4-8.9-4.74-16.82-11.81-21.1-20.94-1.6-3.39-2.67-7-4.38-10.35a46.61,46.61,0,0,0-5.33-7.83c-8.46-10.43-19.28-19.57-23.69-32.26-4.7-.6-8.11,4.23-10.22,8.47-3.29,6.61-6.3,13.38-10.19,19.65-7.13,11.51-15.62,20.76-20.91,33.22-2.13,5-5,10.85-5.41,16.26-.18,2.34-.24,4.83-1.55,6.77-2.54,3.76-8.07,3.46-12.53,2.68,3.19-3,5.09-7.22,6.39-11.44,3.63-11.79,3.33-24.87,9.29-35.66,2.93-5.31,7.22-9.75,10.32-15,6.45-10.87,7.18-24.08,10.75-36.21,1.8-6.13,4.5-12.24,9.24-16.54,9.13-8.29,30.65-1.74,36.6,8.47C624,342.25,618.52,344.1,621.08,349.92Z" style="fill:#fff;stroke:#263238;stroke-linecap:round;stroke-linejoin:round"></path><path d="M649.83,425.25a21.56,21.56,0,0,0,10.9-3.47A135.37,135.37,0,0,1,643,398.6c-9.15-15.27-14.72-32.38-21.89-48.68-2.56-5.82,3-7.67-.24-13.17-6-10.21-27.47-16.76-36.6-8.47-4.74,4.3-7.44,10.41-9.24,16.54-3.57,12.13-4.3,25.34-10.75,36.21-3.1,5.21-7.39,9.65-10.32,15-4.28,7.74-5.33,16.67-6.93,25.45a27.21,27.21,0,0,0,8.75.55c.67-1.58,1.36-3.13,2-4.61,5.29-12.46,13.78-21.71,20.91-33.22,3.89-6.28,8.31-13.82,11.48-19.9,1.39-2.67,4.23-8.82,8.93-8.22,4.41,12.69,15.23,21.83,23.69,32.26a46.61,46.61,0,0,1,5.33,7.83c1.71,3.34,2.78,7,4.38,10.35C636.13,414.31,642.48,420.63,649.83,425.25Z" style="fill:#326DD9;stroke:#263238;stroke-linecap:round;stroke-linejoin:round"></path><line x1="600.16" y1="354.23" x2="612.25" y2="352.96" style="fill:none;stroke:#263238;stroke-linecap:round;stroke-linejoin:round"></line><path d="M705,326.07s-5-5.56-7.32-5.56-4.39.59-5.85.3-2.63-3.81-4.68-2.93-2.93,4.39-2.93,4.39-8.48,1.75-9.36,3.51.88,6.44.88,6.44-1.17.58-4.1,0-3.51-6.15-3.51-7,.59-9.65,0-11.41-3.51-8.19-3.51-8.19l-3.22-23.11s-1.17-11.7-1.17-16.68.59-18.72.59-18.72a71.89,71.89,0,0,0,5-6.14c.59-1.17,2.05-4.68,2.05-6.15s-.65-2.33-1.37-1.19-2.42,4.71-2.42,4.71v-11s-.86-.57-1.28.29-.72,7-.72,7h-.57l-.85-8.42s-1.43-1.14-1.57.72-.29,8.41-.29,8.41l-.71-.14s-1.14-5.42-1.57-6.42-1.43.14-1.43,1.14,1,6.56,1,6.56a32.69,32.69,0,0,1-1.85-2.85c-.14-.43-.86-.57-.86.86a20.76,20.76,0,0,0,1,4.42s.29,5.27.86,6.13.57,3.57.57,3.57-3.57,18.25-3.71,30.8,1.85,23.68,1.85,24.68V321.6s-15.86.68-23,3.41c-5,1.9-12.15,2.88-19.12,2.74l-2.45-.28a31.71,31.71,0,0,0-1.64,10.1c0,5.73.82,11.47,2.18,11.47s17.75,1.91,26.22,5.19a210,210,0,0,0,20.48,6.28s-.55,12.56,0,21.57,4.37,30.86,4.92,32.77.54,6,1.09,7.65.82,5.19,1.91,6,4.1,5.73,4.1,5.73l1.36-.54-2.46-3.55s7.1,5.73,7.65,6.82a1,1,0,0,0,1.91-.27c0-.82-4.37-7.37-5.73-8.74s-4.37-6.82-4.37-6.82l.82-40.15V367.61c0-5.46,2.18-8.19,2.18-12.84a80.57,80.57,0,0,1,.82-10.1s6.56-1.37,8.47-.82,5.73,4.37,7.64,4.1,15.3-1.64,17.75-10.38S705,326.07,705,326.07Z" style="fill:#fff;stroke:#263238;stroke-linecap:round;stroke-linejoin:round"></path><line x1="653.9" y1="321.6" x2="659.63" y2="313.21" style="fill:none;stroke:#263238;stroke-linecap:round;stroke-linejoin:round"></line><line x1="656.61" y1="360.51" x2="660.91" y2="369.5" style="fill:none;stroke:#263238;stroke-linecap:round;stroke-linejoin:round"></line><path d="M664,238.31s-4.42,1.77-4.14,4.77" style="fill:none;stroke:#263238;stroke-linecap:round;stroke-linejoin:round"></path><path d="M675.45,330.74l2.73,6.56-4.44-4.8S675.24,334.24,675.45,330.74Z" style="fill:#263238;stroke:#263238;stroke-linecap:round;stroke-linejoin:round"></path><path d="M683.37,324.19a5.81,5.81,0,0,0,1.91,3.28" style="fill:none;stroke:#263238;stroke-linecap:round;stroke-linejoin:round"></path><ellipse cx="693.48" cy="326.1" rx="1.37" ry="0.82" style="fill:#263238"></ellipse><path d="M697.3,323.37a3.51,3.51,0,0,1-.27,4.91" style="fill:none;stroke:#263238;stroke-linecap:round;stroke-linejoin:round"></path><path d="M670.6,346.26c-2.81.27-7.57.61-9.07.05-2.19-.82-8.2-4.1-8.2-10.38,0-5.86,8.08-9.1,15.15-8.18a13.63,13.63,0,0,1-.37-2.49,41.21,41.21,0,0,0-14.21-3.66s-12.38.53-20.16,2.54c-1.69,5.62-3.52,15.82-.69,29.05,1.1.33,2.14.68,3.08,1,1.27.49,2.62,1,4,1.45l-.19-.36s10.67,5.32,17.77,1.77c5-2.48,9.48-7.72,12.58-8.11C670.4,347.93,670.51,347,670.6,346.26Z" style="fill:#707070;stroke:#263238;stroke-linecap:round;stroke-linejoin:round"></path><path d="M703.85,332.38s-3.27-1.09-4.64.55-4.37,4.91-4.37,4.91-3.55-1.36-3.27.82,3.55,1.64,1.36,4.1a4.1,4.1,0,0,1-6.28,0,30.94,30.94,0,0,0-2.46-3.28s-1.91-2.18-5.46,0-4.1,4.64-3.28,4.92l2.46.82s-3.82,8.74-3.82,10.92,4.37,1.09,4.37,1.09-2.46,6.83,2.73,8.47,7.64-1.64,7.64-1.64-1.91,4.1,1.92,4.1a19.55,19.55,0,0,0,4.64-.28,6.67,6.67,0,0,0,6.83,2.19c4.37-1.09,8.19-6,8.46-7.1s1.09-3.83,1.09-3.83,3,5.19,4.1.82-.55-12.56-.55-12.56,5.74-3.55,5.74-5.19-6.28-9.28-6.28-9.28,4.91-1.09,2.46-4.65-8.47-2.45-8.47-2.45,1.09-3-.82-3a13.38,13.38,0,0,0-4.64,1.37S703.58,329.38,703.85,332.38Z" style="fill:#263238;stroke:#263238;stroke-linecap:round;stroke-linejoin:round"></path></g><g id="freepik--character-3--inject-71"><path d="M446.38,420.16s-1,11.14-1,14v3.88s8.72-.36,10.3-.12,7,3.27,8.35,4,2.18,1.09,1.45,1.46-7.75-.37-7.75-.37l-1,1.06s-16-4.08-16.53-4.57-3.87-16.47-3.51-19S438,414.1,438,414.1Z" style="fill:#fff;stroke:#263238;stroke-linecap:round;stroke-linejoin:round"></path><path d="M419.37,405.28l-10.31-4.94s-14.16,13.59-21.73,22.52S371.61,437,368.89,437.61s-7.76-1-7.76-4.27.39-9.71,1-11.07,1-14.55,4.85-26,10.48-20.77,13-26.2,5.63-14,7.38-16.11,6.21-3.69,7.57-3.88,3.3-.2,3.3,1.94a5.78,5.78,0,0,1-1.56,3.69s-3.1,9.51-4.07,11.64a21.85,21.85,0,0,0-1.75,7.38c-.19,2.71-7.37,2.13-7.37,2.13A94.32,94.32,0,0,0,380,388.7a88.09,88.09,0,0,0-1.36,12.81s11.65-21.74,16.5-27.75a35.39,35.39,0,0,1,12.23-9.13s-6.6-24.64-6.21-32.21.39-9.32.39-10.87,7.76-32.6,7.76-39.79,2.72-22.7,3.1-24.45,1.56-3.69,1.56-6.21,1.74-1.94,2.71-.58S419,257.7,419,261.19s-.19,5.63-.19,5.63,3.3,5.63,2.52,8-3.88,1.36-4.07,2.91-.78,6,1.35,15.53-.19,20.76-1,24.06-2.13,4.85-1.94,8.15,3.5,10.87,4.85,14.17,10.1,20,10.1,20,6.79,7,6.79,15.14a53.23,53.23,0,0,1-1.94,14.36l6.79,3.3L424.2,406.94Z" style="fill:#fff;stroke:#263238;stroke-linecap:round;stroke-linejoin:round"></path><path d="M435.46,389.09a53.23,53.23,0,0,0,1.94-14.36c0-8.15-6.79-15.14-6.79-15.14s-8.74-16.69-10.1-20-4.65-10.87-4.85-14.17,1.17-4.85,1.94-8.15,3.11-14.56,1-24.06a62.12,62.12,0,0,1-1.51-10.1h-7.87c-.74,9.07-7.69,37-7.69,38.43s0,3.3-.39,10.87,6.21,32.21,6.21,32.21a35.39,35.39,0,0,0-12.23,9.13c-4.85,6-16.5,27.75-16.5,27.75A88.09,88.09,0,0,1,380,388.7c.54-2.59,1.32-5.29,2-7.46a6.91,6.91,0,0,1-6.57-2.87,103.69,103.69,0,0,0-8.44,17.9c-3.88,11.45-4.27,24.65-4.85,26s-1,7.77-1,11.07,5,4.85,7.76,4.27,10.87-5.83,18.44-14.75,21.73-22.52,21.73-22.52l10.31,4.94,4.83,1.66,18.05-14.55Z" style="fill:#326DD9;stroke:#263238;stroke-linecap:round;stroke-linejoin:round"></path><path d="M407.32,364.63s6.6-4.85,12.81-4.85" style="fill:none;stroke:#263238;stroke-linecap:round;stroke-linejoin:round"></path><path d="M408.68,364.63s11.45-2.32,15.72,6" style="fill:none;stroke:#263238;stroke-linecap:round;stroke-linejoin:round"></path><path d="M368.43,422.53a22,22,0,0,0-.9,3.43" style="fill:none;stroke:#263238;stroke-linecap:round;stroke-linejoin:round"></path><path d="M378.59,401.51a172.1,172.1,0,0,0-9.32,18.71" style="fill:none;stroke:#263238;stroke-linecap:round;stroke-linejoin:round"></path><path d="M508.17,384s1.61,4.8.23,7.78-2.29,5.72-1.6,7.09.92,1.83.23,3.21a2.91,2.91,0,0,1-1.83,1.6s-2.75,6.18-5.72,7.09-8-2.74-8-2.74-8.93,4.12-13.28,6.41-15.1,7.55-20.83,8.69-13.27-1.83-22.65-7.32a118.67,118.67,0,0,1-15.34-10.53s9.61-10.53,14-11.9,5.72-1.83,9.39-1.83,12.58,3.66,16.93,4.58,13.51-.23,16-.23h6.18s2.75-7.78,5.5-11.22,9.84-5.26,12.58-5.26S508.17,384,508.17,384Z" style="fill:#fff;stroke:#263238;stroke-linecap:round;stroke-linejoin:round"></path><path d="M491,393.84s4.58,2.06,5.26-1.15-1.83-5,1.15-7.32,11.21.69,11.21.69.69-8.7-7.32-11.22c-4.91-1.54-11.22-2.52-15.79.23s-8.24,6.64-9.16,12.36,1.6,9.84,4.81,10.76,7.32-2.52,7.78-3.21A4.66,4.66,0,0,1,491,393.84Z" style="fill:#707070;stroke:#263238;stroke-linecap:round;stroke-linejoin:round"></path><path d="M492.38,394.75s-1.6-6.63-4.8-4.12-1.84,8,1.37,8.47" style="fill:#fff;stroke:#263238;stroke-linecap:round;stroke-linejoin:round"></path><path d="M495.13,373.47s5-3.66,2.52-6.64-13.74-.23-16.71,2.75-.69,5,4.58,5.49A20.63,20.63,0,0,0,495.13,373.47Z" style="fill:#707070;stroke:#263238;stroke-linecap:round;stroke-linejoin:round"></path><path d="M499.93,402.08a6.57,6.57,0,0,0,3.44,2.51" style="fill:none;stroke:#263238;stroke-linecap:round;stroke-linejoin:round"></path><path d="M504.51,396.35c-.12.81-.56,1.42-1,1.36s-.7-.76-.59-1.58.55-1.42,1-1.36S504.62,395.53,504.51,396.35Z" style="fill:#263238"></path><path d="M502.45,392s3.21-1.15,4.35.91" style="fill:none;stroke:#263238;stroke-linecap:round;stroke-linejoin:round"></path><polygon points="491.47 408.03 488.03 404.82 488.49 409.4 491.47 408.03" style="fill:#263238;stroke:#263238;stroke-linecap:round;stroke-linejoin:round"></polygon><path d="M481.17,400.93c-.28-2.81-1.49-4.28-2.81-5h-2.69c-2.51,0-11.67,1.14-16,.23-3.52-.75-10-3.29-14.34-4.23a31.57,31.57,0,0,0-18.89,18.64c2.3,1.58,5.09,3.4,8.29,5.27,9.38,5.49,16.93,8.47,22.65,7.32,5-1,13.75-5.1,18.82-7.66C478.3,412.17,481.7,406.22,481.17,400.93Z" style="fill:#707070;stroke:#263238;stroke-linecap:round;stroke-linejoin:round"></path><path d="M477.32,406.67c1-3.68,0-8.36-3.46-10.56s-8.74-.83-11.46-1.59a119.6,119.6,0,0,0-15.56-3.2c-6.17-.61-13.51-.92-14.88,1.14s-1.37,23.12.69,33.19,5.72,19,6.86,19.68,4.32.84,5,.92c8.07.83,9.64.78,10.3,1.14s5.69-.61,5.69-.61-1.33-1.2-2.26-1.9c-3.38-2.55-5.2-2.45-7.1-3.25s-5.25-.41-8.74-.82c-.68-.08-1.78-7.61-1.78-12.41s1.6-21.29,1.6-21.29,5,2.06,8.24,2.29,7.32.69,7.32.69,2.29,2.74,9.84,2.51c3.37-.1,7.19-1.11,9-4.24A7.88,7.88,0,0,0,477.32,406.67Z" style="fill:#fff;stroke:#263238;stroke-linecap:round;stroke-linejoin:round"></path><path d="M442.26,407.11s-3.66-4.35-4.35-6.41" style="fill:none;stroke:#263238;stroke-linecap:round;stroke-linejoin:round"></path></g><g id="freepik--character-2--inject-71"><path d="M327.39,341.74s-12.3-4.29-15.1-5.78-4.47-1.3-5-2.23-3.54-5.41-6.15-6-8,1.68-8.77,3.17-.74,8.95-.74,8.95a30.59,30.59,0,0,1,5.78,1.68c2.61,1.11,6.52-.56,7.64-.94s9,6.71,12.86,9.88,10.44,7.83,10.44,7.83l.94,4.85s7.27,3.36,8.95,1.31,3.16-7.83,3.16-10.44a9.83,9.83,0,0,0-4.28-8.39C333.54,343.05,327.39,341.74,327.39,341.74Z" style="fill:#fff;stroke:#263238;stroke-linecap:round;stroke-linejoin:round"></path><path d="M297,336.52a21.47,21.47,0,0,0,3.73-.56c1.12-.37,3.36.38,3.36.38" style="fill:none;stroke:#263238;stroke-linecap:round;stroke-linejoin:round"></path><path d="M338.41,361.13a24.87,24.87,0,0,1-4.5.57c-2,0-5.92-3.95-9.3-4.23,0,0-2.81-5.35-9.57-1.12s-9.57,7.88-9.57,15.48,5.91,12.39,10.7,14.93,13.8,0,16.33-1.69S338.41,361.13,338.41,361.13Z" style="fill:#fff;stroke:#263238;stroke-linecap:round;stroke-linejoin:round"></path><path d="M315,356.35c-6.76,4.22-9.57,7.88-9.57,15.48s5.91,12.39,10.7,14.93c3.48,1.84,9.19,1,13-.25a11,11,0,0,0-.64-7.36s-4.51,2-6.76-1.69,4.5-3.37,4.5-3.37.85,0,1.41-4.79-3.1-11.83-3.1-11.83S321.8,352.12,315,356.35Z" style="fill:#326DD9;stroke:#263238;stroke-linecap:round;stroke-linejoin:round"></path><path d="M311.1,378.59s-10.42-5.91-10.14-1.13,3.94,4,3.94,4-7.32,3.94-4.22,5.07a5.57,5.57,0,0,0,5.35-.85s-1.41,4.51,1.41,5.63,3.38-3.38,3.38-3.38,1.69,3.95,4.5,1.69.85-5.63.85-5.63,3.1-4.5,2.81-5.63-3.94.56-3.94.56-2-8.16-3.94-6.76S311.1,378.59,311.1,378.59Z" style="fill:#263238;stroke:#263238;stroke-linecap:round;stroke-linejoin:round"></path><path d="M317,358s5.35,10.13,2.26,18" style="fill:none;stroke:#263238;stroke-linecap:round;stroke-linejoin:round"></path><path d="M321.24,358.6s3.94,7.32.84,13.51" style="fill:none;stroke:#263238;stroke-linecap:round;stroke-linejoin:round"></path><path d="M331.67,362.71c.84.15,1.46.64,1.37,1.1s-.82.71-1.67.56-1.46-.64-1.38-1.1S330.82,362.56,331.67,362.71Z" style="fill:#263238"></path><path d="M329.34,360.17s-2.89,3,.7,5.09" style="fill:none;stroke:#263238;stroke-linecap:round;stroke-linejoin:round"></path><path d="M325,386.45s-6.72,2.59-9.05,9.06-5.7,17.34-7.51,19.93-5.95,3.1-7.24,3.88a5.44,5.44,0,0,1-3.37.77c-1.29,0-3.62-2.84-3.62-2.84s-3.1-10.09-11.13-12.16A79.12,79.12,0,0,0,266,403s-7.77-10.1-9.32-13.46-6.47-11.13-6.47-11.13,11.9-3.62,16.3-10.87,12.94-16,13.72-16.3a8,8,0,0,0,1.55-.77s4.66,3.62,7.51-.52,3.36-9.06,3.62-9.83,6.21-4.14,7.76-8-.26-3.36-2.85-3.62-9.31,2.59-9.31,2.59,3.88-8.8,6.21-12.16a15.79,15.79,0,0,0,2.85-7.51c0-.77-5.7-1.55-8.28.52S276.09,329,273,332.37s-23,18.89-31.05,24.33-29,13.45-29.5,18.37,2.07,6.21,4.66,12.42,8.28,20.18,21.22,31.31,19.92,17.34,24.06,20.44,25.62,5.44,33.13,4.66,18.11,0,25.35-2.85a24.3,24.3,0,0,0,10.87-8.54s5.95-.77,7-10.35-1.55-25.35-1.55-25.35S337.67,382.57,325,386.45Z" style="fill:#fff;stroke:#263238;stroke-linecap:round;stroke-linejoin:round"></path><path d="M302.41,327s-2.61,3.55-2.61,4.11.75,1.67,1.49.74,2.61-3.17,2.61-4.1A.87.87,0,0,0,302.41,327Z" style="fill:#fff;stroke:#263238;stroke-linecap:round;stroke-linejoin:round"></path><path d="M302.41,327s-1.49-1.86-2.8-.37-3.17,4.85-1.67,5S302.41,327,302.41,327Z" style="fill:#fff;stroke:#263238;stroke-linecap:round;stroke-linejoin:round"></path><path d="M299.24,325.9s-1.12-2.43-2.42-.75-2.61,6.9-1.12,6S299.24,325.9,299.24,325.9Z" style="fill:#fff;stroke:#263238;stroke-linecap:round;stroke-linejoin:round"></path><path d="M293.46,325.71S292,325,292.16,328s2.42,3,2.42,1.49S294.21,324.4,293.46,325.71Z" style="fill:#fff;stroke:#263238;stroke-linecap:round;stroke-linejoin:round"></path><path d="M296.53,423.2s3.36,1.55,8.28-1" style="fill:none;stroke:#263238;stroke-linecap:round;stroke-linejoin:round"></path><path d="M331.72,432.51s5.95-.77,7-10.35c.67-6.24-.19-15.13-.88-20.55-2,6-4.95,12.4-9.47,14.34-5.44,2.33-12.94-1.29-15.27-6.21a9.09,9.09,0,0,1-.64-4.13c-1.52,4.38-3,8.39-4,9.83A7.55,7.55,0,0,1,305,417.9c3.72,15.87,13.26,20.3,19.25,21.49A24.13,24.13,0,0,0,331.72,432.51Z" style="fill:#707070;stroke:#263238;stroke-linecap:round;stroke-linejoin:round"></path><path d="M296.91,419.77a13.92,13.92,0,0,1-2.71-2.52s-3.1-10.09-11.13-12.16A79.12,79.12,0,0,0,266,403s-7.77-10.1-9.32-13.46-6.47-11.13-6.47-11.13,11.9-3.62,16.3-10.87a86.76,86.76,0,0,1,9.68-12.38c-4.4-3.12-3.21-7.28-3.21-7.28-5.26-3.2-7.38-6.8-8.15-8.53-7.38,5.95-17.67,13.78-22.9,17.33-8,5.43-29,13.45-29.5,18.37s2.07,6.21,4.66,12.42,8.28,20.18,21.22,31.31,19.92,17.34,24.06,20.44,25.62,5.44,33.13,4.66h.12C292.67,431.52,295,423.61,296.91,419.77Z" style="fill:#326DD9;stroke:#263238;stroke-linecap:round;stroke-linejoin:round"></path><path d="M273,347.9l7-7s4.92,4.14,7.5,0,.44-9.21.44-9.21" style="fill:none;stroke:#263238;stroke-linecap:round;stroke-linejoin:round"></path><path d="M260.13,403.59l2.5,2.27" style="fill:none;stroke:#263238;stroke-linecap:round;stroke-linejoin:round"></path><path d="M262.41,359.41c-.38.49-.74,1-1.07,1.43-3.88,5.43-9.83,12.16-14.23,14.23s-11.91,2.59-11.91,2.59,8.28,7.76,11.91,12.68c2.16,2.93,7.26,7.88,11,11.41" style="fill:none;stroke:#263238;stroke-linecap:round;stroke-linejoin:round"></path><path d="M273,347.9s-5,4.79-8.92,9.48" style="fill:none;stroke:#263238;stroke-linecap:round;stroke-linejoin:round"></path><path d="M267.55,406.38s10.87-1.55,18.63,8.8" style="fill:none;stroke:#263238;stroke-linecap:round;stroke-linejoin:round"></path><path d="M322.41,398.36s-1.56-9.58,8.28-19.15l6.47-23.55A123.92,123.92,0,0,1,325,340.91C318.78,332.11,306.1,322,306.1,322s-6.21-.77-7.76-1.81-2.84-3.1-3.62-3.62-4.14-2.59-2.59-3.11,4.14,1.3,4.14,1.3l2.33.77,1-.77-2.59-2.33-3.37-.52s-4.91-.52-2.84-1.29a34.64,34.64,0,0,1,7.24-2.07,9.28,9.28,0,0,1,7.51,2.07c2.07,1.55,8.54,10.86,9.31,11.9s20.7,11.13,27.17,16.82,9.84,7.24,9.84,11.39-7.25,27.17-12.17,38.55a136.84,136.84,0,0,0-6.46,17.34" style="fill:#fff;stroke:#263238;stroke-linecap:round;stroke-linejoin:round"></path></g><g id="freepik--character-1--inject-71"><path d="M145.05,200.2s.56-2.63-3.38-4.5-13.49.19-17.24,5.25S119,213.69,119,218s-.37,12.56-.37,12.56,9,1.31,15.93,2.81,22.49-6,22.49-6-2.25-17.8-6.74-24.17S145.05,200.2,145.05,200.2Z" style="fill:#326DD9;stroke:#263238;stroke-linecap:round;stroke-linejoin:round"></path><path d="M132.68,230.94s-.19,8.62-.38,9.18-4.12,2.62-8.43,3.56-9.94-.75-13.5,2.06S107,254,107,254.93s-3.38,24.93-3.38,24.93l9.56-.19,2.81-6.56a16,16,0,0,1,2.25,7.5c0,3.93-.18,10.12-2.62,15.93a50.42,50.42,0,0,0-3.19,10.87S89.94,321.66,83.76,326.9,69.7,337.59,69.7,341.71s1.31,9.56,3.93,9.56,40.12-15.18,45.55-16.87,13.87-4.12,14.62-4.12,3.37.56,4.12,1.5,1.69,8.06,1.69,9.74,1.31,32.24,1.31,32.24-.56-.93.19.75-1.12,15-1.12,21.37,1.12,31.3.37,33.18-1.12,12.55-1.12,12.55-.75,2.44,1.5,2.44,8.62,0,8.62-.56-4.5-10.69-4.5-13.31,9.75-26.8,10.87-34.68-1.12-12.74.38-18.93,10.3-31.3,9.93-46.48-7.12-32.43-8.43-35.43-4.13-10.12-4.13-10.12l1.5-11.81,14.25,6.94,1.12.56S166.6,263.92,166.6,260s.94-13.87-3.75-16.31c-2.08-1.08-9.93-.19-12.55-.75s-5.63-3.37-5.63-3.37l-.37-8.81Z" style="fill:#326DD9;stroke:#263238;stroke-linecap:round;stroke-linejoin:round"></path><path d="M118.52,311.72s5.7,3,10.49,10.81" style="fill:none;stroke:#263238;stroke-linecap:round;stroke-linejoin:round"></path><path d="M145.31,322.32a20.34,20.34,0,0,0-1.49,2.06" style="fill:none;stroke:#263238;stroke-linecap:round;stroke-linejoin:round"></path><path d="M153.7,313s-3.66,3.8-6.61,7.22" style="fill:none;stroke:#263238;stroke-linecap:round;stroke-linejoin:round"></path><path d="M162.85,243.68c-2.08-1.08-9.93-.19-12.55-.75s-5.63-3.37-5.63-3.37l-.37-8.81-11.62.19s-.19,8.62-.38,9.18-4.12,2.62-8.43,3.56-9.94-.75-13.5,2.06S107,254,107,254.93s-3.38,24.93-3.38,24.93l9.56-.19,2.81-6.56a17.13,17.13,0,0,1,1.94,4.83l18.73-9.67,18,6.74.29-2.28,14.25,6.94,1.12.56S166.6,263.92,166.6,260,167.54,246.12,162.85,243.68Z" style="fill:#fff;stroke:#263238;stroke-linecap:round;stroke-linejoin:round"></path><path d="M132.18,233.1s5.64,5.84,6.81,5.45,5.25-3.5,5.25-3.5v-3.7l-11.56-.41Z" style="fill:#263238;stroke:#263238;stroke-linecap:round;stroke-linejoin:round"></path><path d="M157.23,260s-3-11.25-4.31-14.06c-.58-1.24-1-2.18-1.39-2.85a8.79,8.79,0,0,1-1.23-.15,12.94,12.94,0,0,1-2.08-.63,41.53,41.53,0,0,1,.2,6.44c0,4.31-3.37,6.56-9.93,6.56s-12.56-1.68-12.94-4.12c-.26-1.72,1.43-6.23,2.45-8.74a29.89,29.89,0,0,1-3.49,1.09c-1.76,4-5.8,13-7.39,16.65-2.06,4.68-2.06,10.49-1.69,11.43a14.38,14.38,0,0,1,.36,2l.2-.47a16,16,0,0,1,2.25,7.5c0,3.93-.18,10.12-2.62,15.93a52.17,52.17,0,0,0-2.85,9.1c3.82,2.07,13.08,6,27.78,5.89a35.84,35.84,0,0,0,20.64-7c-1.56-5-3-8.66-3.58-9.91-1.32-3-4.13-10.12-4.13-10.12l1.5-11.81Z" style="fill:#707070;stroke:#263238;stroke-linecap:round;stroke-linejoin:round"></path><path d="M148.8,218s1.31-2.62,2.43.19-2.06,5.62-2.62,5.81a4,4,0,0,1-1.13.19Z" style="fill:#fff;stroke:#263238;stroke-linecap:round;stroke-linejoin:round"></path><path d="M141.86,202.26s-6.37,1.31-8.06,4.68-.19,6-2.81,8.44-6.56,2.06-6.56,2.06-.56,3,.19,4.69a3.8,3.8,0,0,0,2.43,2.06s2.81,5.25,3.56,6.37,6.19,4.87,8.63,4.87,8.24-5.62,8.24-6.74,1.88-10.5,1.88-14.25S141.86,202.26,141.86,202.26Z" style="fill:#fff;stroke:#263238;stroke-linecap:round;stroke-linejoin:round"></path><path d="M131.15,218.05s2.44,1.15,3.74-.14" style="fill:none;stroke:#263238;stroke-linecap:round;stroke-linejoin:round"></path><path d="M141.34,218.05s2.44,1.15,3.74-.14" style="fill:none;stroke:#263238;stroke-linecap:round;stroke-linejoin:round"></path><path d="M141.49,214.63s3-.56,4.68,1.31" style="fill:none;stroke:#263238;stroke-linecap:round;stroke-linejoin:round"></path><path d="M135.49,214.44a4.57,4.57,0,0,0-3.56.56" style="fill:none;stroke:#263238;stroke-linecap:round;stroke-linejoin:round"></path><path d="M137.55,223.44a2.4,2.4,0,0,0,3,0" style="fill:none;stroke:#263238;stroke-linecap:round;stroke-linejoin:round"></path><path d="M137,227.75s3.37,1.12,4.31-.19" style="fill:none;stroke:#263238;stroke-linecap:round;stroke-linejoin:round"></path><path d="M137.74,242s-3.56,8.44-3.56,10.31a57.25,57.25,0,0,1-.94,6.75s1.12,2.06-20.81,13.31c-1.79.92-8.43,3.75-9,6.37s0,7.5,1.87,8.81,5.62.94,8.62-1.87c1.91-1.79,18.37-18,19.5-19.68s3.18-2.44,3.93-5.25.38-9.75.38-9.75Z" style="fill:#fff;stroke:#263238;stroke-linecap:round;stroke-linejoin:round"></path><path d="M138,242s3.56,8.44,3.56,10.31a57.25,57.25,0,0,0,.94,6.75s-1.13,2.06,20.8,13.31c1.8.92,8.44,3.75,9,6.37s0,7.5-1.88,8.81-5.62.94-8.62-1.87c-1.9-1.79-18.37-18-19.49-19.68s-3.19-2.44-3.94-5.25S138,251,138,251Z" style="fill:#fff;stroke:#263238;stroke-linecap:round;stroke-linejoin:round"></path><path d="M71.87,337.43s-4.23,3-4.43,5,1.81,8.26,2.82,8.87,17.54.4,25.81-1.41,28.22-6.05,32.05-6.05a22.3,22.3,0,0,1,5.24.4,11.72,11.72,0,0,0,3.83,5.65c3.23,2.82,3.23,8.67,3.23,8.67s3-1,3-2.22,1.41-7.86,0-11.09c-.74-1.7-2.21-5.24-2-7.66s-1.41-4.84-4-3.43-16.13,2.42-22.18,2.42-20.77-2.42-27-.81" style="fill:#326DD9;stroke:#263238;stroke-linecap:round;stroke-linejoin:round"></path><path d="M137.19,349.93c3.23,2.82,3.23,8.67,3.23,8.67s3-1,3-2.22,1.41-7.86,0-11.09c-.74-1.7-2.21-5.24-2-7.66s-1.41-4.84-4-3.43-16.13,2.42-22.18,2.42h-.4V346c6.08-1.19,11.49-2.13,13.3-2.13a22.3,22.3,0,0,1,5.24.4A11.72,11.72,0,0,0,137.19,349.93Z" style="fill:#fff;stroke:#263238;stroke-linecap:round;stroke-linejoin:round"></path><path d="M140.43,413c.2,7.69.33,15-.07,16-.75,1.87-1.12,12.55-1.12,12.55s-.75,2.44,1.5,2.44,8.62,0,8.62-.56-4.5-10.69-4.5-13.31c0-1.36,2.61-8.48,5.28-16.13C145.28,415.06,142.25,414.19,140.43,413Z" style="fill:#fff;stroke:#263238;stroke-linecap:round;stroke-linejoin:round"></path></g></svg>