<svg xmlns="http://www.w3.org/2000/svg" xmlns:xlink="http://www.w3.org/1999/xlink" viewBox="0 0 500 500"><defs><clipPath id="freepik--clip-path--inject-52"><path d="M287.3,383.57A65,65,0,0,1,275.52,421h0A65.43,65.43,0,0,1,156.46,384.7c0-.38,0-.75,0-1.13a65.38,65.38,0,0,1,65.06-65.43h.36c1,0,2.08,0,3.12.08,1.78.08,3.54.23,5.27.46a65.18,65.18,0,0,1,37.49,18.23c1.24,1.22,2.42,2.49,3.56,3.8h0a65.66,65.66,0,0,1,11,17.68c.73,1.75,1.39,3.55,2,5.38A64.54,64.54,0,0,1,287,377.54C287.21,379.52,287.3,381.54,287.3,383.57Z" style="fill:#326DD9;stroke:#263238;stroke-linecap:round;stroke-linejoin:round"></path></clipPath><clipPath id="freepik--clip-path-2--inject-52"><path d="M277.22,265.34c-1.75,4.78-3.24,30-3.24,30-14.79,10.73-43.08,5.37-43.08,5.37l.91-5.93a102.15,102.15,0,0,0-1.33-38.29c-.54-2.37-1.08-4.83-1.58-7.26-3.64,2.77-8.82,6-10.52,7.29-2.52,1.93-4.64,4.31-7,6.42-6.11,5.48-11.71,12.49-19.33,15.54l-15.18,6.05c-2,.79-4,1.58-5.92,2.42-5.7,2.43-11.9,4.26-17.42,7.06-2.9-.63-3.82-4.42-3.88-7.39,20.82-12.64,41.86-25.44,59.24-42.51,6.18-6.07,11.9-12.67,18.89-17.77l.14-.08c3.78-5.47,11.13-8.55,12.31-9a54.9,54.9,0,0,1,25.92-4,0,0,0,0,0,0,0c3.29,3.31,8.49,15.09,12,24.2a80.4,80.4,0,0,1,3.67,11C282.25,252,279,260.55,277.22,265.34Z" style="fill:#326DD9"></path></clipPath><clipPath id="freepik--clip-path-3--inject-52"><path d="M348.83,184.54s-1.16,1.89-4.78,3.92-16.54,14.07-18,15.37-11.17,6.24-13.49,6.82-30.75,13.64-32.2,15.23c-1,1.11-1.82,7.66-2.22,11.59-3.5-9.11-8.7-20.89-12-24.2a0,0,0,0,1,0,0,72.1,72.1,0,0,1,11.9-4.93c5.94-1.74,12.05-1.37,15.08-2.47,10-3.62,19.15-12.91,22.05-14.07s25.53-11.6,30.46-13S348.83,184.54,348.83,184.54Z" style="fill:#326DD9"></path></clipPath></defs><g id="freepik--background-simple--inject-52"><path d="M406.57,105.14c-55.88-28-123.14-29-183-10.86S110.66,149.4,67.78,194.88c-11.68,12.39-22.89,25.78-28.91,41.7-5.64,14.89-6.42,31.15-6.22,47.07.19,16.09,1.43,32.63,8.38,47.15s20.78,26.72,36.87,27.55c17.31.89,32.31-10.79,46.92-20.1a202.56,202.56,0,0,1,74.69-28.8c14.27-2.43,29-3.3,43.14,0,15.08,3.5,28.64,11.53,42.41,18.6,34,17.42,74.68,29.4,109.91,14.69,35-14.6,55.52-52.84,59.26-90.51S461.44,132.68,406.57,105.14Z" style="fill:#326DD9"></path><g style="opacity:0.7000000000000001"><path d="M406.55,104.6c-55.88-28-123.13-29-183-10.86S110.65,148.86,67.76,194.33C56.08,206.72,44.88,220.11,38.85,236c-5.64,14.9-6.41,31.15-6.22,47.07.19,16.1,1.43,32.64,8.39,47.16S61.79,357,77.89,357.81c17.3.89,32.3-10.8,46.91-20.11a202.85,202.85,0,0,1,74.69-28.79c14.27-2.43,29-3.3,43.14,0,15.08,3.5,28.64,11.54,42.41,18.6,34,17.43,74.68,29.41,109.91,14.69,35-14.6,55.52-52.83,59.26-90.5S461.43,132.14,406.55,104.6Z" style="fill:#fff"></path></g></g><g id="freepik--mirror--inject-52"><polyline points="76.17 274.91 76.17 95.99 414.53 95.99 414.53 283.46" style="fill:none;stroke:#263238;stroke-linecap:round;stroke-linejoin:round"></polyline><line x1="155.26" y1="137.84" x2="117.56" y2="183.45" style="fill:none;stroke:#263238;stroke-linecap:round;stroke-linejoin:round"></line><line x1="161.04" y1="130.84" x2="157.18" y2="135.52" style="fill:none;stroke:#263238;stroke-linecap:round;stroke-linejoin:round"></line><line x1="268.4" y1="137.84" x2="254.17" y2="155.06" style="fill:none;stroke:#263238;stroke-linecap:round;stroke-linejoin:round"></line><line x1="274.19" y1="130.84" x2="270.32" y2="135.52" style="fill:none;stroke:#263238;stroke-linecap:round;stroke-linejoin:round"></line><line x1="95.54" y1="244.17" x2="92.23" y2="248.17" style="fill:none;stroke:#263238;stroke-linecap:round;stroke-linejoin:round"></line><line x1="135.72" y1="195.56" x2="98.73" y2="240.31" style="fill:none;stroke:#263238;stroke-linecap:round;stroke-linejoin:round"></line><line x1="175.14" y1="297.23" x2="139.3" y2="340.58" style="fill:none;stroke:#263238;stroke-linecap:round;stroke-linejoin:round"></line><line x1="182.79" y1="287.97" x2="177.78" y2="294.03" style="fill:none;stroke:#263238;stroke-linecap:round;stroke-linejoin:round"></line><line x1="341.77" y1="244.17" x2="338.47" y2="248.17" style="fill:none;stroke:#263238;stroke-linecap:round;stroke-linejoin:round"></line><line x1="381.95" y1="195.56" x2="344.96" y2="240.31" style="fill:none;stroke:#263238;stroke-linecap:round;stroke-linejoin:round"></line><line x1="378.87" y1="297.23" x2="343.04" y2="340.58" style="fill:none;stroke:#263238;stroke-linecap:round;stroke-linejoin:round"></line><line x1="386.52" y1="287.97" x2="381.51" y2="294.03" style="fill:none;stroke:#263238;stroke-linecap:round;stroke-linejoin:round"></line><polyline points="414.53 274.91 414.53 358.66 76.17 358.66 76.17 274.91" style="fill:none;stroke:#263238;stroke-linecap:round;stroke-linejoin:round"></polyline><line x1="306.71" y1="368.77" x2="306.71" y2="274.91" style="fill:none;stroke:#263238;stroke-linecap:round;stroke-linejoin:round"></line><line x1="306.71" y1="274.91" x2="306.71" y2="96.46" style="fill:none;stroke:#263238;stroke-linecap:round;stroke-linejoin:round"></line><line x1="193.98" y1="96.43" x2="193.98" y2="369.74" style="fill:#fff;stroke:#263238;stroke-linecap:round;stroke-linejoin:round"></line><polygon points="311.89 274.91 306.71 312.14 306.71 274.91 311.89 274.91" style="fill:none;stroke:#263238;stroke-linecap:round;stroke-linejoin:round"></polygon><polygon points="420.39 274.91 414.53 310.96 414.53 274.91 420.39 274.91" style="fill:none;stroke:#263238;stroke-linecap:round;stroke-linejoin:round"></polygon><polygon points="188.76 274.91 193.94 312.14 193.94 274.91 188.76 274.91" style="fill:none;stroke:#263238;stroke-linecap:round;stroke-linejoin:round"></polygon><polygon points="70.56 274.91 76.43 310.96 76.43 274.91 70.56 274.91" style="fill:none;stroke:#263238;stroke-linecap:round;stroke-linejoin:round"></polygon><path d="M419.8,275.73H71.5c-3.29,0-3.29-8.72,0-8.72H419.8C423.08,267,423.08,275.73,419.8,275.73Z" style="fill:#263238"></path></g><g id="freepik--Floor--inject-52"><line x1="55.99" y1="426.55" x2="440.58" y2="426.55" style="fill:#fff;stroke:#263238;stroke-linecap:round;stroke-linejoin:round"></line></g><g id="freepik--Dumbbells--inject-52"><path d="M83.13,412.8c-4.63,0-8.39-2.1-8.39-4.68s3.76-4.69,8.39-4.69,8.41,2.1,8.41,4.69S87.77,412.8,83.13,412.8Z" style="fill:#7a7a7a"></path><path d="M83.13,449.66c-4.63,0-8.39-2.09-8.39-4.68V434.53c0,2.58,3.76,4.68,8.39,4.68s8.41-2.1,8.41-4.68V445C91.54,447.57,87.77,449.66,83.13,449.66Z" style="fill:#7a7a7a"></path><path d="M83.13,439.21c-4.63,0-8.39-2.1-8.39-4.68s3.76-4.69,8.39-4.69,8.41,2.1,8.41,4.69S87.77,439.21,83.13,439.21Z" style="fill:#7a7a7a"></path><path d="M91.54,434.53c0,2.58-3.77,4.68-8.41,4.68s-8.39-2.1-8.39-4.68" style="fill:none;stroke:#263238;stroke-linecap:round;stroke-linejoin:round"></path><path d="M87.15,422.69c-.1,0-.07,4.82,0,8.29a3.51,3.51,0,0,1-3.51,3.55h0A3.52,3.52,0,0,1,80.09,431v-7.76Z" style="fill:#263238;stroke:#263238;stroke-linecap:round;stroke-linejoin:round"></path><path d="M83.13,423.25c-4.63,0-8.39-2.09-8.39-4.68V408.12c0,2.58,3.76,4.68,8.39,4.68s8.41-2.1,8.41-4.68v10.45C91.54,421.16,87.77,423.25,83.13,423.25Z" style="fill:#7a7a7a"></path><path d="M91.54,408.12c0,2.58-3.77,4.68-8.41,4.68s-8.39-2.1-8.39-4.68" style="fill:none;stroke:#263238;stroke-linecap:round;stroke-linejoin:round"></path><path d="M131,426.52c0-4.63,2.1-8.4,4.69-8.4s4.68,3.77,4.68,8.4-2.1,8.4-4.68,8.4S131,431.16,131,426.52Z" style="fill:#7a7a7a"></path><path d="M94.11,426.52c0-4.63,2.09-8.4,4.68-8.4h10.46c-2.59,0-4.69,3.77-4.69,8.4s2.1,8.4,4.69,8.4H98.79C96.2,434.92,94.11,431.16,94.11,426.52Z" style="fill:#7a7a7a"></path><path d="M104.56,426.52c0-4.63,2.1-8.4,4.69-8.4s4.68,3.77,4.68,8.4-2.1,8.4-4.68,8.4S104.56,431.16,104.56,426.52Z" style="fill:#7a7a7a"></path><path d="M109.25,434.92c-2.59,0-4.69-3.76-4.69-8.4s2.1-8.4,4.69-8.4" style="fill:none;stroke:#263238;stroke-linecap:round;stroke-linejoin:round"></path><path d="M121.09,430.54c0-.1-4.82-.07-8.3,0a3.51,3.51,0,0,1-3.54-3.51h0a3.51,3.51,0,0,1,3.51-3.51h7.76Z" style="fill:#263238;stroke:#263238;stroke-linecap:round;stroke-linejoin:round"></path><path d="M120.52,426.52c0-4.63,2.09-8.4,4.68-8.4h10.46c-2.59,0-4.69,3.77-4.69,8.4s2.1,8.4,4.69,8.4H125.2C122.61,434.92,120.52,431.16,120.52,426.52Z" style="fill:#7a7a7a"></path><path d="M135.66,434.92c-2.59,0-4.69-3.76-4.69-8.4s2.1-8.4,4.69-8.4" style="fill:none;stroke:#263238;stroke-linecap:round;stroke-linejoin:round"></path></g><g id="freepik--Drinks--inject-52"><path d="M389.45,408.9h.09a8.74,8.74,0,0,1,8.74,8.74V446a5.53,5.53,0,0,1-5.53,5.53h-6.51a5.53,5.53,0,0,1-5.53-5.53V417.64A8.74,8.74,0,0,1,389.45,408.9Z" transform="translate(819.72 40.72) rotate(90)" style="fill:#fff;stroke:#263238;stroke-linecap:round;stroke-linejoin:round"></path><rect x="384.65" y="423.59" width="17.58" height="13.26" transform="translate(823.66 36.78) rotate(90)" style="fill:#263238;stroke:#263238;stroke-linecap:round;stroke-linejoin:round"></rect><rect x="409.89" y="428.47" width="6.09" height="3.52" transform="translate(843.17 17.29) rotate(90)" style="fill:#326DD9;stroke:#263238;stroke-linecap:round;stroke-linejoin:round"></rect><path d="M385.07,401.14h.09a8.74,8.74,0,0,1,8.74,8.74v28.37a5.53,5.53,0,0,1-5.53,5.53h-6.51a5.53,5.53,0,0,1-5.53-5.53V409.88A8.74,8.74,0,0,1,385.07,401.14Z" style="fill:#fff;stroke:#263238;stroke-linecap:round;stroke-linejoin:round"></path><rect x="376.33" y="411.89" width="17.58" height="13.26" style="fill:#263238;stroke:#263238;stroke-linecap:round;stroke-linejoin:round"></rect><rect x="382.08" y="397.26" width="6.09" height="3.52" style="fill:#326DD9;stroke:#263238;stroke-linecap:round;stroke-linejoin:round"></rect></g><g id="freepik--Ball--inject-52"><path d="M287.3,383.57A65,65,0,0,1,275.52,421h0A65.43,65.43,0,0,1,156.46,384.7c0-.38,0-.75,0-1.13a65.38,65.38,0,0,1,65.06-65.43h.36c1,0,2.08,0,3.12.08,1.78.08,3.54.23,5.27.46a65.18,65.18,0,0,1,37.49,18.23c1.24,1.22,2.42,2.49,3.56,3.8h0a65.66,65.66,0,0,1,11,17.68c.73,1.75,1.39,3.55,2,5.38A64.54,64.54,0,0,1,287,377.54C287.21,379.52,287.3,381.54,287.3,383.57Z" style="fill:#326DD9"></path><g style="clip-path:url(#freepik--clip-path--inject-52)"><path d="M225,318.22s-6.46,15.55,9.75,40.44,25.05,43.43,25.81,53.41.09,21.59-5.82,28.08c0,0,43.92-23.45,29.52-76.38S225,318.22,225,318.22Z" style="opacity:0.2"></path></g><path d="M287.3,383.57A65,65,0,0,1,275.52,421h0A65.43,65.43,0,0,1,156.46,384.7c0-.38,0-.75,0-1.13a65.38,65.38,0,0,1,65.06-65.43h.36c1,0,2.08,0,3.12.08,1.78.08,3.54.23,5.27.46a65.18,65.18,0,0,1,37.49,18.23c1.24,1.22,2.42,2.49,3.56,3.8h0a65.66,65.66,0,0,1,11,17.68c.73,1.75,1.39,3.55,2,5.38A64.54,64.54,0,0,1,287,377.54C287.21,379.52,287.3,381.54,287.3,383.57Z" style="fill:none;stroke:#263238;stroke-linecap:round;stroke-linejoin:round"></path><path d="M221.73,319.73h0c-.95,2.12-6.12,4.64-12.65,6-6.09,1.25-11.5,1.09-13.58-.23a1.74,1.74,0,0,1-.88-1.1,1.27,1.27,0,0,1,0-.28,65,65,0,0,1,26.93-5.95h0a1.49,1.49,0,0,1,.33.65A1.65,1.65,0,0,1,221.73,319.73Z" style="fill:none;stroke:#263238;stroke-linecap:round;stroke-linejoin:round"></path><path d="M156.46,384.7c11.88,5.23,37.06,5.45,65.17-.3,25.46-5.22,46.78-14,57.17-22.65" style="fill:none;stroke:#263238;stroke-linecap:round;stroke-linejoin:round"></path><path d="M238.08,343.76h0c-5.22,1.5-10.72,2.85-16.44,4-22.36,4.57-42.87,5.37-56.3,2.87" style="fill:none;stroke:#263238;stroke-linecap:round;stroke-linejoin:round"></path><path d="M164.72,415.4c11.88,5.23,37.06,5.45,65.17-.3,20.73-4.25,38.71-10.86,50.28-17.84" style="fill:none;stroke:#263238;stroke-linecap:round;stroke-linejoin:round"></path><path d="M190.12,440.78s43.28,12.06,83.06-16.61" style="fill:none;stroke:#263238;stroke-linecap:round;stroke-linejoin:round"></path><path d="M145,379s-7.13,13.78,0,23.29" style="fill:none;stroke:#263238;stroke-linecap:round;stroke-linejoin:round"></path><path d="M151.19,383.94a13,13,0,0,0,0,13.46" style="fill:none;stroke:#263238;stroke-linecap:round;stroke-linejoin:round"></path><path d="M312.12,400.78s4.21,14.94-4.69,22.82" style="fill:none;stroke:#263238;stroke-linecap:round;stroke-linejoin:round"></path><path d="M305.08,404.36a13,13,0,0,1-2.71,13.18" style="fill:none;stroke:#263238;stroke-linecap:round;stroke-linejoin:round"></path></g><g id="freepik--Character--inject-52"><path d="M277.22,265.34c-1.75,4.78-3.24,30-3.24,30-14.79,10.73-43.08,5.37-43.08,5.37l.91-5.93a102.15,102.15,0,0,0-1.33-38.29c-.54-2.37-1.08-4.83-1.58-7.26-3.64,2.77-8.82,6-10.52,7.29-2.52,1.93-4.64,4.31-7,6.42-6.11,5.48-11.71,12.49-19.33,15.54l-15.18,6.05c-2,.79-4,1.58-5.92,2.42-5.7,2.43-11.9,4.26-17.42,7.06-2.9-.63-3.82-4.42-3.88-7.39,20.82-12.64,41.86-25.44,59.24-42.51,6.18-6.07,11.9-12.67,18.89-17.77l.14-.08c3.78-5.47,11.13-8.55,12.31-9a54.9,54.9,0,0,1,25.92-4,0,0,0,0,0,0,0c3.29,3.31,8.49,15.09,12,24.2a80.4,80.4,0,0,1,3.67,11C282.25,252,279,260.55,277.22,265.34Z" style="fill:#326DD9"></path><g style="clip-path:url(#freepik--clip-path-2--inject-52)"><path d="M277.22,265.34c-1.75,4.78-3.24,30-3.24,30-14.79,10.73-43.08,5.37-43.08,5.37l.91-5.93a102.15,102.15,0,0,0-1.33-38.29c-.54-2.37-1.08-4.83-1.58-7.26-3.64,2.77-8.82,6-10.52,7.29-2.52,1.93-4.64,4.31-7,6.42-6.11,5.48-11.71,12.49-19.33,15.54l-15.18,6.05c-2,.79-4,1.58-5.92,2.42-5.7,2.43-11.9,4.26-17.42,7.06-2.9-.63-3.82-4.42-3.88-7.39,20.82-12.64,41.86-25.44,59.24-42.51,6.18-6.07,11.9-12.67,18.89-17.77l.14-.08c3.78-5.47,11.13-8.55,12.31-9a54.9,54.9,0,0,1,25.92-4,0,0,0,0,0,0,0c3.29,3.31,8.49,15.09,12,24.2a80.4,80.4,0,0,1,3.67,11C282.25,252,279,260.55,277.22,265.34Z" style="fill:#326DD9"></path><path d="M240.1,269c3.23.28,6.72,1,9.9.35,10.41-2.2,14.6-10,15.46-9.22,4.62,4.05,12.22,2.62,13.33.91a19.22,19.22,0,0,0,3.12-11.17,1.36,1.36,0,0,0-.21-.74c-.56-.74-.56,2.43-3.18,4.81,0,0-3.67,5.11-13-1.12-3.58-2.4-3.81,3.26-13.07,9.68S240.49,268.24,240.1,269Z" style="opacity:0.2"></path><path d="M233.4,237.47s-.14.28-.42.79a70.31,70.31,0,0,1-12.79,16.38c-8.81,8.32,8.71-5.39,8.71-5.39l2.1,9.66a51.79,51.79,0,0,0,2.4-21.44" style="opacity:0.2"></path></g><path d="M346.31,178.84s3.62-.3,5.28-2c1.91-2,1.13-4.79,1.81-5.06s2.18.28,1.36,3.2a8.14,8.14,0,0,0,2.12-4.55c.27-2.73.6-4.78.6-4.78s1.53-.7,1.64.68a27.68,27.68,0,0,1,.1,3,28.7,28.7,0,0,0,1.26-5.45A1.14,1.14,0,0,1,362,163c.3.13.43.91.6,1.3.42-1.39,2-1,2.09.71.21,4.72-2.62,10.28-2.62,10.28a6.08,6.08,0,0,0,2.55-2s1.92-1.11,1.91,1.5c0,1.7-1.73,2.76-3.23,4.17s-4.77,5.08-7.9,5.63a33.89,33.89,0,0,1-7.76,0S343.45,182.38,346.31,178.84Z" style="fill:#fff;stroke:#263238;stroke-linecap:round;stroke-linejoin:round"></path><path d="M362.64,164.29c.2-1.07-1.38,7.51-2.43,10.08" style="fill:#fff;stroke:#263238;stroke-linecap:round;stroke-linejoin:round"></path><path d="M359.23,168.54c-.76,4.72-1.52,5.69-1.52,5.69" style="fill:#fff;stroke:#263238;stroke-linecap:round;stroke-linejoin:round"></path><path d="M353.75,175.71c1.9-.87,3.61-1.86,6.46-1.34" style="fill:#fff;stroke:#263238;stroke-linecap:round;stroke-linejoin:round"></path><path d="M348.83,184.54s-1.16,1.89-4.78,3.92-16.54,14.07-18,15.37-11.17,6.24-13.49,6.82-30.75,13.64-32.2,15.23c-1,1.11-1.82,7.66-2.22,11.59-3.5-9.11-8.7-20.89-12-24.2a0,0,0,0,1,0,0,72.1,72.1,0,0,1,11.9-4.93c5.94-1.74,12.05-1.37,15.08-2.47,10-3.62,19.15-12.91,22.05-14.07s25.53-11.6,30.46-13S348.83,184.54,348.83,184.54Z" style="fill:#326DD9"></path><g style="clip-path:url(#freepik--clip-path-3--inject-52)"><path d="M271.1,221l7,16.45s.51-10.5,2.22-11.59S309.3,212,309.3,212,280.9,223.69,271.1,221Z" style="opacity:0.2"></path></g><path d="M153.53,294s-3.56,2.62-5.3,3.78a5.32,5.32,0,0,0-1.66,2.7,6.51,6.51,0,0,1-5.16,4.33,34,34,0,0,1-8,.22c-2.9-.29-2.61-1.92-2.61-1.92s-10.73-1.56-13.64-2.14-4.64-1.74-4.64-2.9,19.73-2.32,25.82-4.07a12.17,12.17,0,0,0,5.15-2.62,42.35,42.35,0,0,1,8.18-6h.22C157.06,287.47,153.53,294,153.53,294Z" style="fill:#fff;stroke:#263238;stroke-linecap:round;stroke-linejoin:round"></path><path d="M348.83,184.54s-1.16,1.89-4.78,3.92-16.54,14.07-18,15.37-11.17,6.24-13.49,6.82-30.75,13.64-32.2,15.23c-1,1.11-1.82,7.66-2.22,11.59a80.4,80.4,0,0,1,3.67,11c.43,3.48-2.86,12-4.6,16.83s-3.24,30-3.24,30c-14.79,10.73-43.08,5.37-43.08,5.37l.91-5.93a102.15,102.15,0,0,0-1.33-38.29c-.54-2.37-1.08-4.83-1.58-7.26-3.64,2.77-8.82,6-10.52,7.29-2.52,1.93-4.64,4.31-7,6.42-6.11,5.48-11.71,12.49-19.33,15.54l-15.18,6.05c-2,.79-4,1.58-5.92,2.42-5.7,2.43-11.9,4.26-17.42,7.06,0,0,3.58-6.66-1.73-8.69,20.11-12.22,40.31-24.73,57.09-41.21,6.18-6.07,11.9-12.67,18.89-17.77l.14-.08c3.78-5.47,11.13-8.55,12.31-9a54.9,54.9,0,0,1,25.92-4,72.1,72.1,0,0,1,11.9-4.93c5.94-1.74,12.05-1.37,15.08-2.47,10-3.62,19.15-12.91,22.05-14.07s25.53-11.6,30.46-13S348.83,184.54,348.83,184.54Z" style="fill:none;stroke:#263238;stroke-linecap:round;stroke-linejoin:round"></path><path d="M153.53,294c-2.9-.63-3.82-4.42-3.88-7.39l2-1.24.11-.06C157.11,287.37,153.53,294,153.53,294Z" style="fill:#326DD9;stroke:#263238;stroke-linecap:round;stroke-linejoin:round"></path><path d="M274.48,428.94s-5.2,14.53-2.85,16.27,27.46,10,36,7-8-12.62-12.33-14.79-6.33-2.1-5.82-7.32S286.26,437.12,274.48,428.94Z" style="fill:#fff;stroke:#263238;stroke-linecap:round;stroke-linejoin:round"></path><path d="M287.3,447.12c7.95,2.1,17.53,3.9,21.75,1.87" style="fill:#fff;stroke:#263238;stroke-linecap:round;stroke-linejoin:round"></path><path d="M274.85,443.3s3.15,1.13,7.6,2.46" style="fill:#fff;stroke:#263238;stroke-linecap:round;stroke-linejoin:round"></path><path d="M320.23,432c2,1.56,4.82,1.52,7.21,2.41a27.61,27.61,0,0,1,4.49,2.53A30.63,30.63,0,0,0,343.29,441a13.15,13.15,0,0,0,5.89-.23,6.23,6.23,0,0,0,4.18-3.9,2.83,2.83,0,0,0-.43-2.72,3.87,3.87,0,0,0-1.44-.85,76.32,76.32,0,0,1-16.2-9.22c-2.66-2-5.31-4.18-8.53-4.94C319.45,417.4,314,427.16,320.23,432Z" style="fill:#fff;stroke:#263238;stroke-linecap:round;stroke-linejoin:round"></path><path d="M323.5,431.62a6.6,6.6,0,0,1,2.21,1c1.25.89,6.22,4.25,6.22,4.25" style="fill:#fff;stroke:#263238;stroke-linecap:round;stroke-linejoin:round"></path><path d="M342.52,438.26c3.79.85,8.49,1.12,10.78-1.83" style="fill:#fff;stroke:#263238;stroke-linecap:round;stroke-linejoin:round"></path><path d="M336.83,436.43a32.45,32.45,0,0,0,3.34,1.2" style="fill:#fff;stroke:#263238;stroke-linecap:round;stroke-linejoin:round"></path><path d="M230.9,300.73,264,325.1s4.87,3.27,7.65,0L274,295.36s-12,11-43.08,5.37" style="fill:#263238;stroke:#263238;stroke-linecap:round;stroke-linejoin:round"></path><path d="M335.72,390.38c-2.55,21.75-3.42,31.77-3.42,31.77s-4.71,8.63-13.91,1c0,0,1.5-15.73-.87-29.56-2.33-13.56,1.29-31.39,1.52-31.84-16-5.06-47.41-44.36-47.41-44.36l2.35-22s42.31,35.41,54,44.11C341.63,349.68,338.27,368.62,335.72,390.38Z" style="fill:#263238;stroke:#263238;stroke-linecap:round;stroke-linejoin:round"></path><path d="M318.39,360.34a14.76,14.76,0,0,1-1.76,7.85l0,0c-.7,1.42-21.29,48-26.07,61.84a11.58,11.58,0,0,1-1.09,2.34c-2.91,4.74-8,3.75-10.72,2.87-2.41-.78-4.21-3.72-4.25-6.33a4.9,4.9,0,0,1,0-.77c.25-1.92.58-4.36,1-7.14h0c1.3-8.56,3.4-20.31,6.33-29.77A112.24,112.24,0,0,1,287,377.54,53.93,53.93,0,0,1,293,367c-1.9-.7-4.73-1.74-8.73-3.23l-5.45-2-32.57-13A53.69,53.69,0,0,1,233.56,340a27.57,27.57,0,0,1-8.31-15.33,21.5,21.5,0,0,1-.34-5.38c0-.36,0-.71.08-1.07.82-9,5.92-17.48,5.92-17.48H231c14.58,3.27,28.51,9.62,40.65,16.63h0c.19.1.39.21.58.33,21.61,12.55,37.44,27.06,40.94,29.58C316.38,349.62,318.31,355.15,318.39,360.34Z" style="fill:#263238;stroke:#263238;stroke-linecap:round;stroke-linejoin:round"></path><path d="M241.86,204.46c1.16,6.68-.29,11.27-3.19,13.32s25.24,17.73,23.79-4c0,0-3.19-1-4.06-2.83S241.86,204.46,241.86,204.46Z" style="fill:#fff;stroke:#263238;stroke-linecap:round;stroke-linejoin:round"></path><path d="M235,165.34c-3.51-1.13-8.25.88-10.6,3.71a11.91,11.91,0,0,0-2.58,10.07c.52,2.6,2.37,6.54,5,7,2.09.38,4.12-.73,5.95-1.8a18.08,18.08,0,0,0,4.68-3.47,12.87,12.87,0,0,0,2.38-4.51,10.41,10.41,0,0,0,.31-6.47S239.65,166.85,235,165.34Z" style="fill:#263238;stroke:#263238;stroke-linecap:round;stroke-linejoin:round"></path><path d="M233.21,169.89a12.28,12.28,0,0,0-4.72,4.39c-2.72,4.08-3.81,9.53-1.74,14a22.58,22.58,0,0,0,4,5.38l7.2,8c-.43-2.11.5-4.26,1.67-6a43.58,43.58,0,0,1,4.87-5.81,28.48,28.48,0,0,1,5.61-5,21.93,21.93,0,0,1,8.23-2.65,11.86,11.86,0,0,1,5,.08c-1-6.58-11.4-21.06-20.59-16.05a4.87,4.87,0,0,0-2.51,2.67s-2.35-.05-3.45.07A10.52,10.52,0,0,0,233.21,169.89Z" style="fill:#263238;stroke:#263238;stroke-linecap:round;stroke-linejoin:round"></path><path d="M236.24,196.62a7.63,7.63,0,0,0-2.2-2.15,2.65,2.65,0,0,0-2.91.06,3,3,0,0,0-.94,2.08,7.71,7.71,0,0,0,2.26,6,11.23,11.23,0,0,0,5.85,3c.52.1,1.19.09,1.41-.39a1.23,1.23,0,0,0-.15-1c-1.13-2.44-1.38-3-2.5-5.43Z" style="fill:#fff;stroke:#263238;stroke-linecap:round;stroke-linejoin:round"></path><path d="M253.9,171.94a7.85,7.85,0,0,0-2.76-.29,4.36,4.36,0,0,0-3.92,4h0a6.67,6.67,0,0,0-6.17,1.69,7.24,7.24,0,0,0-.84.94c-5.28,7.48-3.56,13.75-3.08,17a33.19,33.19,0,0,0,1.44,6.48,11.36,11.36,0,0,0,3.77,5.37,16.1,16.1,0,0,0,2.11,1.26c.83.44,1.65.88,2.48,1.3a41.39,41.39,0,0,0,7.68,3.09c2.16.59,4.62.89,6.5-.33s2.69-3.84,3.41-5.95a60,60,0,0,0,2.33-8.85,17.84,17.84,0,0,0,.22-6.59c-.49-2.5-1.84-4.72-3-7s-1.64-5.34-3.38-7.35A13.89,13.89,0,0,0,253.9,171.94Z" style="fill:#fff;stroke:#263238;stroke-linecap:round;stroke-linejoin:round"></path><path d="M254.73,169.89c1.07-.51,2.42-1,3.37-.27s.87,1.8.86,2.83l0,2.89a2.1,2.1,0,0,0,.1.79c.28.69,1.18.82,1.92.88,1.5.14,3.26.62,3.74,2,.37,1.08-.17,2.25-.1,3.39a.78.78,0,0,0,.22.59.82.82,0,0,0,.65.11,9.81,9.81,0,0,0,1.78-.34s6.42-.72,3.62,6.3" style="fill:none;stroke:#263238;stroke-linecap:round;stroke-linejoin:round"></path><path d="M242.51,176.33a10.67,10.67,0,0,0-2.92,3.18,4.52,4.52,0,0,0-.19,4.18,21.74,21.74,0,0,1,1.66,2.43c.63,1.63-.43,3.36-1.11,5a7.61,7.61,0,0,0-.29,5.77,2.53,2.53,0,0,0,1.43,1.52c.83.26,1.79-.17,2.57.21s1.06,1.67.85,2.65-.74,2-.43,3c1.27,3.82,6.18,1.39,6.18,1.39" style="fill:none;stroke:#263238;stroke-linecap:round;stroke-linejoin:round"></path><path d="M242.34,207.1s8.66,10.77,15.21,8.14c5.7-2.29,7-8.77,7-8.77s-1.92,5.3-3.41,5.95-5.65,1.8-18.77-5.32" style="fill:#263238"></path><path d="M257.06,187.59s.24,5.11,2.37,5.59,4.95,1.56,2.89,4.1" style="fill:none;stroke:#263238;stroke-linecap:round;stroke-linejoin:round"></path><path d="M251.81,193.09c.44,1.15.38,2.24-.14,2.44s-1.31-.57-1.75-1.71-.37-2.24.14-2.44S251.37,191.94,251.81,193.09Z" style="fill:#263238"></path><path d="M261.49,187.83c.44,1.15.38,2.24-.14,2.44s-1.3-.56-1.75-1.71-.38-2.23.15-2.44S261.05,186.69,261.49,187.83Z" style="fill:#263238"></path><path d="M245.35,190.89s1.5-4.34,5.18-5" style="fill:none;stroke:#263238;stroke-linecap:round;stroke-linejoin:round"></path><path d="M256.82,183.45s2.61-2.79,5.68-.64" style="fill:none;stroke:#263238;stroke-linecap:round;stroke-linejoin:round"></path><circle cx="260.26" cy="203.16" r="1.52" style="fill:#263238"></circle><path d="M252.44,268.69c12.49-5.95,12.08-14.4,12.08-16.32" style="fill:none;stroke:#263238;stroke-linecap:round;stroke-linejoin:round"></path><path d="M231.66,262.49c2,6.9,3.83,14.17,6.17,21" style="fill:none;stroke:#263238;stroke-linecap:round;stroke-linejoin:round"></path><path d="M230.39,227.33a17.11,17.11,0,0,1,2.1,15.17" style="fill:none;stroke:#263238;stroke-linecap:round;stroke-linejoin:round"></path><line x1="273.64" y1="227.33" x2="279.22" y2="240.31" style="fill:none;stroke:#263238;stroke-linecap:round;stroke-linejoin:round"></line><line x1="270.48" y1="219.98" x2="272.69" y2="225.16" style="fill:none;stroke:#263238;stroke-linecap:round;stroke-linejoin:round"></line><path d="M313.92,200.12a6,6,0,0,1,1.58,4.6" style="fill:none;stroke:#263238;stroke-linecap:round;stroke-linejoin:round"></path><path d="M196.76,261.58a9.1,9.1,0,0,0,2,3.52" style="fill:none;stroke:#263238;stroke-linecap:round;stroke-linejoin:round"></path><path d="M309.05,344a272.7,272.7,0,0,0-36.84-26.27l-1.73-1,2.79-14.62" style="fill:none;stroke:#7a7a7a;stroke-linecap:round;stroke-linejoin:round"></path><path d="M313.15,347.3c-.55-.39-1.39-1.08-2.52-2" style="fill:none;stroke:#7a7a7a;stroke-linecap:round;stroke-linejoin:round"></path><path d="M316.63,368.19a14.76,14.76,0,0,0,1.76-7.85,21.29,21.29,0,0,0-2.39-9.65" style="fill:none;stroke:#7a7a7a;stroke-linecap:round;stroke-linejoin:round"></path><path d="M249.36,308.33A60.82,60.82,0,0,1,266.15,316" style="fill:none;stroke:#7a7a7a;stroke-linecap:round;stroke-linejoin:round"></path><path d="M231.66,306.21a49,49,0,0,1,12.82,1" style="fill:none;stroke:#7a7a7a;stroke-linecap:round;stroke-linejoin:round"></path><path d="M151.8,285.34h0c-3,1.74-10.87,8-13.44,8.69-6.09,1.75-25.82,2.91-25.82,4.07s1.74,2.32,4.64,2.9,13.64,2.14,13.64,2.14-.29,1.63,2.61,1.92a33.26,33.26,0,0,0,8.6-.32,6,6,0,0,0,4.49-4.09,5.58,5.58,0,0,1,1.71-2.84c1.74-1.16,5.3-3.78,5.3-3.78S157.11,287.37,151.8,285.34Z" style="fill:#fff;stroke:#263238;stroke-linecap:round;stroke-linejoin:round"></path><path d="M132.05,302.1a1.68,1.68,0,0,1,1.2-1.05,6.58,6.58,0,0,1,1.66-.14,12.09,12.09,0,0,0,4.47-1" style="fill:#fff;stroke:#263238;stroke-linecap:round;stroke-linejoin:round"></path><path d="M122.38,301c-3.48,1.47-5.22-1.21-5.3-1.6a1,1,0,0,1,.9-1.13c6.45.69,10.75-.12,15.35-.35" style="fill:none;stroke:#263238;stroke-linecap:round;stroke-linejoin:round"></path><line x1="119.5" y1="296.72" x2="130.84" y2="295.87" style="fill:#fff;stroke:#263238;stroke-linecap:round;stroke-linejoin:round"></line></g></svg>